<mxfile host="app.diagrams.net" modified="2022-04-10T09:38:38.103Z" agent="5.0 (Windows NT 10.0; WOW64) AppleWebKit/537.36 (KHTML, like Gecko) Chrome/100.0.4896.75 Safari/537.36" etag="zzths22bya2z3Pf1rgA9" version="16.6.4" type="github" pages="3">
  <diagram id="YuKTOaxIg94aLrwmU1MW" name="General Design">
    <mxGraphModel dx="1422" dy="705" grid="1" gridSize="10" guides="1" tooltips="1" connect="1" arrows="1" fold="1" page="1" pageScale="1" pageWidth="827" pageHeight="1169" math="0" shadow="0">
      <root>
        <mxCell id="0" />
        <mxCell id="1" parent="0" />
        <mxCell id="uz6rWptoQf6fMfHY_UlT-10" value="" style="group" parent="1" vertex="1" connectable="0">
          <mxGeometry x="477.06" y="225.89" width="120" height="360" as="geometry" />
        </mxCell>
        <mxCell id="uz6rWptoQf6fMfHY_UlT-11" value="" style="rounded=0;whiteSpace=wrap;html=1;" parent="uz6rWptoQf6fMfHY_UlT-10" vertex="1">
          <mxGeometry y="84" width="120" height="180" as="geometry" />
        </mxCell>
        <mxCell id="uz6rWptoQf6fMfHY_UlT-12" value="Ingestion" style="text;html=1;strokeColor=#6c8ebf;fillColor=#dae8fc;align=center;verticalAlign=middle;whiteSpace=wrap;rounded=0;" parent="uz6rWptoQf6fMfHY_UlT-10" vertex="1">
          <mxGeometry y="84" width="120" height="30" as="geometry" />
        </mxCell>
        <mxCell id="uz6rWptoQf6fMfHY_UlT-13" value="Batch (Hotfolder)" style="rounded=0;whiteSpace=wrap;html=1;" parent="uz6rWptoQf6fMfHY_UlT-10" vertex="1">
          <mxGeometry x="10" y="134" width="100" height="30" as="geometry" />
        </mxCell>
        <mxCell id="uz6rWptoQf6fMfHY_UlT-19" value="Manual Form" style="rounded=0;whiteSpace=wrap;html=1;" parent="uz6rWptoQf6fMfHY_UlT-10" vertex="1">
          <mxGeometry x="10" y="224" width="100" height="30" as="geometry" />
        </mxCell>
        <mxCell id="uz6rWptoQf6fMfHY_UlT-18" value="Real-time (API)" style="rounded=0;whiteSpace=wrap;html=1;" parent="uz6rWptoQf6fMfHY_UlT-10" vertex="1">
          <mxGeometry x="10" y="184" width="100" height="30" as="geometry" />
        </mxCell>
        <mxCell id="uz6rWptoQf6fMfHY_UlT-22" value="" style="group;strokeColor=#36393d;fillColor=#cce5ff;" parent="1" vertex="1" connectable="0">
          <mxGeometry x="649.06" y="225.89" width="310" height="340" as="geometry" />
        </mxCell>
        <mxCell id="uz6rWptoQf6fMfHY_UlT-23" value="" style="rounded=0;whiteSpace=wrap;html=1;fillColor=#cdeb8b;strokeColor=#36393d;" parent="uz6rWptoQf6fMfHY_UlT-22" vertex="1">
          <mxGeometry width="310" height="340" as="geometry" />
        </mxCell>
        <mxCell id="uz6rWptoQf6fMfHY_UlT-24" value="Informatica Product 360" style="text;html=1;strokeColor=#6c8ebf;fillColor=#dae8fc;align=center;verticalAlign=middle;whiteSpace=wrap;rounded=0;" parent="uz6rWptoQf6fMfHY_UlT-22" vertex="1">
          <mxGeometry width="310" height="30" as="geometry" />
        </mxCell>
        <mxCell id="uz6rWptoQf6fMfHY_UlT-26" value="Custom Web-UI for Item Creation" style="rounded=0;whiteSpace=wrap;html=1;" parent="uz6rWptoQf6fMfHY_UlT-22" vertex="1">
          <mxGeometry x="28" y="36" width="258.33" height="24" as="geometry" />
        </mxCell>
        <mxCell id="uz6rWptoQf6fMfHY_UlT-31" value="Custom Merge" style="rounded=0;whiteSpace=wrap;html=1;" parent="uz6rWptoQf6fMfHY_UlT-22" vertex="1">
          <mxGeometry x="28" y="64" width="258.33" height="26" as="geometry" />
        </mxCell>
        <mxCell id="uz6rWptoQf6fMfHY_UlT-32" value="Product Data Model (Custom)" style="rounded=0;whiteSpace=wrap;html=1;" parent="uz6rWptoQf6fMfHY_UlT-22" vertex="1">
          <mxGeometry x="10" y="95" width="290" height="30" as="geometry" />
        </mxCell>
        <mxCell id="uz6rWptoQf6fMfHY_UlT-33" value="Classification" style="rounded=0;whiteSpace=wrap;html=1;" parent="uz6rWptoQf6fMfHY_UlT-22" vertex="1">
          <mxGeometry x="10.33" y="130" width="140" height="30" as="geometry" />
        </mxCell>
        <mxCell id="uz6rWptoQf6fMfHY_UlT-34" value="Attribute / Feature" style="rounded=0;whiteSpace=wrap;html=1;fontSize=11;" parent="uz6rWptoQf6fMfHY_UlT-22" vertex="1">
          <mxGeometry x="160.33" y="130" width="140" height="30" as="geometry" />
        </mxCell>
        <mxCell id="uz6rWptoQf6fMfHY_UlT-35" value="Task Dashboard" style="rounded=0;whiteSpace=wrap;html=1;fontSize=11;" parent="uz6rWptoQf6fMfHY_UlT-22" vertex="1">
          <mxGeometry x="10.33" y="166" width="140" height="30" as="geometry" />
        </mxCell>
        <mxCell id="uz6rWptoQf6fMfHY_UlT-36" value="Attribute preset values" style="rounded=0;whiteSpace=wrap;html=1;" parent="uz6rWptoQf6fMfHY_UlT-22" vertex="1">
          <mxGeometry x="160.33" y="166" width="140" height="30" as="geometry" />
        </mxCell>
        <mxCell id="uz6rWptoQf6fMfHY_UlT-39" value="Clone" style="rounded=0;whiteSpace=wrap;html=1;" parent="uz6rWptoQf6fMfHY_UlT-22" vertex="1">
          <mxGeometry x="8.670000000000032" y="235" width="140" height="30" as="geometry" />
        </mxCell>
        <mxCell id="uz6rWptoQf6fMfHY_UlT-40" value="Workflow" style="rounded=0;whiteSpace=wrap;html=1;" parent="uz6rWptoQf6fMfHY_UlT-22" vertex="1">
          <mxGeometry x="158.67000000000004" y="235" width="140" height="30" as="geometry" />
        </mxCell>
        <mxCell id="uz6rWptoQf6fMfHY_UlT-41" value="Audit Trail" style="rounded=0;whiteSpace=wrap;html=1;" parent="uz6rWptoQf6fMfHY_UlT-22" vertex="1">
          <mxGeometry x="8.670000000000032" y="271" width="140" height="30" as="geometry" />
        </mxCell>
        <mxCell id="uz6rWptoQf6fMfHY_UlT-42" value="Role based dashboard" style="rounded=0;whiteSpace=wrap;html=1;" parent="uz6rWptoQf6fMfHY_UlT-22" vertex="1">
          <mxGeometry x="158.67000000000004" y="271" width="140" height="30" as="geometry" />
        </mxCell>
        <mxCell id="uz6rWptoQf6fMfHY_UlT-43" value="Smart Search" style="rounded=0;whiteSpace=wrap;html=1;" parent="uz6rWptoQf6fMfHY_UlT-22" vertex="1">
          <mxGeometry x="8.67" y="306" width="291.33" height="30" as="geometry" />
        </mxCell>
        <mxCell id="uz6rWptoQf6fMfHY_UlT-37" value="Data Quality" style="rounded=0;whiteSpace=wrap;html=1;" parent="1" vertex="1">
          <mxGeometry x="660.39" y="426.89" width="140" height="30" as="geometry" />
        </mxCell>
        <mxCell id="uz6rWptoQf6fMfHY_UlT-38" value="Data Publication" style="rounded=0;whiteSpace=wrap;html=1;" parent="1" vertex="1">
          <mxGeometry x="810.39" y="426.89" width="140" height="30" as="geometry" />
        </mxCell>
        <mxCell id="uz6rWptoQf6fMfHY_UlT-73" value="System of Entry" style="text;html=1;strokeColor=#6c8ebf;fillColor=#dae8fc;align=center;verticalAlign=middle;whiteSpace=wrap;rounded=0;" parent="1" vertex="1">
          <mxGeometry x="310.53" y="325.89" width="120" height="40" as="geometry" />
        </mxCell>
        <mxCell id="2Vg_VZGtr79mkvcwFbjV-71" value="&lt;font color=&quot;#000000&quot; style=&quot;font-size: 11px&quot;&gt;Administrator&lt;/font&gt;" style="pointerEvents=1;shadow=0;dashed=0;html=1;strokeColor=#6D1F00;labelPosition=center;verticalLabelPosition=bottom;verticalAlign=top;align=center;shape=mxgraph.mscae.intune.user_group;rounded=1;glass=0;sketch=0;fontSize=16;opacity=30;fillColor=#a0522d;fontColor=#ffffff;" parent="1" vertex="1">
          <mxGeometry x="264.94" y="227.61" width="20" height="23.5" as="geometry" />
        </mxCell>
        <mxCell id="2Vg_VZGtr79mkvcwFbjV-72" value="&lt;font color=&quot;#000000&quot; style=&quot;font-size: 12px&quot;&gt;MDM&lt;/font&gt;" style="pointerEvents=1;shadow=0;dashed=0;html=1;strokeColor=#B09500;labelPosition=center;verticalLabelPosition=bottom;verticalAlign=top;align=center;shape=mxgraph.mscae.intune.user_group;rounded=1;glass=0;sketch=0;fontSize=16;opacity=30;fillColor=#e3c800;fontColor=#ffffff;" parent="1" vertex="1">
          <mxGeometry x="264.94" y="279.89" width="20" height="30" as="geometry" />
        </mxCell>
        <mxCell id="2Vg_VZGtr79mkvcwFbjV-73" value="&lt;font color=&quot;#000000&quot; style=&quot;font-size: 12px&quot;&gt;RPG&lt;/font&gt;" style="pointerEvents=1;shadow=0;dashed=0;html=1;strokeColor=#C73500;labelPosition=center;verticalLabelPosition=bottom;verticalAlign=top;align=center;shape=mxgraph.mscae.intune.user_group;rounded=1;glass=0;sketch=0;fontSize=16;opacity=30;fillColor=#fa6800;fontColor=#ffffff;" parent="1" vertex="1">
          <mxGeometry x="259.94" y="351.51" width="25" height="17.49" as="geometry" />
        </mxCell>
        <mxCell id="2Vg_VZGtr79mkvcwFbjV-74" value="&lt;font color=&quot;#000000&quot; style=&quot;font-size: 12px&quot;&gt;LPG&lt;/font&gt;" style="pointerEvents=1;shadow=0;dashed=0;html=1;strokeColor=#B20000;labelPosition=center;verticalLabelPosition=bottom;verticalAlign=top;align=center;shape=mxgraph.mscae.intune.user_group;rounded=1;glass=0;sketch=0;fontSize=16;opacity=30;fillColor=#e51400;fontColor=#ffffff;" parent="1" vertex="1">
          <mxGeometry x="261.19" y="404.53" width="27.5" height="26.98" as="geometry" />
        </mxCell>
        <mxCell id="2Vg_VZGtr79mkvcwFbjV-75" value="&lt;font color=&quot;#000000&quot; style=&quot;font-size: 12px&quot;&gt;PBU&lt;/font&gt;" style="pointerEvents=1;shadow=0;dashed=0;html=1;strokeColor=#005700;labelPosition=center;verticalLabelPosition=bottom;verticalAlign=top;align=center;shape=mxgraph.mscae.intune.user_group;rounded=1;glass=0;sketch=0;fontSize=12;opacity=30;fillColor=#008a00;fontColor=#ffffff;" parent="1" vertex="1">
          <mxGeometry x="262.44" y="472.39" width="25" height="20" as="geometry" />
        </mxCell>
        <mxCell id="2Vg_VZGtr79mkvcwFbjV-76" value="&lt;font color=&quot;#000000&quot; style=&quot;font-size: 12px&quot;&gt;Sales&lt;/font&gt;" style="pointerEvents=1;shadow=0;dashed=0;html=1;strokeColor=#006EAF;labelPosition=center;verticalLabelPosition=bottom;verticalAlign=top;align=center;shape=mxgraph.mscae.intune.user_group;rounded=1;glass=0;sketch=0;fontSize=12;opacity=30;fillColor=#1ba1e2;fontColor=#ffffff;" parent="1" vertex="1">
          <mxGeometry x="254.94" y="544.89" width="30" height="20" as="geometry" />
        </mxCell>
        <mxCell id="uz6rWptoQf6fMfHY_UlT-101" value="" style="rounded=0;whiteSpace=wrap;html=1;" parent="1" vertex="1">
          <mxGeometry x="1000.56" y="325.01" width="120" height="170.88" as="geometry" />
        </mxCell>
        <mxCell id="uz6rWptoQf6fMfHY_UlT-102" value="Data Distribution" style="text;html=1;strokeColor=#6c8ebf;fillColor=#dae8fc;align=center;verticalAlign=middle;whiteSpace=wrap;rounded=0;" parent="1" vertex="1">
          <mxGeometry x="1000.06" y="295.89" width="120" height="29.117647058823525" as="geometry" />
        </mxCell>
        <mxCell id="uz6rWptoQf6fMfHY_UlT-105" value="REST API" style="rounded=0;whiteSpace=wrap;html=1;fontSize=11;" parent="1" vertex="1">
          <mxGeometry x="1030.06" y="347.891512605042" width="60" height="20.38235294117647" as="geometry" />
        </mxCell>
        <mxCell id="uz6rWptoQf6fMfHY_UlT-107" value="Batch export" style="rounded=0;whiteSpace=wrap;html=1;fontSize=11;" parent="1" vertex="1">
          <mxGeometry x="1015.06" y="373.1268067226891" width="95" height="20.38235294117647" as="geometry" />
        </mxCell>
        <mxCell id="uz6rWptoQf6fMfHY_UlT-112" value="Read Service" style="rounded=0;whiteSpace=wrap;html=1;fontSize=11;" parent="1" vertex="1">
          <mxGeometry x="1014.56" y="399.80907563025204" width="95" height="20.38235294117647" as="geometry" />
        </mxCell>
        <mxCell id="uz6rWptoQf6fMfHY_UlT-113" value="Retrieve Service" style="rounded=0;whiteSpace=wrap;html=1;fontSize=11;" parent="1" vertex="1">
          <mxGeometry x="1014.06" y="452.6014285714285" width="95" height="20.38235294117647" as="geometry" />
        </mxCell>
        <mxCell id="Z5EajR6FQFqgk7kvqXxT-2" value="Write Service" style="rounded=0;whiteSpace=wrap;html=1;" vertex="1" parent="1">
          <mxGeometry x="1015" y="425.6" width="94" height="20" as="geometry" />
        </mxCell>
        <mxCell id="uz6rWptoQf6fMfHY_UlT-56" value="" style="rounded=0;whiteSpace=wrap;html=1;" parent="1" vertex="1">
          <mxGeometry x="1162.06" y="269.28" width="120" height="300.72" as="geometry" />
        </mxCell>
        <mxCell id="uz6rWptoQf6fMfHY_UlT-57" value="Channels" style="text;html=1;strokeColor=#6c8ebf;fillColor=#dae8fc;align=center;verticalAlign=middle;whiteSpace=wrap;rounded=0;" parent="1" vertex="1">
          <mxGeometry x="1162.06" y="269.28" width="120" height="30" as="geometry" />
        </mxCell>
        <mxCell id="HxfGAES-n8Ir9NKPSYv1-5" value="WebShop" style="rounded=1;whiteSpace=wrap;html=1;fillColor=#f5f5f5;strokeColor=#666666;fontColor=#333333;" parent="1" vertex="1">
          <mxGeometry x="1173.09" y="302.28" width="95.94" height="20" as="geometry" />
        </mxCell>
        <mxCell id="HxfGAES-n8Ir9NKPSYv1-10" value="Print Catalogs" style="rounded=1;whiteSpace=wrap;html=1;fillColor=#f5f5f5;strokeColor=#666666;fontColor=#333333;" parent="1" vertex="1">
          <mxGeometry x="1173.09" y="324.28" width="95.94" height="20" as="geometry" />
        </mxCell>
        <mxCell id="HxfGAES-n8Ir9NKPSYv1-11" value="MDF Contracting" style="rounded=1;whiteSpace=wrap;html=1;fillColor=#f5f5f5;strokeColor=#666666;fontColor=#333333;" parent="1" vertex="1">
          <mxGeometry x="1173.09" y="346.28" width="95.94" height="20" as="geometry" />
        </mxCell>
        <mxCell id="HxfGAES-n8Ir9NKPSYv1-12" value="Quatations" style="rounded=1;whiteSpace=wrap;html=1;fillColor=#f5f5f5;strokeColor=#666666;fontColor=#333333;" parent="1" vertex="1">
          <mxGeometry x="1174.09" y="368.28" width="95.94" height="20" as="geometry" />
        </mxCell>
        <mxCell id="HxfGAES-n8Ir9NKPSYv1-13" value="ERP /&amp;nbsp; Sales org 1" style="rounded=1;whiteSpace=wrap;html=1;fillColor=#fff2cc;strokeColor=#d6b656;" parent="1" vertex="1">
          <mxGeometry x="1167.06" y="451.39" width="109.53" height="20" as="geometry" />
        </mxCell>
        <mxCell id="Z5EajR6FQFqgk7kvqXxT-4" value="ERPs" style="text;html=1;strokeColor=#6c8ebf;fillColor=#dae8fc;align=center;verticalAlign=middle;whiteSpace=wrap;rounded=0;" vertex="1" parent="1">
          <mxGeometry x="1163.06" y="413.77" width="120" height="30" as="geometry" />
        </mxCell>
        <mxCell id="Z5EajR6FQFqgk7kvqXxT-5" value="ERP /&amp;nbsp; Sales org 2" style="rounded=1;whiteSpace=wrap;html=1;fillColor=#fff2cc;strokeColor=#d6b656;" vertex="1" parent="1">
          <mxGeometry x="1167.12" y="481.09999999999997" width="109.53" height="20" as="geometry" />
        </mxCell>
        <mxCell id="Z5EajR6FQFqgk7kvqXxT-6" value="ERP /&amp;nbsp; Sales org n" style="rounded=1;whiteSpace=wrap;html=1;fillColor=#fff2cc;strokeColor=#d6b656;" vertex="1" parent="1">
          <mxGeometry x="1167.29" y="527.0999999999999" width="109.53" height="20" as="geometry" />
        </mxCell>
        <mxCell id="uz6rWptoQf6fMfHY_UlT-72" value="" style="rounded=0;whiteSpace=wrap;html=1;" parent="1" vertex="1">
          <mxGeometry x="310" y="365.89" width="120" height="130" as="geometry" />
        </mxCell>
        <mxCell id="Z5EajR6FQFqgk7kvqXxT-7" value="......." style="text;html=1;strokeColor=none;fillColor=none;align=center;verticalAlign=middle;whiteSpace=wrap;rounded=0;" vertex="1" parent="1">
          <mxGeometry x="1192.06" y="508" width="60" height="13" as="geometry" />
        </mxCell>
        <mxCell id="Z5EajR6FQFqgk7kvqXxT-8" value="Bulk Upload template" style="rounded=1;whiteSpace=wrap;html=1;fillColor=#f5f5f5;strokeColor=#666666;fontColor=#333333;" vertex="1" parent="1">
          <mxGeometry x="318.56" y="443.09" width="95.94" height="44.11" as="geometry" />
        </mxCell>
        <mxCell id="Z5EajR6FQFqgk7kvqXxT-9" value="Item creation form" style="rounded=1;whiteSpace=wrap;html=1;fillColor=#f5f5f5;strokeColor=#666666;fontColor=#333333;" vertex="1" parent="1">
          <mxGeometry x="318" y="384.78" width="95.94" height="44.11" as="geometry" />
        </mxCell>
      </root>
    </mxGraphModel>
  </diagram>
  <diagram id="mlBeUK8V-QXz00XudEhM" name="real-time data processing">
    <mxGraphModel dx="1422" dy="762" grid="1" gridSize="10" guides="1" tooltips="1" connect="1" arrows="1" fold="1" page="1" pageScale="1" pageWidth="827" pageHeight="1169" math="0" shadow="0">
      <root>
        <mxCell id="5p1wcZlrEhRN_ZlcO56I-0" />
        <mxCell id="5p1wcZlrEhRN_ZlcO56I-1" parent="5p1wcZlrEhRN_ZlcO56I-0" />
        <mxCell id="JZCeRioLr8M0Q08cuHrY-0" value="" style="rounded=0;whiteSpace=wrap;html=1;fontSize=11;fontColor=#0000FF;fillColor=none;strokeWidth=2;strokeColor=#8F8F8F;" parent="5p1wcZlrEhRN_ZlcO56I-1" vertex="1">
          <mxGeometry x="176.40999999999985" y="391" width="111.89" height="132" as="geometry" />
        </mxCell>
        <mxCell id="JZCeRioLr8M0Q08cuHrY-1" value="1.1" style="edgeStyle=orthogonalEdgeStyle;rounded=0;orthogonalLoop=1;jettySize=auto;html=1;strokeColor=#FF0000;" parent="5p1wcZlrEhRN_ZlcO56I-1" source="JZCeRioLr8M0Q08cuHrY-2" target="JZCeRioLr8M0Q08cuHrY-7" edge="1">
          <mxGeometry relative="1" as="geometry">
            <mxPoint x="401.79999999999995" y="457" as="targetPoint" />
          </mxGeometry>
        </mxCell>
        <mxCell id="JZCeRioLr8M0Q08cuHrY-2" value="" style="shape=image;verticalLabelPosition=bottom;labelBackgroundColor=#ffffff;verticalAlign=top;aspect=fixed;imageAspect=0;image=data:image/png,iVBORw0KGgoAAAANSUhEUgAAAOYAAAECCAYAAADqyKubAAAMaWlDQ1BJQ0MgUHJvZmlsZQAASImVVwdYU8kWnluSkJDQAqFICb0J0quUEFoAAamCjZAEEkqMCUHFXhYVXLuIYEVXRRRdCyCLitjLotj7YkFFWRcLiqLyJiSg677yvfN9c+e/Z878p9yZe+8AoNnLlUjyUC0A8sUF0oSIEOaYtHQmqQMgQBtQgT6gcXkyCSs+PgZAGez/Lu9vQGsoV50UXP8c/6+iwxfIeAAg4yDO5Mt4+RA3A4Cv50mkBQAQFXrLKQUSBZ4Dsa4UBgjxagXOVuKdCpypxE0DNkkJbIgvA6BG5XKl2QBo3IN6ZiEvG/JofIbYRcwXiQHQHA5xIE/I5UOsiH14fv4kBS6H2A7aSyCG8QCfzO84s//GnznEz+VmD2FlXgOiFiqSSfK40/7P0vxvyc+TD/qwgY0qlEYmKPKHNbyVOylagakQd4kzY+MUtYa4V8RX1h0AlCKURyYr7VFjnowN6wcYELvwuaHREBtDHC7Oi41R6TOzROEciOFqQaeKCjhJEBtAvEggC0tU2WyWTkpQ+ULrsqRslkp/lisd8Kvw9UCem8xS8b8RCjgqfkyjSJiUCjEFYqtCUUosxBoQO8tyE6NVNiOLhOzYQRupPEERvxXECQJxRIiSHyvMkoYnqOxL8mWD+WKbhSJOrArvLxAmRSrrg53kcQfih7lglwViVvIgj0A2JmYwF74gNEyZO/ZcIE5OVPH0SgpCEpRzcYokL15lj1sI8iIUeguIPWSFiaq5eEoBXJxKfjxLUhCfpIwTL8rhRsUr48GXgxjABqGACeSwZYJJIAeIWrvqu+CdciQccIEUZAMBcFJpBmekDoyI4TURFIE/IRIA2dC8kIFRASiE+i9DWuXVCWQNjBYOzMgFTyHOB9EgD97LB2aJh7ylgCdQI/qHdy5sPBhvHmyK8X+vH9R+07CgJkalkQ96ZGoOWhLDiKHESGI40R43wgNxfzwGXoNhc8N9cN/BPL7ZE54S2giPCNcJ7YTbE0XzpD9EOQq0Q/5wVS0yv68FbgM5PfEQPACyQ2acgRsBJ9wD+mHhQdCzJ9SyVXErqsL8gftvGXz3NFR2ZBcyStYnB5Ptfpyp4aDhOcSiqPX39VHGmjlUb/bQyI/+2d9Vnw/76B8tsUXYAewMdhw7hzVh9YCJHcMasIvYEQUeWl1PBlbXoLeEgXhyIY/oH/64Kp+KSspcalw6XT4rxwoEUwsUG489STJNKsoWFjBZ8OsgYHLEPOfhTDcXN1cAFN8a5evrLWPgG4Iwzn/TzYd7PEDc39/f9E0X/QmAg+Zw+7d/09lega8J+J4+u4InlxYqdbjiQoBvCU240wyBKbAEdjAfN+AF/EEwCANRIA4kgTQwAVZZCNe5FEwBM8BcUAxKwXKwBlSATWAr2An2gP2gHjSB4+A0uAAug+vgLlw9HeAl6AbvQR+CICSEhtARQ8QMsUYcETfEBwlEwpAYJAFJQzKQbESMyJEZyHykFFmJVCBbkGrkV+Qwchw5h7Qht5GHSCfyBvmEYigV1UVNUBt0BOqDstBoNAkdj2ajk9EidAG6FC1Hq9DdaB16HL2AXkfb0ZdoDwYwdYyBmWNOmA/GxuKwdCwLk2KzsBKsDKvCarFG+JyvYu1YF/YRJ+J0nIk7wRUciSfjPHwyPgtfglfgO/E6/CR+FX+Id+NfCTSCMcGR4EfgEMYQsglTCMWEMsJ2wiHCKbiXOgjviUQig2hL9IZ7MY2YQ5xOXELcQNxLbCa2ER8Te0gkkiHJkRRAiiNxSQWkYtI60m7SMdIVUgepV01dzUzNTS1cLV1NrDZPrUxtl9pRtStqz9T6yFpka7IfOY7MJ08jLyNvIzeSL5E7yH0UbYotJYCSRMmhzKWUU2oppyj3KG/V1dUt1H3VR6uL1Oeol6vvUz+r/lD9I1WH6kBlU8dR5dSl1B3UZupt6lsajWZDC6al0wpoS2nVtBO0B7ReDbqGswZHg68xW6NSo07jisYrTbKmtSZLc4JmkWaZ5gHNS5pdWmQtGy22Fldrllal1mGtm1o92nRtV+047XztJdq7tM9pP9ch6djohOnwdRbobNU5ofOYjtEt6Ww6jz6fvo1+it6hS9S11eXo5uiW6u7RbdXt1tPR89BL0ZuqV6l3RK+dgTFsGBxGHmMZYz/jBuOTvok+S1+gv1i/Vv+K/geDYQbBBgKDEoO9BtcNPhkyDcMMcw1XGNYb3jfCjRyMRhtNMdpodMqoa5juMP9hvGElw/YPu2OMGjsYJxhPN95qfNG4x8TUJMJEYrLO5IRJlynDNNg0x3S16VHTTjO6WaCZyGy12TGzF0w9JouZxyxnnmR2mxubR5rLzbeYt5r3WdhaJFvMs9hrcd+SYuljmWW52rLFstvKzGqU1QyrGqs71mRrH2uh9VrrM9YfbGxtUm0W2tTbPLc1sOXYFtnW2N6zo9kF2U22q7K7Zk+097HPtd9gf9kBdfB0EDpUOlxyRB29HEWOGxzbhhOG+w4XD68aftOJ6sRyKnSqcXrozHCOcZ7nXO/8aoTViPQRK0acGfHVxdMlz2Wby11XHdco13muja5v3BzceG6Vbtfcae7h7rPdG9xfezh6CDw2etzypHuO8lzo2eL5xcvbS+pV69XpbeWd4b3e+6aPrk+8zxKfs74E3xDf2b5Nvh/9vPwK/Pb7/eXv5J/rv8v/+UjbkYKR20Y+DrAI4AZsCWgPZAZmBG4ObA8yD+IGVQU9CrYM5gdvD37GsmflsHazXoW4hEhDDoV8YPuxZ7KbQ7HQiNCS0NYwnbDksIqwB+EW4dnhNeHdEZ4R0yOaIwmR0ZErIm9yTDg8TjWnO8o7ambUyWhqdGJ0RfSjGIcYaUzjKHRU1KhVo+7FWseKY+vjQBwnblXc/Xjb+Mnxv40mjo4fXTn6aYJrwoyEM4n0xImJuxLfJ4UkLUu6m2yXLE9uSdFMGZdSnfIhNTR1ZWr7mBFjZo65kGaUJkprSCelp6RvT+8ZGzZ2zdiOcZ7jisfdGG87fur4cxOMJuRNODJRcyJ34oEMQkZqxq6Mz9w4bhW3J5OTuT6zm8fmreW95AfzV/M7BQGClYJnWQFZK7OeZwdkr8ruFAYJy4RdIraoQvQ6JzJnU86H3LjcHbn9eal5e/PV8jPyD4t1xLnik5NMJ02d1CZxlBRL2if7TV4zuVsaLd0uQ2TjZQ0FuvCn/qLcTv6T/GFhYGFlYe+UlCkHpmpPFU+9OM1h2uJpz4rCi36Zjk/nTW+ZYT5j7oyHM1kzt8xCZmXOapltOXvB7I45EXN2zqXMzZ37+zyXeSvnvZufOr9xgcmCOQse/xTxU02xRrG0+OZC/4WbFuGLRItaF7svXrf4awm/5HypS2lZ6eclvCXnf3b9ufzn/qVZS1uXeS3buJy4XLz8xoqgFTtXaq8sWvl41ahVdauZq0tWv1szcc25Mo+yTWspa+Vr28tjyhvWWa1bvu5zhbDiemVI5d71xusXr/+wgb/hysbgjbWbTDaVbvq0WbT51paILXVVNlVlW4lbC7c+3Zay7cwvPr9UbzfaXrr9yw7xjvadCTtPVntXV+8y3rWsBq2R13TuHrf78p7QPQ21TrVb9jL2lu4D++T7Xvya8euN/dH7Ww74HKg9aH1w/SH6oZI6pG5aXXe9sL69Ia2h7XDU4ZZG/8ZDvzn/tqPJvKnyiN6RZUcpRxcc7T9WdKynWdLcdTz7+OOWiS13T4w5ce3k6JOtp6JPnT0dfvrEGdaZY2cDzjad8zt3+LzP+foLXhfqLnpePPS75++HWr1a6y55X2q47Hu5sW1k29ErQVeOXw29evoa59qF67HX224k37h1c9zN9lv8W89v591+fafwTt/dOfcI90rua90ve2D8oOoP+z/2tnu1H3kY+vDio8RHdx/zHr98InvyuWPBU9rTsmdmz6qfuz1v6gzvvPxi7IuOl5KXfV3Ff2r/uf6V3auDfwX/dbF7THfHa+nr/jdL3hq+3fHO411LT3zPg/f57/s+lPQa9u786PPxzKfUT8/6pnwmfS7/Yv+l8Wv013v9+f39Eq6UO/ArgMGGZmUB8GYHALQ0AOjw3EYZqzwLDgiiPL8OIPCfsPK8OCBeANTCTvEbz24GYB9sNnMgN2yKX/ikYIC6uw81lciy3N2UXFR4EiL09ve/NQGA1AjAF2l/f9+G/v4v22CwtwFonqw8gyqECM8Mm4MV6LrBWBz8IMrz6Xc5/tgDRQQe4Mf+X55bjwFeCncVAAAAlmVYSWZNTQAqAAAACAAFARIAAwAAAAEAAQAAARoABQAAAAEAAABKARsABQAAAAEAAABSASgAAwAAAAEAAgAAh2kABAAAAAEAAABaAAAAAAAAAJAAAAABAAAAkAAAAAEAA5KGAAcAAAASAAAAhKACAAQAAAABAAAA5qADAAQAAAABAAABAgAAAABBU0NJSQAAAFNjcmVlbnNob3SiEHsvAAAACXBIWXMAABYlAAAWJQFJUiTwAAAC22lUWHRYTUw6Y29tLmFkb2JlLnhtcAAAAAAAPHg6eG1wbWV0YSB4bWxuczp4PSJhZG9iZTpuczptZXRhLyIgeDp4bXB0az0iWE1QIENvcmUgNi4wLjAiPgogICA8cmRmOlJERiB4bWxuczpyZGY9Imh0dHA6Ly93d3cudzMub3JnLzE5OTkvMDIvMjItcmRmLXN5bnRheC1ucyMiPgogICAgICA8cmRmOkRlc2NyaXB0aW9uIHJkZjphYm91dD0iIgogICAgICAgICAgICB4bWxuczpleGlmPSJodHRwOi8vbnMuYWRvYmUuY29tL2V4aWYvMS4wLyIKICAgICAgICAgICAgeG1sbnM6dGlmZj0iaHR0cDovL25zLmFkb2JlLmNvbS90aWZmLzEuMC8iPgogICAgICAgICA8ZXhpZjpVc2VyQ29tbWVudD5TY3JlZW5zaG90PC9leGlmOlVzZXJDb21tZW50PgogICAgICAgICA8ZXhpZjpQaXhlbFhEaW1lbnNpb24+MjMwPC9leGlmOlBpeGVsWERpbWVuc2lvbj4KICAgICAgICAgPGV4aWY6UGl4ZWxZRGltZW5zaW9uPjI1ODwvZXhpZjpQaXhlbFlEaW1lbnNpb24+CiAgICAgICAgIDx0aWZmOlJlc29sdXRpb25Vbml0PjI8L3RpZmY6UmVzb2x1dGlvblVuaXQ+CiAgICAgICAgIDx0aWZmOlhSZXNvbHV0aW9uPjE0NC8xPC90aWZmOlhSZXNvbHV0aW9uPgogICAgICAgICA8dGlmZjpZUmVzb2x1dGlvbj4xNDQvMTwvdGlmZjpZUmVzb2x1dGlvbj4KICAgICAgICAgPHRpZmY6T3JpZW50YXRpb24+MTwvdGlmZjpPcmllbnRhdGlvbj4KICAgICAgPC9yZGY6RGVzY3JpcHRpb24+CiAgIDwvcmRmOlJERj4KPC94OnhtcG1ldGE+CpGahcwAAEAASURBVHgB7V0FYJVVG37Wg9Gd0t0gKUh3SXdKiSKCgigIIoiC/gYgKpIiKCglKl3S3d0N21iwzvs/7xl33N3d3d0lk52j435x6nu+7z3nPW8dOwMTdNIIaATSFAL2aao3ujMaAY2AQkATpv4QNAJpEAFNmGnwpeguaQQ0YepvQCOQBhHQhJkGX4rukkZAE6b+BjQCaRABx8T0KTLSANGyRGpNS2Lg02XSGQJ28rx2drCXP3t1Fi8CCSbMPYcuYs3Gw9i+9yzOHLoAthZvIzqDRiA9I5Apbw5ky+aGPq+9gsE9G6F08QLxwmFnq4HBY29/zJr3J75ZsBHZsmZE3eolUb50Ic6a8bahM2gE0jUCQjtBQaFYtWE/8ubOhhkTeqJ146rIlSNznLjYRJhePv5o0/dzHD54HoMHtcK4N9qjQJ5syJwpQ5wV6xsaAY1AFAKy5IsIj8S+o5fw+XfrsW3nKbzWtja+/3wIcsdBnDYRZtdhX+PPLUfx1ccD8NbAFhpvjYBGIJEIiHxm9MdL8f3CTZg3axiG9WlisaZ4pbIz563Hn1uPoWPLmpooLUKoL2oEbEdAhD9zPhmIFk2r4ZNv/sC5S3csFrZKmL5+Qdi25ywyu7ni52/ftFiBvqgR0AgkHIFJb3eCu7sPFq3chfDwiFgVWCXMY6ev4d+DFzDhrY7I4OoUq7C+oBHQCCQOgZpVS2Bgzyb47c8DCAkLj1WJVcIMCg5DeGAwKpYpHKugvqAR0AgkHgFHB3vFiXp6+dMmIHY9VgnTPyAYkU+CUKJI3tgl9RWNgEYg0QjY0dggV45MCPXwhgiEzJNVwjRmZh06aQQ0AimGQCIJM8X6oyvWCGgELCJg04xpsaS+qBHQCKQYApowUwxaXbFGIPEIJNiIPfFN6ZKmCMiCPyQ0DEdOXsOFq/dw+foDuDg7oVih3KhTozTKlS4IByqjRUhgLYm5l7unLzZsPY6bd9wRGByK/LmzomTR/GjRqArcMjhbrcPbNwD3HnhZ9XrIlNEV+fJmY3/sVb74+mStv/qebQhowrQNp2TLJe5yV248wLI/9mDez1vh/dALdo4O0cSjghYyTwmqqCaM7IDWTaoif57ssdoXEfvZi7cxcdZv+HvjEXXflGCkHgdXZwzt0xRjhrRByWL5YtUhF5b98S9Gv/0d7GlEYlFuL+OCyCYcHFCxUnH06VwP3dvVQdHCeaS4TimEgCbMFALWUrXhERH4afkOTPnf7/Dy8FE+eo5uGVCoYE4aM2eB3H/g7g33+164ceMhho6ai9p1y2PquO5o3qBSdJVCdFv3nMGgsT/AnYRtT8J2cnWhWiuPcizw9PbD9av3YYiIxA8LN2LngfMYO7QNenZ8BZkyukTXIwcuzs6wz5wBjpwVI8Op6DYVEJIoDTS+lnrsuOg5f+EmPphyBQt+3YnJo7ugb5f6MerSJ8mHgCbM5MMy3prGfPwzFq/cjVCysAaysh3a1cLAbg1Romg+EgwJwxAJb99AHDx+BZ/OXgNPzyc4evo6hoz7EUu/HolGJFJJvk8CMWrSEmXSFcm6OndqgPdGtEP2rG5wpYWW6J8vX7tPF71N2LP3DK7yeOQHC9WEOLR3k9j9JDEKUf46bzRyZM8U476w3A/dfclq38eyNXtw944Hbt52x+gpSxSx9umkiTMGYMl0ogkzmYCMr5rvlm7BD0s2k20l5CSElQveRQc6Bjg7OcQqWqNSMbQlC9tt+Dc4efYGalUpiXovl4nOt2rDQVy7clfNuG+P7IjPPugFV5eYJpPlSxVCw7oVMGPOWnz70z8oXaIABnVvGF1HzAOhTAPq1y6LfPQXNE/CNkdwNh9P1nrsJ8uwdNVu+JH4v1+6FQ1Y5qUCucyL6PMkIqAJM4kA2lL8GGe90R8ugoOzIzJmcMH6xePwKj9oa0nWcEf+mYEfftmGob2acIn3TIC+7+hlFTnC3skRbw5oEYsojfXKDPrFpL50ai+t2nMky2stqfWthQwif5Kymfg3f+ZQXKGgat+RSzh84gqOnrquCdMCZkm99OxtJ7UmXT5OBN4hC2tPopSP+8O3X4uXKE0rGtG3WQyilHsPacYlKX/e7HBzi7lmVDfM/uncphZy5cxidjXxp5++3xMRlP5GhobjBtlaSyZlia9dlxQENGGm8Hew/9hlnLlwG1R80BmgEB1jmyW5xcL5c6o67lPNsfT33UmuL6EVFBfbabK+Eu/pMQVNIrTSKXkR0ISZvHjGqm3DlmMIo7+dk6M9OrR4GVkpAU1q6ta2DiIZQ8ae7O1nc9aj/YBZKjhaUuu1tfyFK/dgJ6w1iTNPrqx8Nusssq316nzPENCE+QyLFDm6euuRcoR15nqwZcMqydKGCGl6Uz8ZST++YLKTW6g6aT/wCxSu+SZGTFiInfvOJks7cVXy/qfLYU9hk+hJxfPIVH8aVxl9PWEIaMJMGF4Jzu1L9Yckmd2KFEoe6aUbdZFLvxmJd4a34wycUdUv7OQjWgAtXLENzbt+AtcS/agiWYRDFNAEcT1oS7KnZY+lJGvI4JAw3HvojZ5vzMbJ87eURPiVmqXxcpXiloroa0lEQEtlkwigteJhYRGIiIxaf1GwCRczlYa1svHdEyntFx/1VWZ3wi6fPHcTlygt9SJxiiVRJI0C5i/dTIOGbehFXeOHozqibMmCcVTLFTDrW0MLouwMTWqaJOzFQw9fXLv5EGs3HcFjHkve7NkzY+ywdhatkkzL6+PEIaAJM3G42VTKiTpK44wms87d+49VLF6bCtuYSSyC5O8RLYkuXnsAWf+JwGnX/nO4R+shkQavWLULJ6gP3bHqI+S2JJ3lqGFHk7tRE36KZfmjhDwyqlBnIiyrSGOr1SyDaeN6oA11rTqlDAKaMFMG1+haC+TPodQdobSs2UXTOAmSnRJJAgnLX8M65Wgq1wA+TwKw+u9DNDBYB2/GBb5E659h7/+EtTRsiCuJ6Z1Fe1kWcCT7LMb1g7o3QhtGeMtjicDjqlhfTzACmjATDFnCCjSvXwnLV+9FYFAI/iChjOzPuLwyA6VgEntY+Rv9emsUfykPTfrmk1ADlTGAxWZp2iOmfSd3foW8uWLqO6kUgVtGZ2SiTa9OqYeA5dV+6rX/wrfUseXLymVKHvQsY4iu3HAgVZ+5ffMaKEVbXElhnLWv3XwUZ/u5c2VGHrqMmf7l5bkmyjghS7EbmjBTDNpnFU95p7NSbfiQpZz6zWplcPDsrvUjYX/NTeUucy05Z/FmBASGWC/MuyJNNcYtFZtXZ+e4dY7m7cRbuc6QYghowkwxaJ9VLO5Wo4e2RQQJSTw9uo/8Fjvi0TU+8QvG0HE/od/o7zDly9+jK5MNarqN+AbvTv0Zvd+ag9v3PKPvWTr4i1H0r9NsTlKWTK4orA3OLcGU5q5pwkylVzLl3W5o0eplNXNeJzvZZejXyp/yJt2ozJMQbaNuU+lm9S/cqZ74ng7Vf28/prJt/fc0zp68Spcre2zadQq12k3EQvpHhtLQwDwt/m0XhlPg4+sfpNy6BvVoZJ5Fn6dRBLTwJ5VeTGbOVr//MBYjP1yohECBNKlbTv9G+StSODfKlyqoQo2cu3QPDzgLimWNKPxl3Td32iC0bVpD9bRnx3pkTQ1448OfEEo9qbdPIEa8P5/nC1GtYlEUoGH77buPyS7fVCywvYMjvcwMqF2jDHWZnVLpaXUzSUVAE2ZSEUxA+Uz0BPn525EkoCL4469DSoXhQyPwGzQMuMGIAyrRMFx0j7I926t1ymPOtIGx9lHs2+UVVCpXSKlCxJFaYvZEUKp6jPrLo9SXymwqRgDyJ8KbpvUrYt6ngy32NDIyEpFch4qqRNagOqUNBDRhPof3MIbrzUE9GnOdeYYWO7doHODLmS9ARfXISYuaEkXzoGaVEtERCyx1sUr5Ilj5/WgcoT+kWP1cpGGBF+sICgmFI40FsmXNgGJUldTjTFm3RilLVahr9WuVwafTBqrZOctT8744M+sbqYaAJsxUgzpmQ9myZETn1rXVXzD3iJGIeTJhSSQC82gEMUvGPKtJW1X5i+CMpySw/JWt3sRo3oUzb3ypUrmXOPu+FF82fT+VEYj/zaVyh9JjcxKnR/6SksR2VozbdXoxENBS2RfjPeqneMEQiIcwyVxRIqD97V6wt64fJ80jYJUwJTK4XQYnFVIxzT+J7qBG4D+GgAqwxri9lpJVwswigYCzZmLApbjtKy1Vqq9pBDQC1hEIZfSJazfdkbdsoVjB1qSkVcIUx9oalYurfeKtN6PvagQ0AglBwNPLT/nINmLsX0sxk6wSpsQllZgu+45cxt7DlxLSrs6rEdAIWEFgN50TjjBKfquGlZXe2TyrVcLMwGBLEn1bwk30Gz1X7athXoE+1whoBBKGwAFugTHgnXlo89or6Nq+rtI7m9dglTAlc2Uqn79kbJlbtCzpOOhLZThtXok+1whoBGxDYPaiTej95mz6uLpi2nvdY23yZKzFjj54NllIrvnnEPqP/h4ZqcRuwen3zf7NuYdjYWTLoj3bjWDqX42AJQQ86ap3h/Ge3pm8BIfoGZQnZ1aGeBmr5DeW8ss1mwlTMp+9dBdvTVzEEBXX6NkQzi3aIpTxs9zTSSOgEbCMgDgTkF+ldZczalYrgR0rP7Kc0eRqgghTyklIxov0hFi/5QiuUtwr+2jYx7PrsUl7+lAjkO4QyMeNh7PSNno496EpWyK/Tc+fYMK0qVadSSOgEUgSAvEKf5JUuy6sEdAIJAoBTZiJgk0X0gikLAL2q1evxtixY9G9e3ecPHkyZVvTtWsENAI2IeBw//79jzNkyICyZcuiTp06yJYt9lbfNtWkM2kENALJhoDd+vXrDbVqccfhXLm447H2m042ZHVFGoEkIKClskkATxfVCKQUAlr4k1LI6no1AklAQBNmEsDTRTUCKYWAJsyUQlbXqxFIAgKaMJMAni6qEUgpBDRhphSyul6NQBIQ0ISZBPB0UY1ASiGgCTOlkNX1agSSgIAmzCSAp4tqBFIKAU2YKYWsrlcjkAQEEmyDF84AtWs2HcaqPw9gy+5TapeoJLSvi2oEXngEXiqYC7KL2/C+TdC9fT2LwbfMQbDZJE9CiVxgQK6BY3/AmTPXkTN3NkhAaLVFlXmt+lwjoBGIRkB2cgsOCYeXuzfq1auA1fPHIEf2THBguJG4kk2EKduIT/3qd8yaux5Fi+XDoO6N0LNDXRRnzFmdNAIaAesI+PkH4/ptd6zdeBjf/7wFfgEhWPzVCM6edeLcF8gqYUr4PDv+fbdkC94ePx/1XqmA5XNHQaZmnTQCGoGEI/DXtuOYvWgjjp2+gRXfjULLhlUsVmKVMKXE1j1nMGjM9yiQNzt2r54CCQKtk0ZAI5B4BI6SKDsMmoUinODWMIxlfgbrMk9xM7nMGcmQs4t+3YkHnIa/+bi/Jkpz9PS5RiARCLxcuRjmTh+Eg7tOYvmavWo3cPNqrBLm6Qu3sffIJYwb0wX1apYxL6vPNQIagUQi0LxBZXSirGbpH3tUjGbzaqwS5p17nrh/8yHqVCtpXk6fawQ0AklAwN7ejtskZMDlaw84Y8beDMEqYYZQGhsZHIoSRfMloQu6qEZAI2COgBu3GilVLC/C/AKocUwgYUZEcLdbGhS4uiTYDsG8H/pcI6ARMEPA0dEBhpAwWNo+yOqMaVaPPtUIaARSCQFNmKkEtG5GI5AQBDRhJgQtnVcjkEoI6MWjFaA9vfy4o9kjXL/1EMGhEciXOwvKFC9AYZh1U8TwiAgEBITS3Mpy5bLUz+DsBOdkWrtHsD1/mnk5OzkiQ4aEGYCIuZjoq12cHSlLcLLc4WS4+vf2E7h93xNZMmVAn071k6HGF7sKTZgW3u8R7v/50RersJ86XNnWVxbnQkx2pDTZcvClQrkwcdRr6NHBsqfA1t1n0GHgTG7y62qh9meXnLj4r1yhKEZwe7YubWtZNWp+Vir20Y5959Gm7wy4uLooS5IWr1aOnSmOK8XqjsITv0C8Pbg1Pp3QUxFoHFmTdPmTr/7A2ct3UYTYacKMH0rNyppg9NDdh+aHP6Buqw+wg6aIwVQXCTHKTJKRpoiO3IA0mJ4Cl6/dR99hX+OVjpO5V+g9kxqiDoWII1lWyqs/ehaId8GzvzAEUQ31JCAYew9dQK/Xv8TLrT/AGRp0JCZFRkaq9kKCQrh/aXiCqhAHhUg+U7hI4C2I7RNUmZXMEeyjtBERKejoFB8CesZ8itAxurK9NXExDh+8AHuymHnyZMPLlYrh1brlUaxQbriQOO8+8MLuA+dx4PgV3LnjgaMnrqBuh4+w6sd3IJYc5snAj7FloyoomD9HjG9ePlBf3wB4PwnAebrSeUT64CyJsma7Sfjn5/fRhM4COqVvBDRh8v3fvOOOniNn4+aNh4ooG5PIJrzZAa/WLsf9XBxifCHD+jRVZoqTyer+u+8sSHuK3Y2R6emJgWu/99/siPpxmDP6PAnEqfO3MGfxJmzYehxCyG9PXoLNyz9AwXwkZp3SLQLpnjCDg8MwZNx83L7rCXsnJ3RoXh3fzxyKXHRkjSsJoa1Z8C7+9+NfaNe0OmpXLxlHVjuyrCFx3AOycfvvhnXKoTZNHtv0n4l9XNNev+WOFev2YdyI9nGWe5FuXKPJ5xX+BQWFothLeVG1QpEX6fES/Szpfo35y9o9OHrqukh2ULhQTnz/+RCrRGlEWohq2rjuVojSmDP+X1nDTnuvu5p6w8PCcIn2k2khrdpwAJlKD0SWMoOw6LedVru0kF5IDrm7oHi9t3Hu8p048xoF1XsPX8TLbSaiXOP30HHQl4pjqdX2Q2QvPxifzV0HWfum55SuCdM/MAQbd5ykaiNYsZFzPhmIXDkyP5fvoTrXs0oswgHC28efXu7Bz6UfMRolFYmxtfzFqft5WkCEWRQrQ2JCWTLKNtYrQqCVjBfVuu/nOHX6GtUnrsibOytxz6KWDQF8J5M//w3Ne3/KNf1jY7F095uuWVmRrh46eU19c2VLFkTrxlWf2wfg6fVERYsQ1YzMoC7USSYmOZA4nkcyzoQcV6wmkXyP/eRnBJOQX2tXB51b10SxwnkREhKK/ccuYwFnXvFq2nfgAt6cuAi/zB6FzCTe9JYS9/ZfEJS8fP3x6JEXDOERGNq7yXN9qtmLNrH9qJlJBD/OVPgnNInw6CLZ4AJ5ciijAVvKRxlQx0NNtlRkY55QGmo8onR76ICW+PKjvnAzMYhoSAl4y4aV0aznpzSYCMY/205gDePk9O/aQKmtbGzihciW8Lf/Qjx21EN4eD5R+j8Rq1arWOy5PdmilbuwZNUuRZe5smdBu2bVE9UXB2dnTP3fH5jhuNbm8qEclNRUbXOJpGUUU41m5Eymc31uSpTGWqtXKo4Ni8ejcY9pXHNHcgbdgb6d68PBIfUGD2NfnudvuiVMUco/9vZXI7HMNHlzZUmR9yDSRlnLGoyKdX5f0vbd+14UktzG98u2Yy91o/aOjrDjWq5N02p4lZLaRCXWLaESJdRowlLqffRCjF3b1mac1bil3jWqFFeD04ZNR7Cfhh7C5udluNT0lNItYdozpmeBfNmVuR2lGyq8YKni+ZP13dtzndh54CwYlFXNs6rlXCyKpF17Z9GTije7C1o1qooFXwx7ljGBRzLAvNa6Dh1w80U9V3zl2YXPv/uTuVLPGseVFlQVShe22jPRHVejqeKffx8kRnZKSq0J0ypkL9bNHNkywTGDCyI4y/xL0zix0kmRZPbd2z0N9GtH9iwv15N1q5dCVwpCerSvm6TmheAH92qEZvUr2VzPtws2IYCCl9RKYtpYvlRBq82J6WOV8i+pAU2wun0v/Uln0+2MKV+GiOklbMrVGw+wYMUOfPp+T6sfTEJviuXP5HE9qDQvGmsGE+GOqGYyubkqKx/xukiOFEKP+IQkS97zlsonF7MbSZZejC6yUg9sLQXS7lfE5VFS6vT3maa/Jzb5GsqWKKDM5a5evw8xj/vyxw14b3h7kxxJO5R1Zd2XSyk7WvFSMU3xqRVM8z7vY+l7GAcZq8lGyg2kmuTMpTvIZyGWqrH+MAqkjp+9yTW3vZKYi0dKekvPR+mVRlCWdV7HljWQQ4wKeDyT660Dx67Y3Lsn/kEWY4JaqkAI0fTPUp60di0j3ciE3sS/9OZtD6vd277vHAVYMe2KLRUQYZjYB1tLMusfEf0yWVp7VyeUpg9sekvpmjDlZbelraus7YTt9PULwogJP2Hv4Uvxfgfy4XSl65cYoNvKDsZbaRrLUJReNRxOaM0jM9gNSnstz5r3HnpBHKHtbDCKELe5X1bv5QZVd+N82sWrdmMvvXxEmNWxVU0aGCQPmx9ng2nwRronTHknX0zqi+YU/ERQqX2ebFa/0XPxydercYMR6M2TKL6/WfCPIsqde8/gvY+WYN7PW82zvRDnFcsWRh5GbRAu/CA5iW8X/hPruQ6fvIoeb3xr8+AkM/BZsqkj6WL30MM7Vn2itxw3fbmaLV3oaD68X/Mok8BYOV/sC+l6jWl8tSKIWT5nFCZ/8Tu+4zrzHi1TZs37E4up9C9VLD/F+4W4PYQTrtHz4zj9Nj0e+0GEE5H8692rKbpRL/eipvn0tGnRfRoC+YDTv1mLA0cuo0mDSsrRe/eBc2ot6Onpi0jayDrYYK2UkVLwwiXyqxmxbvvJ6NymFspTfeLnH4h/dp7EUXIiMlOKNdaQ/i3ofVP+RYXW6nNpwnwKj3iLfP1xP4ryC2DizJXwJ9Hdf+Sj/naTrYqRKA2RKNpzv34DvV/w+DWNuZ/jhmUTGCplFiMwhOFvEs/fNPxXidOfLAGqVymBriSwCVOXxYDJ0knePFmx8H8j0G3418TWG3O5k1y0GlWmUyax9+3VqSFN9vrAySn+dWtUqRfrX02YJu9TPogR/Zujb5cGZE+34Nd1+9XHGMp1kYj5HfmRuHHEb8SPdfTglsp/0KR49GGOrG4oRTbQycFBEXD0jRQ6yJMzS3R7CV2P1ahcnCylDw3Jc5FltLyyaUUTunWLx2HG7HV4xNlRLItE15iZg1MnEuQU7m2zcv1+lCxTCIXz50QGGuGbJ1FLiXRXjDpqkpB3/T4F02evpQ/qRVorMbwJ8RUiLMDIEaMYf0isg9JzsroNn7jn9OwxHZfPL1AsXXoEypdqFHd+jPLxZCPBiYG5SFfTa7pz/zFZ+SdKIFOUagwnGwQ+5liJsExZPvHGEwrcHnDmFFPCPNQr50tHpnfid/rhBwvh+2CVih5oipOeMU3RsHAsivD4lOEWir2wlwoXyAn5S0oyEqXUkSVzBvWXlPpexLKWeZcX8Un1M2kE/kMIaML8D70s3dX0g0A8hCkarGfrgfQDi35SjcDzRcAqYaqFPXVTT/zSQPyZ54uTbl0jkOwIKCm4mUugsRGrhCkLc8esmRh39ZExv/7VCGgEkgEBCfp9lxLuHPQBdrCgprJKmGVLFERVhtxY8se/ydAVXYVGQCNgROAeIwBuY8DwRvXKxwoqLnmsEmYhhvavXL4I9hy8yEjhx4x16l+NgEYgiQhs+fcsLnKrjQFdG1oMvGaVMKXt90a0hZhRjZ+xQvksJrE/urhGIN0jsJ3OD+OmLUP33k3RpH5Fi7HQ4iXMcoy3+vGYrrh05gY6D/0K2xgcSSeNgEYg4QiIddMva/ag05CvlMfMu8PbIVNGF4sVWTXJM5YQE6ol9JH7mHscimlaJwbpHU5qL801aMYMse0ijeX0r0ZAIwB4+QTgArdr/GzOWmzdcxYVaVM8a2JvNLUSm8kmwjSCe+r8bbw/Y7naO9KOBtpRXgGi69RJI6ARiBsBGlfz/0ga/7en4/ean8bGnfXpnQQRprG2MxfvYPHKndy09QFdd7zULsvGe/pXI6ARiImA7I9auEAujBnaRoUWjXnX8lmiCNNyVfqqRkAjkFwIxCv8Sa6GdD0aAY2A7QhowrQdK51TI5BqCGjCTDWodUMaAdsR0IRpO1Y6p0Yg1RDQhJlqUOuGNAK2I6AJ03asdE6NQKohoAkz1aDWDWkEbEdAE6btWOmcGoFUQ0ATZqpBrRvSCNiOgCZM27HSOTUCqYaAJsxUg1o3pBGwHQFNmLZjpXNqBFINgURFYhefTG9ffxXePoyuLOl6z4BUe1W6of8cAvRjlp3k7LmnRvZsmZEjm5vNj5Bgwjx6+jpdvnZj/9HLOH3qGiK9/Rg5KB1v5mEz1DpjukMgkjuX5coCe26W9Grd8mjfrDpaNaqKMtyGUDZYsrYHjk1uX8ZNYGbQA/vbBRvhx81b69cuy30h6yAvG5admnTSCGgEYiJgzwnr3kMftWHSPztOYOe/p1GSoXo+fLsT+nWurzb7Nd3HxbR0vIRppOx6HSbjyMkrqFS+KH6Z8xaKFMzFsCIuVqnetCF9rBFIjwjIpCY0FMaNeHfuP4fXXv8ft2e0x6CejTH7kwFxQhKv8Eem235vf4dj3En5nWHtcHzTZ9zctSDcGETI2lQcZ4v6hkYgHSEgM6LMnC5ca7ZqVAXup+aj52uvMIbWLqzZeDhOJOKdMQ8cu4x2A2ah+Et5cOSfGXFWpG9oBDQCtiHgzv1FS9d/hxsf58GGJeMh8ZvNk9UZU9aSH32xCj7cuHXLionmZfW5RkAjkAgEZAfwRdzu/uy5mzh84opidc2rsUqY1289wpUbDzGoXwuKe20X9Zo3os81AhqBmAiI8LRWjdJYtmYvQkXlaJasEua9h164e/MRurevY1ZMn2oENAJJQSBX9syoXb0UNu86rQRD5nVZJcwn/kGI9A1AiZdym5fT5xoBjUASEBCBkAOls+GU1kbFZ45ZmVXCtJMotZQqRYq8VyeNgEYgWRHImT0Twjx8SF+0RDBLVgnTLK8+1QhoBJIRAdFxxmU1pwkzGYHWVWkEkgsBTZjJhaSuRyOQjAhowkxGMHVVGoHkQkATZnIhqevRCCQjApowkxFMXZVGILkQ0ISZXEjqejQCyYiAJsxkBFNXpRFILgQ0YSYXkroejUAyIpDg0CLJ2HaCq3rk4QtPrydwcnRA4YK5kcHVyWId7vSG8aBrjeQrUjiP8oWzmDGNXBQ9c0J8Wx888sZjb3/1XC8Vyh3n8z2kVYnnYz+4ujihKHFwdEw747An389Dvk8X9k3cnjK4Oif6bcj79vTyQ/nShazWIbufe3r5I1tWN7xUIKfVvM/7ZpolzDYDZsLfLwivta6Jgd0aYdz05TjGeENBwSF0PLVHRr7IDi2rY+KoLtEf3NWbDzH1qzU4c+EWgkJCVb7MGV3RsdXLmMhwDqZp6PifcOHyXRTImx2zpw9EvtzZTG/HOj7NOsd/ugLBwaGoVqkYvp7SP1Ye4wUJtTJk3I+4fO0+8rDeFXNHKeIw3jf/FaL88se/8Pe248qpdjC92/t0qq+yNe05HcFBoRg5oDkav1IR46Ytx9mLtxEUGgZH2lq6ubqgW4faGDeiYzRxn7t0F1O/WY2LV+4h+Gm+rJkyoHvHehgzpE2M5j//bj3Wbz6KXDkyYzn7mYX5zJM8z5p/DuHLH/5CliwZ6QL4oXmW6PMff9mOZX/8q8Jm/DRrKMqXKRx9T/BYtHIX9hy+hKCgEPjzT54hE99RwXw5MGVsF1StUDQ6v+nBrbse6P3WHISEhOH3H8WXMS9WbThI74x/cefuY/j6B2LzLx+gdIkCpsXU8byft2L134c4SD3hdxHGgcyJgbEyokTR/Ph0fHfk5zeQ1lKaJcwde88hMiJCEcyeQxfxz46TMETSpvDp9CKe4Reu3sPmnWewZ+3HOH/1LroO+xq37nqyXMx855lPnFO/nfoslEORgjmxeNlW1mlAn86voGPLmlbfzZLf/8XuAxeU4XFbBlWymkhouelz9/OKHarPBwe3QiMGY4orSaTBhb/uwPVbHsjDGEoliuRVWeX6v3vPKrOtqhWL4cflO3DoxFWLOOzcdwEbf5mAg/TvExw8OFNG48WBTOyez1+5Dz8OdpPHdInuSnbOHocPXQANNnHh7c70eCgZfc94IIOcuCcdO3UVkWERKhBbvZdLG29H/3oyMNuGLUdwiM71zhw4TYmy67CvsJ3PEhIagXC+VwaKMr5KxS6cunAbm3efxldT+mFEv2bRdRoPvHwCcECwYAoJiVBRNVb9dVCdi2lbhBB6YLA6N/7zmGVa9JqOcxyA5bOJxkMyEJODJ65hw9ajWL9gHOrViv08xnqex2+aJUwBw47grdvE8Av8FXanJ0f84hwpT9DBdN2mI4p9OXb2Bnq+ORvCpN245Y6i9ArvzdANBZn/4LEr+GvrMfg8CcLCFTtVFIbRr7dWOA/r0xQz5qxHGGfg2Ys2o12zGoro1E2zf4So9xy8wG8pElk5Ywzs1tAsR8xTCVfYl8GWvl24CRH8qP/H2dAaYa7bclSxnOIzUJoR1OrQHUgSvyWV7B0dMX/ZFsjvS4y11LtTPeKRE4eOX+WHJc8XiB2MJ/PGhwsVFyDsWomiedGHOOQmof/LAWXjzpPwp+O79EUIvw/7J6l5g0pwyZwRofyoV/65zyJh+rL+jTtPqfb5VvATBxxLhPnI3QdHTl2HgQNjvy4NVP3Gf0oXL8DB9RQyu7mgHEPTtG5SDZXLvaRmsZ0HzuMPElkIif7NcfPxKn0V42JLHd1cMeKD+dh3+LJig3NxAKxQphAa1CqLkkWfzZYP2JcqzcYTmwDYO3DpUyAHmjWoiHIMhhUWHo5d+8/jAL+PJ/7BaNR9Kn6bNxqd29Qydvf5/3K0iTP9tn6/Aa5tDJev348zT0rdcCnez+BcrK/B6aVehm7Dvzbw44jR1M4D5wy5Kw9VeRwL9zQ45O9mIPtoCAkJj5GPI6IhU6kBqp6qzccb6Pyt7oeEhhnenLRYlbPP08Vw5sLtGOVMT1b9dcCQvfxgg1OR3oaBY+aZ3orz2Ncv0NCd/XYsxL4V6G64c98zzrwD3plncCrax+DMv/Wbj0Tnkz46FuwRjcPgd38whASHRd+Xg7+2HTNkLjOQZfuyrR6qrXemLOXkECOb4bd1+6KwYn9e6TjZ8MjTV2XgTGRoN2CmKlfo5ZExCz09+/GXbQbBSJ5f+pilzCADuZkYeTloGX5Zvcdgn6uzynvg6OUY98lGGt6evMRw6PiVGNeNJ+QYDDkrDFE41OvwkfFy9O/xMzcMdjk7RT+DPPOHn/0afd/0ICQk1NCq72eqr/Id9Rv9nYHrbdMs6piDvqFgjTdUvtrtJhk4cMXKk5IXGHXSgEztDPKtmKe0Iw2wMEaxsyhRPD8+ea87smSOufZpVKc8Xu/ZBJH0ZxO2tnq1Upg+vgcD7DrEqElmwoHdG6lR/DzXXPcpOJHk7OSILly/ZiIrZ881x+T//R6jnPEkKDgM2/49Az/OGpFkLSeZrVWN+cx/Za0mLK8rIwnaUwj12dz15lnU+XmyWYdOXlUsepHCudGhxcux8gkLVpnRCT95rxucXWIyOW2bVkf/rg2JQ7hiCevXraBwkHWraepBbqP3awyZyLqOMB6wL2cSSdmzZkTTVyoo7uT+HXdI3GDz9D3XaPbES2a6rHwPss7/4x9yMiZJ1qFryd3Y8VlLUAhTuXwRk7tATq5hZSlRq1psVlkyyjsSNlotUeQ9PYx6TzEqkROyEcI5fP/Z6/h0Qs9Yt+WCcCDCLUlqWr8CFn4xnGFWs6pz039k+TJrYm/1DV24cpdr1gOmt5/rcZomTFkYVCxdmBJFy47aPTrUIcFFKKKrX7MMPzLL4U96dqyLSEaPDye75uXjHw24CBrq1yzLj9IOm8jq3b7nGX3PePDA3Qt/c30rfWneuCpZxHzGW/H+Nq1fEaU5sAhLvpast7CS5ukg2dGrV+8jkkKJccPbm99W58Iaygct61ZLqReJTgYNAweplg0rKxbPUr5u7WrBQHYxnA7wPnSAN6bqlYsjL4Uv9ozktvT33cbL6vcaBWoSmyaDWwa8x/7lZz55niWrYuaT8Bgbtp4gTAZ0bVObA1/MATJGpRZOxHG4VtUSShgkty/feGAhF5emYWFKJmAUjplnCuV73sqBNCCATv78Nr79uD+crPSlN4VsFTnoBXDgVUIpCvfSQkrzhJmNI7qI+y2lMiKB40gtH0PePFnVLGgpX1muK9TCnzeDQzizPE1CyC1JbC4UVETw4//qp7+Nt9Sv1LuTa5EHt91J2GGY8NZrMe7HdyKSxoYU+jhwjeNHYviFAhTTJBEi1sgamu24MYT+670amd5+dsz7eXJmtvJ8+QH2XwRZhagGEEmnpVSGg4QRh0ByAsZUpVwRlC6WD3bs5+9/HTJeVr8iRRVxrwyOTTj7NONgI5PxBc5qd+4/js67iYOXDHwOLs5owTCNjpw5zdNFCuHGz1iB2u0mIlPpAXAp1g/Zyg9C1RYTMOXLVXjk+URtJxDBWf3uAy/z4upcBthOlLLHlby4dcdNvi9JWbNk4mCWDfdYV1x/HmyzDmdqweUB1Sn+gSFxVZ2q12PyRanatG2NmXFkMQo5m7x8YYHiSqb5zPN0alUTwqpdY+CxtRuP4OOx3ZEtSxTbHM6PfT7F/3bU/1UoV0yN6Obl4zsf0qsxCXIPWcdAfvQHY0gc7zOm0ubtJxQrNXZoa6Xeias+K49Hfe2z12gNB0vEIu2JQKsGZ82Dx69wpgnG/iOXUa9mlJRyxbr9ihUXwpWBpkf7uvhu6RY148rMNLhnI9Xln1f/q3CqTlVSMTMORwa91WR9+46ao2Z2Ye0zUkXiyiVEMAntHNU/Z05fUwODAwdhV87cMihaSkJARQrlsXRLXQukdFYkuDKY+HHWzF68j2KP4yzAG/ZsU9oVvWqgSHbJdj/v9OyNPu+exNG+5dcTldnaPdPqrOUTaW8T6gev337Ejy0QK9btxcj+zVXx0+du4ejhi+qDe713E7VBjGm9thyLdLFW1ZLYsvsUIw4+wL9UTbxau5wquvDXnepDzZg1k5Ik21Kf5TymT2h6bDm3pavtuB5ewtkxgB+2rBWFMKWvj6kCEY5FZkFJwlKL7vcu2f5dlKYKYYpaR1QdQnA1q5WgBDSm8v6HX7Zh7MfLVPkClCq3b14DVSsWZSR/Zzyk9PTeA2+1xDh76Q5kzS0p7mGW+4GQ7Y0ryVpXBlRJwsLm5tIjLiI3rUPC50hZSxHrTPOl1nGaJ8zUAGL8G+2pAtiujBI2cY8JEfVnplj+0zlr1LqrQKFcSt3hwLVVYtJUCm02UokvH+H2PWcVYYZxrSdtynqtM4VQBThAPM/UsE45JaB5coczJjeMkiQKfAkWJQYAXbhuNKb+xGf6//6gIcdttS4/Qv1mOIkzM9Uur7xcJsbMf4MD3gKqVyIjwrk+zYnV88egJteSltIC6nLfnRpFwJbu23JNtu3IkS2TYk2zc8AT3a6ltb15XTKcyRKgIPuYFpImTL6Fl2hs8FrLl7Hm74NK6Xz6/G0KbfJR6HOKfI4dGnKGK1uS69lEphpk7+rUKYNDR65w5jyNUdSlirWNP9lbVw4A7ZtXhxs/qOedXiNb/xX1nGLKt2nXKZw4c0PNPiItlcBRxjSE3MO0z3+j4v4ObnA998va/WqAyZsnGxpQB2maHrj74uYdDyV0EuuruIhSysgMmtQkxGiMbE6VkNJdC7H+11LipoD/2lPa0N8pYzorqaYXP8rdB8/hf/P/UixQlixuaEUBkahXkpImjoqq/8jRS7hKllbqFxVEFaoV6lRPG1Yng7q9qgRRHrQ7nbtkM+67eyupt7lBhRg31OQMK5JkWVvuP3JJrenKU8gm61DTJKxhECWdIpgSaytracOW42rNaS1PfPfEfroJBVRulCILwzvyw8XxFVFcgS3sbrwVJWMGTZhPwSxPtUwT7l0ob3P52n34cRnZTAoQxNKmdeNqSYa8Ka1OSpUrTAGHPYZPWIBrjHAvwpgGdcpGj/BJbiSJFZQhYZUsUVDZA28mSy+SzAy0xe3S9hkba2yib+cGauD6mXuliupF2HyxzDJPwlYWyJdd7RG54LddNMl7JhU35hUVh6y3d+w7a7yUpF9ZL1d8aqMrNr4/LNtmsV1ZU169+UC9D7GMSkspadNAWnqSZOiLrDV3kIW7cv2BIkpZ/7WgXlCU8ElN4ukysn8LjJ24CBco5BDVhKxjB9A4IC2lN/o2xTs07XPkulJURN3MTOuMfRVcnDgrKfULBzA3sqEdW9Yw3o7+lYGtMtUxd6laWc+lwhAKkroxsr/MrGLiKLbNf1My/QfvBZG1d0gGtjM3papfTu6LDoO+gDdn//c+WYbDNOIQHW8BtivCqlv3HuMc34Pol2/xfW/l3pUbl02ged8zo/voh3gOB/9xwozSYYqBdhzS9QRBWr1ScdShzaVs9CL2uZLMvTESVKFJZvGIaUILm8K0Yb0nVi3scF3uXSHWNLak5Hg+1Q4rsia37d6hLsZOWaqyimH4iH5REmrzPoqxQ+O65ZRVFB8GbWiBZKq2MebPRlXM5NGdqYq5jMfUGa78cz/XrydpySWDnYFqpCB4U21UgNLTTq1qKRvo5HhWsTf+iztpDXr3B1zkWnkZnRDWbzqKTJlcqfKNhC8l8EFi8MFgy84cYEYNbql0wMZ+P+/fNMvKRoSG0gA8LCqEfBwoOYr+jiBH0mhALEfiShKKPipfWJTnSRwZc3DjJGHHxINCLIo6tKiOfBRoJFcSg4jWVDtE0rA9nB/9uBGWLX2i2yMFRXB9JmaH1nwpnbhWVRZQnAmsSY6NOEj9caElrGdjst1hVNQX5ewRlzF5dq69G9ergAjqCmWQGdGvaXS3zQ+qVy7GfVVnoku7uup5fOhLKj6lt+94kkD80YWz8r51U5UQTFhdF5pVhj1VeRjrUrsB8F2r92gj5YpqZ9+6T/DxxD7ISmOSJ2zrPtnzR2w7mPrKYhTwDezTDDcOzsa7tGrKqgYLY4vP+ZeL3jjT8zRij7NTKXiDggrDBzNWKINuMTw/fvpGCraWPqsOCAw2HD5x1UBHbwPtlg10Q0sVILieNJy/dMdAIxIDdcoGGh+kSrvWGvnPGrGn9pglyu2ldPKVVIu2t9UqFVXHifkn7M4tRPr5xSoacvokQi7S/9E8cRYI+HsDIrxjm6KF37+HoIP71cxkXixw+1aEP7hnfhmRgYEI3LYZhuDY9rnBx48i9HKUrjJGQc5Iqg8+PjEuy0nY7VsIPhLTXM+YKWDrZoQ/jG3bKs8fuGMbDOR+jElUF6IyyXj1LHIFeivW0nhPfmXmD/hnAyKfPDG9rI5Dr19D8Iljsa7LhYDN/yDc/VGsexF8lsBdO8h6hKMcjT1eozlf81crK91s0P69CLt5I1YZA9fWIeeTRxAVq3JbL1ij6Bd9xhRXrHk/bzFs3XPaQHM5Q532k9RsKa5W23gt0YnDs++8bwxe48YY6PURXU3w6VMGj5Z1DR6vVDEEHT4YfV0OfL6eafCoVdrg2b+nIcI3yiVLrod5eBg8e3c0eNQua/D7faVcik5+q1cZPOqVN3i0amQIvXMr+jqFNobH77xh8KhZyuA9Y5qBPlrR94KOHTF4NKtl8GhQzRB04lj0dTnw/nwa+1DK8HhIf0OEn1/0vbAH9w2e3duyD+UMfuvXRV+Xgye/LjN41Clr8Gjb1BB2/170vcjgYMPjN19nH0obfP43K/q6HATu32vwaFzd4NGwhiH4bEycvad9pPr9eOQwQ0TgM3eo0Du3DZ6dWrCt8gb/TRtj1PdkyUKFj2fHVoYw94fR9yICAg2Ph/dXuPrMnR19XQ4Cdu1g+1UNHo1qGUIuXIhxz2vSeIP31AkxrqXEiZ4xLYxSBFpFJBj90RJ6w8/DGx8sUKFLxCj+dXrQv0Kvk0QnSildm7RAxLG98J0xTVUTev06/N4bAacW7eDYtgP83xoEEqe65/vlZwjbsAqZ5i4BRZPwHjkEkUH0jvDzh++w3rBzc4PLqPEI/t9U+K9drcoE/PUngud+jgxTvoB9sZfg268bwu/fVfe8Rw5A5JWzyDjzO4RvWQ+fL2ep66EXL8J/wltw6tQTjuyf/4h+nIGOq3s+0ycjfOs69mEpDI8fwmf0SBoFhHEG94HviL6wy5sXzsPfRvCMDzij/aXK+P+xEiHzv0bGz+ioXiAvfPp356z1kNMe4DW8Lwx3byDDp18jbP1v8J37jSoTcvoUAiaPgXO/oXB45VX4DemFkLNn1D3vj95H+O5NcCMOkXeuwue9d9QMGu7Jtegb/WBfshScBw5D0JSxkFlakt8vSxCydC7cvvyeNq5Z4TOgJyIeeyqdtDexMzx+hAyTZyLst4V48tMPqkzQ4UMInDYeLsNGw6FmLTwZ3B2hT7kY7/ffRsShXcg05E2V93n98x+XyiYetjAKVE6cvancwYyuYCJE6cd4OzM/7B2nR4utLTqXKYdMX84lAb4On0gKsfZsgUPtBsg69kNVha+TEwLeGojghs0RceIgMs9eBJcKleH43SL4DO5FwnhDfZx2uXIhxw80UxMpMVUuQZ9OQPj50wjf/hdc33wPbi3awK1ZK3i9NZjlaLCdIzsMfl7IseJv2GfJDLsMGRDwznD4BAchfNc/cGzUAllHjlF98KEniD+JLrAe/TnPHkOW71fAuVRpOMxZCN/Xe8J7zFuIvHoGdvkLIce3C5QRgR8FboEkrLCjh1R9Gd6djIyNmiPDK43g/cYA+AzpBzt66xhCApHjV/YhY0bYubgicNybjCbgy35vgGOr15Bl0IioPkydAL+hvRBQozYiL59F1gWr4FSkKBxn/wTfIb3hPe4d9u0I7IuWQPZZc1WZJ9KHD95C6L6uiCCuGSdxgHqlIVxYh/ewvvAZNpCDg3jPRCgc7KiLtXNxQeCHY+Dj6Y7wbevh9FovZO7NfPzznjQWT/i89hWrIvLmJWRbsgaOBWyTlqsOpcQ/1qbo39bvUxEMqNezlu0/fY/R9FTUgD+3HDHcffA42Z8l8OAeg3udCgav90c9q1skEUzesz4xuNeraAjcu/vZPR6F3r5hcG9Rj2xtl2fXn5Z58usSg3utsgbfxT88u8ejyKBAg+egngaP1g0M4Z4eMe4F/rvd4E421GvS2BjX5cR72kSDe/3KhqCjh2LcC7l22eDeuJbh8es9n1039mHpfNWHJyuWPrvHowi/JwbPPp0MHu0bx2DHJVPA9o2qjPcnH8YoIydeH71ncH+1qiH4zKkY90IunOH16mRH+z67/rQPvgu/U8/kt/q3Z/d4FO792ODRta1ieyMCAmLc89+0PqoPM6fGuC4nXuNHka2tYQi5fDHWvZS6oFhZN8sRDMR6I85Epa8BmdsZGGMnzjz6RvwIBJ08GmemuD6EkKuXDLJWjJGefpRx1ScESbYvRhGSrDoPOvEsZEmMDAwREnLNcriPkIvnuUZ+tj5V5Z72Ifj08RjVGE9kjRfu7W08jfo19vv44ZjXn55FhoYaQm/esHgv+PwZ4yPEuh989mSsa3Ih7P5dNUjEuBndh5gDkDEPlw4x1unG6yn5O/XrPwx2OV4z0C83VjN2ciWumZhCEbTp/RlWL3zXYsiLuMrp6xoBjYB1BLxp4DBwzHe4dP0hdbyfqXCspiWsGhiULlYAlSoUxRffbzAto481AhqBJCLg7ePHUKTXILGrnGieaZ6sEqY4vIp1xwE6Cy/8dZd5WX2uEdAIJAIBiejwLUOmPqKXUb8u9S3GJLJKmGLm9u7wtqjMYMMffP4rzly8k4hu6CIaAY2AKQInz9/CbEZlfJ9RHevWKGV6K/rYKmFKLgkjIZb6jH2JniO/Vdb40aX1gUZAI5AgBGbMWYdWfWagIp3vRw+JO86TVeGPaYsSqGriFytx7eYjxmOthUmjO6FUsfwWp2HTcvpYI5DeEZCdACRmLdWP2EU/1wpVSjLkyfsqmn5c2NhMmCK8lVAN46atUI24MJKZeDxY82aIq1F9XSOQnhCQ4GCymVEod6pb+MM73OKifpw7tBlxsZkwjQWoDmK07hv0Ct+qIppRKR8j+JIxn/7VCGgEBAEDyjAqRP1aZTCsTxPkz5PdJlgSTJg21aozaQQ0AklCIF7hT5Jq14U1AhqBRCGgCTNRsOlCGoGURUARphWrvJRtXdeuEdAIWETAfvDgwWjWrJnFm/qiRkAj8HwQsHd1dUXLli2fT+u6VY2ARsAiAnZeXl6G7NltE+FarEFf1AhoBJIdAa0uSXZIdYUagaQjoKWyScdQ16ARSHYENGEmO6S6Qo1A0hHQhJl0DHUNGoFkR0ATZrJDqivUCCQdAU2YScdQ16ARSHYENGEmO6S6Qo1A0hHQhJl0DHUNGoFkR0ATZrJDqivUCCQdgURtkXCV4UXWbzmCHXvPqX0OZVNWnTQCGoGYCMiO2YUYadKVu2h3aVMbPbgpsK0pQZY/odxUdNz05Zi3ZBPsZdNYhhuJM1q0rT3Q+TQCLzACphsEZ8mUEZPe6YzRr7eK94ltJszrtx6h87CvcfbsDbRqVgOtm1TD69yAx9UlUZNuvB3TGTQCLwICfgEhCOYO4qv/PoSflm/HSW5536FDPSz9eiS3u88Q5yPaRJgnz91E3Q6TkTd3Vkx4syOG920G7jSnk0ZAI5AABLx8AzBp5kr8ufUY8uTMgp2/T+b28paJM17ClOBbtdtNxPFjl3Fg80zU4m7AOmkENAKJR2DtpqPo3HMaxozpihkTelrc8jFeqc2HM38lUV7ByoXvaaJM/LvQJTUC0Qi0bVoVg15vg7lLNuPitfvR100PrBKmFPp72wnkzJcDXdvVMS2njzUCGoFEIuDMDZInvNkBWdxcsZEBoGUvE/NklTC9yRPffeCFT97rbl5On2sENAJJQKBA3hxo/mplLFuzF6Fh4bFqskqYDx56w+euB2pXLxmroL6gEdAIJB4Bt4wuaouEqzcecsaMrXS0Sphh4aRkUnNmN5fE90CX1AhoBGIhIFqNzJlcEf4kQHZ1j3XfKmECohOxs1gwVk36gkZAI5AgBJycHGCg0Y4lM514CDNB7ejMGgGNQDIhoAkzmYDU1WgEkhMBTZjJieZ/tK7YK5z/6IO8QN3Whq7xvEy/gGD8e/AC7j70Ujnz0yyxXKlC3LQ3n9WSDx55Y8X6/QinAO2N/i2QJZNl0yurlSThZlBQKL7/ZSvbj0CP9nVRpFDuGLXNp93minV70adTAwzt3STGPX3y/BHQhBnHO/B4/ATD3p+Pf3acol1wTMNgkaLJh/7NlH5o07SaxRrEOGP8pMUw0PWn12uvpDphenr7YdyHiyi7s0O1ikVjEObZi3fw2dx1uP/IB7fueuLVWmVRpmQBi8+hLz4fBDQrawH3zbtPo8yrY/D31uNKIu1ob6eMjbNlyYgM9KYRYrt5+xHa95yOIePm46G7NyItiLzFLU4l46+FtlLqkkj6osTwsRlV8Q/MmIEqMPZLfp2dnVKqG7reRCKgZ0wz4M5duos3Jy6CP1lYAw3469cqTRe3qqhYpjA/YEfcuO2OHfvOYfues/Dhh71kxXbsPngef/w4BlXKFzGrLW2eliQb/vmHvbD7wHk0qlcexV6KyeamzV6nr15pwjR532FhEfht/T7cuvlQsYCDuPb69P2eyJ0js0ku0A+1CTbvPokJM37DObrEZc/shgJ5/1v7v7SnT6386ZQ2EdCEafJe/ANDcOjkNUWUdg72+PbjAciQwdkkR9ShPVnb1o2roW6NMpj53XoM69MUuelf96InMR87feEWxBWwZNH8qFoxYRzCnfueuHTtAbx8AsiBFEL50oVedMgS/XyaME2gCwsLwwOuF2UNWbNaSYtEaZIdsub87INeppcSfLxj3xn0enMuvB77wo7hWj5i6Illq/fgGlnqylVL4sTmz+Kt88sfN+D9SUtf3czOAAANLElEQVTESAvL5o9Fbwqb4kuVmo3Hxct3UKJ4flzc9VWM7Nv3nkGLzlMRSc/7B1eW4s59L7w+7kdcuHCbfXRQeYXNz5s3GxZ8MQwtG1aJJSAzVijr3N2Uan/w+W84dvJq1GUKpKS8vaM9Xq1dHku/eeM/x3EYny+lfrXwxwRZB3502bO4QWbLk/wIr98iS5uCac/hi+j79jx4efrCjfFgvp06AB+N7oyGdcrBnkKm0yev4NCJpx+zlX7MXbwFDjSKrli5BF6uXNxKzme3RM4scZucHKII7dkdIIRmYiIYcqCKZ9HK3ajb5gNFlG6ZM6IAXQBz58rKsg54RJVQ92HfYOPOE6bFo4+DQ8Lw6ex1aNHrUxylo70d28pJziKqDnIYlEvt4iBQi4742/ecUTNxdOF0fqAJ0+QDcKOEUgQ4Bq41w2m833bALPxCt5xHHj4muZLncPPuU+g58lu4060uc1Y3fEXVyxv9m6vK2zevjiwcIBzYnyn/+91qgxsYpuI+dax2jFTYoE5ZlOYMmCyJs5qjqzOm0FHenlLbgb2aYva0gVjx3Sgs+XoExgxpjWxZMyEoKAS9OeOfOHszVrNffL8BU2asQCSxLFo0HwedTlj45XDW8TYWs473GaYmJ4n84f3H6Dd6Hs5euhOrjvR6QbOyJm9e1Aj9uryKtZuPwp0s7TWG6XxjwgJlTFCp3EtoWr8SmjWomGS2a/3mI3hz0mJ4ePgiczY3fDGpLwYzsJkxNapbUa2/ZLY8dPwqzl2+iwpxrMfm0AteiDI72er2zaobq0iWX06aJEpn/DhzCPp2qg/Hp2ysVN6MWOTIngkfffE7AgKC8MnXq7F24bvR7e7cfw6fzlkHexpqVydLPnv6QNTmr2lq2bAq2lIP3LrvZxygHmPxqt34YmLvGO2Y5k9Px3rGNHvbtaqVwPbfJqI4R3hh50I5ewphrNxwEG9RjVK56TgVA2n5mj3KqsaseLynMlO+9dESeDz2g7OLMz5+txte7/WMKKWCLHQH6tCiOlyongkJDcO8n7darPfU+Vu4eCUqNEXB/DnQslFVi/kSezGSa26xGhrYrWEsYhGjiz4k1pcrFVMsqlhHmaaPv/oDkRERyE1p9dT3usYiSmPeWiTWLz/qq3Su3y3eRKOHKAsr4/30+qsJ08KbL1OiAE5tmYnxZLVeKpQTbhld4UBJrBCJmOidOHcLA96ai4Ivj8TajYcRbiE0hIVqcfD4FQwb/xMeufvAkevYCW+1Z4zR1payYnCPxjRqyKjCTuzlR3+PLK95Ws+Z3dPLT10e0quJ+e0kn0eGhJMoG8RZT0GuN/PlyaYGsDCa/oUEh6m8sjY/c56CIhJv5bKF0erpgCEzsPmfFGhUrwKKEvMIYrv7wMU420tPNzQrG8fbdiFbO318D/Uns8HGXae4jrqB2/c8+fcYIZwNvH380bX/TIx9uzO++KiP5Zr4JbpwZjxEouz15mzcZ3lXxnqZxPXW+yM7qoDZIogxTzmzZ0bHljXxE+1db9zxUO0PMZlZxWRwFw0EwjmryVrPlBU2ryux5yKdrly+qNXimU1sgEO4lnRxdcKFq/ejLKFImEEk1pV/HuBaNFRJjS1V9sQ/CBm5nuXoh8s3LAenslTuRb6mCdOGt/sqpaTyJ/q781fu4tjp61ixdh8J4wIcOat9//MWpdMT1s48ieDkr23HMf3bNbhLu1Q7BmJy4bXRg6NmSktEaaxj0tud8BMti4ICg7Fp50l0Y0A0YxzSk2RjpR+RnKkGdm+o2F5jueT8jeAAZC3ZkZMQe1xJT3+UDa5gJWk/Jc97dp18dlNdjfmPzKz2HAjlVyyvdAI0YSbgKxDDAjHNk7+ubetg9JSlSmorwZQ27zqt1lzm1TlwJpjw6Qr4+gVG8XGchZ7wuMfI2Vi/6D3z7DHO81NP2KvjK1j++y5aGp3CddrnVqtQVKkzNjG6WgDrkY/5vTfaxyiXqidR9BejyYw0yhAilb+8+bKjQJ7sNqlCwjkIuMrMqZMmzMR+AxJMSYwLVtK1K4TE9pAqFZ8ngcroIEad/DqfcO0khuJvDW+Lk1QriK2tzIATPvsVn8djoCCz5vLfOGuSCH//8yDXbC9BWD9xKZMFWze6bUlU77SUXiqQC1EbTUVZSP00a6hNhJmWnuF590ULf8zewF2K7W9wZrIlZSMbq8IiMXMkBUBG9i1GWVljkn2d9l43EmFvfEBCyy92tSTY75duwZp/DsfIbn5SpHAutOVOUdLQgl93cM0Wiq2cPd257pRrI/s3My/y3M+r0s1MTBlljXqeukkZsITbsPXvuT9AGuiAJkyTlyCCnc5DvkLDbtOUWZxFQjPJv5hWMSr0IIkvFw3dc1AnaZ7CqYCfwVlxzLC2SiLZsHY5TBzVSWULomXMhM9/hfhHxpWcaJ0jmzeJPvAxDQmWr92LbxZuhB1VKXVYV7k49Jtx1Zca1zNTuNWjfT1E0IJIVDqyTraWxGxPsI9yU7OWM/3c04Rp8q5X/XUAR/adxUMSwBsfLET/d+bhDE3zLKVFv+3EjLlrEcFZQdhUEflbSgauP7u2qaluyZpL0rC+TfEuCVXUAze5i9rYqT9TSR8cddPsXynzcpUStN0tBXtKPKfPXotTVNeI2WDn1jWRM1smsxJp41RsfouXyIcQDkxf/vAXZsxZa7Fjd2j1M+bjn/Ha4C+VlJk0qhMR0MIfk8+gb+cGOHziOtbQ9SuM1jS//3VQ2XAWpvK+Ek31clGFceHqPZyjZNbLyx+BVAEYIiNQ8+XS9DBpYlKTySEpy1Kk7U/I2oqE96+NR7CTg8H4z1bgu+mDTQo+OxSXstaNq+LoqWtwp7WQpKJF8ipJ8bNcaetIuIdV897BK50+JlZP8Nmc9fh9wyE0aVABhfPnwr2Hj7H/6GUVQUG8TUL8A5Xkunb1UlGqk7T1OKneG02YJpDny50Ny+e8hTk1SuLzuevpLB0C2TpNPhwxapekJj0SW9TsZ0Dj+hWxYfH4p8IOk8riORTztp9mDUN96vxucNb8YcFG1KpcEgO6v2qxZLtm1bCU0tnb9PQQnrgq9YvWDNafTs7My+oSNQtFFbKpqJrmYueUtebetVPQZ9RcXLvlzoEoalBTPL1gKP9x7SnGFh1pYfTdp4M0UT59+5owzchAgvCOHdqWFi+NuM78F1sYZuQeWdtQ6gtlzSkWQLIpTEma7MkM27FlDbMaok6z0zC9Ckd/KRNX6A7x4Zw/cygmf7FSfas/Lt+GAd1ImNFU9azqqlST5KfaQQhTwoF0aycCobhTBlcXVK1RWmXISjta8yTG+uK2VpgSVPOk+k7WWfWdz2otlS9dELWY15m4iYWUeapWsRgOrJ+OH2gosZbcgT/tasUQwZXsv/RLVE8dWtRAG26ErNMzBKzujykWGz17TMfl82LInUxeC8/a/s8cSZgRL1r5iNmZEz/UXDTeVjFzUvEJrlx/gHaDZjHWkCeKFcmDc9u/gANnmuRIMuFFcQAJqy0x5cQW1tsnEDlzZIJwKOk5SUC0DynL8H2wKlawNuvDYXpGzeTZM1HKKH+plSx98HMWb8bNO55Uy4Qz3GTjZCNKeabEEGViy8kuV/Knk3UENGFax+e53BVCmTnvT1ykoKkyWc4D3Dj4zy3HlF4wLz/qd4e1ey790o2mHgKaMFMPa5tbCqX+bzON5vfQSF2SCEjE5zID15Z/mvg82lyhzvifQ0ATZhp8ZWJXW4nuUmEUkohUWIRNRQvnpjdKB1S3MXRIGnws3aUEIKAJMwFgpVZWkdZ++8lA+D4JUvo+ETQJYeqUfhCwSpgSzVvk+FEGyekHlLTypFmzZKBKoVBa6Y7uRzIjIJ5BdFy1WKtVebvYPNpT1yT7W+ikEdAIJB8CInmX6BPO1E1bmvisEmaObJmRhVHMTp+/mXw90jVpBDQCaomyfe9ZNKxXTlk+mUNilTAlUnb9WmVow7gWdy3EnDGvTJ9rBDQC8SMgs6WE6jzDCBRtafEkwj3zZJUwJYzFAEZI8+PWAW8zsptOGgGNQNIRkKXl4LE/ojzNLLu2ra38VM1rtUqYklkKDu/bDH8zlMWkWSvNy+tzjYBGIAEIhIVzv1SGlRHn8Q9GdYREGrSUrNrKGguIl0XNth8yWps72nAznW+m9qfxc05ly0Xi10kjoBGwgkCUA7idioxRt8NH8PUPRs8OdRnR/o04S9lEmFJaiHPy/1bhx2XbVEQ2UXbLlucFGGwpPk//OFvXNzQC6QCBq4zo/ws3itr09wEUK1cE3RntUOJFCcEqlYkFDGwmTGNZCTL867r92LbnNLwZuDiSlimJtoI2Vqp/NQIvMAKOubOiRIn8qFWlJD4e2wXF6eRujSgFigQTphTy41QsbK1Ea5NNZSz5D0o+nTQCGgEgs1tGxoTKROutPBZVI5YwShRhWqpIX9MIaASSD4F4pbLJ15SuSSOgEbAVAU2YtiKl82kEUhEBTZipCLZuSiNgKwL/B7SrVtR1+x05AAAAAElFTkSuQmCC;" parent="5p1wcZlrEhRN_ZlcO56I-1" vertex="1">
          <mxGeometry x="177.44999999999982" y="395.86" width="109.91" height="123.29" as="geometry" />
        </mxCell>
        <mxCell id="JZCeRioLr8M0Q08cuHrY-3" value="API Call" style="text;html=1;strokeColor=none;fillColor=none;align=center;verticalAlign=middle;whiteSpace=wrap;rounded=0;shadow=0;sketch=0;" parent="5p1wcZlrEhRN_ZlcO56I-1" vertex="1">
          <mxGeometry x="272.47" y="467.51" width="90" height="20" as="geometry" />
        </mxCell>
        <mxCell id="JZCeRioLr8M0Q08cuHrY-4" value="1.3" style="edgeStyle=orthogonalEdgeStyle;rounded=0;orthogonalLoop=1;jettySize=auto;html=1;strokeColor=#FF0000;" parent="5p1wcZlrEhRN_ZlcO56I-1" source="JZCeRioLr8M0Q08cuHrY-7" target="JZCeRioLr8M0Q08cuHrY-9" edge="1">
          <mxGeometry relative="1" as="geometry" />
        </mxCell>
        <mxCell id="JZCeRioLr8M0Q08cuHrY-5" style="edgeStyle=orthogonalEdgeStyle;rounded=0;orthogonalLoop=1;jettySize=auto;html=1;entryX=1;entryY=0.25;entryDx=0;entryDy=0;strokeColor=#FF0000;" parent="5p1wcZlrEhRN_ZlcO56I-1" target="JZCeRioLr8M0Q08cuHrY-2" edge="1">
          <mxGeometry relative="1" as="geometry">
            <mxPoint x="346.40999999999985" y="427" as="sourcePoint" />
          </mxGeometry>
        </mxCell>
        <mxCell id="JZCeRioLr8M0Q08cuHrY-6" value="2.3" style="edgeLabel;html=1;align=center;verticalAlign=middle;resizable=0;points=[];" parent="JZCeRioLr8M0Q08cuHrY-5" vertex="1" connectable="0">
          <mxGeometry x="-0.0564" relative="1" as="geometry">
            <mxPoint as="offset" />
          </mxGeometry>
        </mxCell>
        <mxCell id="JZCeRioLr8M0Q08cuHrY-7" value="Microservices / Dell Boomi / Oracle Fusion / Mulesoft" style="rounded=0;whiteSpace=wrap;html=1;rotation=-90;direction=east;" parent="5p1wcZlrEhRN_ZlcO56I-1" vertex="1">
          <mxGeometry x="286.40999999999985" y="437.1300000000001" width="155" height="40.76" as="geometry" />
        </mxCell>
        <mxCell id="JZCeRioLr8M0Q08cuHrY-8" value="" style="group" parent="5p1wcZlrEhRN_ZlcO56I-1" vertex="1" connectable="0">
          <mxGeometry x="441.40999999999985" y="387.51" width="140" height="140" as="geometry" />
        </mxCell>
        <mxCell id="JZCeRioLr8M0Q08cuHrY-9" value="" style="whiteSpace=wrap;html=1;rounded=0;" parent="JZCeRioLr8M0Q08cuHrY-8" vertex="1">
          <mxGeometry width="140" height="140" as="geometry" />
        </mxCell>
        <mxCell id="JZCeRioLr8M0Q08cuHrY-10" value="DQ Service API" style="rounded=1;whiteSpace=wrap;html=1;shadow=0;sketch=0;strokeColor=#660066;fillColor=none;gradientColor=none;" parent="JZCeRioLr8M0Q08cuHrY-8" vertex="1">
          <mxGeometry x="10" y="10" width="120" height="30" as="geometry" />
        </mxCell>
        <mxCell id="JZCeRioLr8M0Q08cuHrY-11" value="D&amp;amp;B Direct Plus" style="rounded=1;whiteSpace=wrap;html=1;shadow=0;sketch=0;strokeColor=#660066;fillColor=none;gradientColor=none;" parent="JZCeRioLr8M0Q08cuHrY-8" vertex="1">
          <mxGeometry x="10" y="52.860000000000014" width="120" height="30" as="geometry" />
        </mxCell>
        <mxCell id="JZCeRioLr8M0Q08cuHrY-12" value="Address Doctor" style="rounded=1;whiteSpace=wrap;html=1;shadow=0;sketch=0;strokeColor=#660066;fillColor=none;gradientColor=none;" parent="JZCeRioLr8M0Q08cuHrY-8" vertex="1">
          <mxGeometry x="10" y="94" width="120" height="30" as="geometry" />
        </mxCell>
        <mxCell id="JZCeRioLr8M0Q08cuHrY-13" style="edgeStyle=orthogonalEdgeStyle;rounded=0;orthogonalLoop=1;jettySize=auto;html=1;exitX=0.5;exitY=0;exitDx=0;exitDy=0;entryX=1;entryY=0.5;entryDx=0;entryDy=0;strokeColor=#FF0000;" parent="5p1wcZlrEhRN_ZlcO56I-1" source="JZCeRioLr8M0Q08cuHrY-15" target="JZCeRioLr8M0Q08cuHrY-7" edge="1">
          <mxGeometry relative="1" as="geometry" />
        </mxCell>
        <mxCell id="JZCeRioLr8M0Q08cuHrY-14" value="2.2" style="edgeLabel;html=1;align=center;verticalAlign=middle;resizable=0;points=[];" parent="JZCeRioLr8M0Q08cuHrY-13" vertex="1" connectable="0">
          <mxGeometry x="-0.1344" relative="1" as="geometry">
            <mxPoint as="offset" />
          </mxGeometry>
        </mxCell>
        <mxCell id="JZCeRioLr8M0Q08cuHrY-15" value="MDM Hub" style="rounded=0;whiteSpace=wrap;html=1;shadow=0;sketch=0;strokeColor=#660066;fillColor=none;gradientColor=none;" parent="5p1wcZlrEhRN_ZlcO56I-1" vertex="1">
          <mxGeometry x="620.52" y="428.02" width="120" height="60" as="geometry" />
        </mxCell>
        <mxCell id="JZCeRioLr8M0Q08cuHrY-16" value="" style="edgeStyle=orthogonalEdgeStyle;rounded=0;orthogonalLoop=1;jettySize=auto;html=1;strokeColor=#FF0000;" parent="5p1wcZlrEhRN_ZlcO56I-1" source="JZCeRioLr8M0Q08cuHrY-9" target="JZCeRioLr8M0Q08cuHrY-15" edge="1">
          <mxGeometry relative="1" as="geometry" />
        </mxCell>
        <mxCell id="JZCeRioLr8M0Q08cuHrY-17" value="3" style="edgeLabel;html=1;align=center;verticalAlign=middle;resizable=0;points=[];" parent="JZCeRioLr8M0Q08cuHrY-16" vertex="1" connectable="0">
          <mxGeometry x="0.1585" relative="1" as="geometry">
            <mxPoint as="offset" />
          </mxGeometry>
        </mxCell>
        <mxCell id="JZCeRioLr8M0Q08cuHrY-18" value="1.5" style="edgeLabel;html=1;align=center;verticalAlign=middle;resizable=0;points=[];" parent="JZCeRioLr8M0Q08cuHrY-16" vertex="1" connectable="0">
          <mxGeometry x="-0.1416" y="-2" relative="1" as="geometry">
            <mxPoint as="offset" />
          </mxGeometry>
        </mxCell>
        <mxCell id="JZCeRioLr8M0Q08cuHrY-19" value="API Call" style="text;html=1;strokeColor=none;fillColor=none;align=center;verticalAlign=middle;whiteSpace=wrap;rounded=0;shadow=0;sketch=0;" parent="5p1wcZlrEhRN_ZlcO56I-1" vertex="1">
          <mxGeometry x="368.47" y="467.51" width="90" height="20" as="geometry" />
        </mxCell>
        <mxCell id="JZCeRioLr8M0Q08cuHrY-20" value="" style="shape=image;verticalLabelPosition=bottom;labelBackgroundColor=#ffffff;verticalAlign=top;aspect=fixed;imageAspect=0;image=data:image/png,iVBORw0KGgoAAAANSUhEUgAAAK4AAABsCAYAAADzLIlRAAAMaWlDQ1BJQ0MgUHJvZmlsZQAASImVVwdYU8kWnluSkJDQAqFICb0J0quUEFoAAamCjZAEEkqMCUHFXhYVXLuIYEVXRRRdCyCLitjLotj7YkFFWRcLiqLyJiSg677yvfN9c+e/Z878p9yZe+8AoNnLlUjyUC0A8sUF0oSIEOaYtHQmqQMgQBtQgT6gcXkyCSs+PgZAGez/Lu9vQGsoV50UXP8c/6+iwxfIeAAg4yDO5Mt4+RA3A4Cv50mkBQAQFXrLKQUSBZ4Dsa4UBgjxagXOVuKdCpypxE0DNkkJbIgvA6BG5XKl2QBo3IN6ZiEvG/JofIbYRcwXiQHQHA5xIE/I5UOsiH14fv4kBS6H2A7aSyCG8QCfzO84s//GnznEz+VmD2FlXgOiFiqSSfK40/7P0vxvyc+TD/qwgY0qlEYmKPKHNbyVOylagakQd4kzY+MUtYa4V8RX1h0AlCKURyYr7VFjnowN6wcYELvwuaHREBtDHC7Oi41R6TOzROEciOFqQaeKCjhJEBtAvEggC0tU2WyWTkpQ+ULrsqRslkp/lisd8Kvw9UCem8xS8b8RCjgqfkyjSJiUCjEFYqtCUUosxBoQO8tyE6NVNiOLhOzYQRupPEERvxXECQJxRIiSHyvMkoYnqOxL8mWD+WKbhSJOrArvLxAmRSrrg53kcQfih7lglwViVvIgj0A2JmYwF74gNEyZO/ZcIE5OVPH0SgpCEpRzcYokL15lj1sI8iIUeguIPWSFiaq5eEoBXJxKfjxLUhCfpIwTL8rhRsUr48GXgxjABqGACeSwZYJJIAeIWrvqu+CdciQccIEUZAMBcFJpBmekDoyI4TURFIE/IRIA2dC8kIFRASiE+i9DWuXVCWQNjBYOzMgFTyHOB9EgD97LB2aJh7ylgCdQI/qHdy5sPBhvHmyK8X+vH9R+07CgJkalkQ96ZGoOWhLDiKHESGI40R43wgNxfzwGXoNhc8N9cN/BPL7ZE54S2giPCNcJ7YTbE0XzpD9EOQq0Q/5wVS0yv68FbgM5PfEQPACyQ2acgRsBJ9wD+mHhQdCzJ9SyVXErqsL8gftvGXz3NFR2ZBcyStYnB5Ptfpyp4aDhOcSiqPX39VHGmjlUb/bQyI/+2d9Vnw/76B8tsUXYAewMdhw7hzVh9YCJHcMasIvYEQUeWl1PBlbXoLeEgXhyIY/oH/64Kp+KSspcalw6XT4rxwoEUwsUG489STJNKsoWFjBZ8OsgYHLEPOfhTDcXN1cAFN8a5evrLWPgG4Iwzn/TzYd7PEDc39/f9E0X/QmAg+Zw+7d/09lega8J+J4+u4InlxYqdbjiQoBvCU240wyBKbAEdjAfN+AF/EEwCANRIA4kgTQwAVZZCNe5FEwBM8BcUAxKwXKwBlSATWAr2An2gP2gHjSB4+A0uAAug+vgLlw9HeAl6AbvQR+CICSEhtARQ8QMsUYcETfEBwlEwpAYJAFJQzKQbESMyJEZyHykFFmJVCBbkGrkV+Qwchw5h7Qht5GHSCfyBvmEYigV1UVNUBt0BOqDstBoNAkdj2ajk9EidAG6FC1Hq9DdaB16HL2AXkfb0ZdoDwYwdYyBmWNOmA/GxuKwdCwLk2KzsBKsDKvCarFG+JyvYu1YF/YRJ+J0nIk7wRUciSfjPHwyPgtfglfgO/E6/CR+FX+Id+NfCTSCMcGR4EfgEMYQsglTCMWEMsJ2wiHCKbiXOgjviUQig2hL9IZ7MY2YQ5xOXELcQNxLbCa2ER8Te0gkkiHJkRRAiiNxSQWkYtI60m7SMdIVUgepV01dzUzNTS1cLV1NrDZPrUxtl9pRtStqz9T6yFpka7IfOY7MJ08jLyNvIzeSL5E7yH0UbYotJYCSRMmhzKWUU2oppyj3KG/V1dUt1H3VR6uL1Oeol6vvUz+r/lD9I1WH6kBlU8dR5dSl1B3UZupt6lsajWZDC6al0wpoS2nVtBO0B7ReDbqGswZHg68xW6NSo07jisYrTbKmtSZLc4JmkWaZ5gHNS5pdWmQtGy22Fldrllal1mGtm1o92nRtV+047XztJdq7tM9pP9ch6djohOnwdRbobNU5ofOYjtEt6Ww6jz6fvo1+it6hS9S11eXo5uiW6u7RbdXt1tPR89BL0ZuqV6l3RK+dgTFsGBxGHmMZYz/jBuOTvok+S1+gv1i/Vv+K/geDYQbBBgKDEoO9BtcNPhkyDcMMcw1XGNYb3jfCjRyMRhtNMdpodMqoa5juMP9hvGElw/YPu2OMGjsYJxhPN95qfNG4x8TUJMJEYrLO5IRJlynDNNg0x3S16VHTTjO6WaCZyGy12TGzF0w9JouZxyxnnmR2mxubR5rLzbeYt5r3WdhaJFvMs9hrcd+SYuljmWW52rLFstvKzGqU1QyrGqs71mRrH2uh9VrrM9YfbGxtUm0W2tTbPLc1sOXYFtnW2N6zo9kF2U22q7K7Zk+097HPtd9gf9kBdfB0EDpUOlxyRB29HEWOGxzbhhOG+w4XD68aftOJ6sRyKnSqcXrozHCOcZ7nXO/8aoTViPQRK0acGfHVxdMlz2Wby11XHdco13muja5v3BzceG6Vbtfcae7h7rPdG9xfezh6CDw2etzypHuO8lzo2eL5xcvbS+pV69XpbeWd4b3e+6aPrk+8zxKfs74E3xDf2b5Nvh/9vPwK/Pb7/eXv5J/rv8v/+UjbkYKR20Y+DrAI4AZsCWgPZAZmBG4ObA8yD+IGVQU9CrYM5gdvD37GsmflsHazXoW4hEhDDoV8YPuxZ7KbQ7HQiNCS0NYwnbDksIqwB+EW4dnhNeHdEZ4R0yOaIwmR0ZErIm9yTDg8TjWnO8o7ambUyWhqdGJ0RfSjGIcYaUzjKHRU1KhVo+7FWseKY+vjQBwnblXc/Xjb+Mnxv40mjo4fXTn6aYJrwoyEM4n0xImJuxLfJ4UkLUu6m2yXLE9uSdFMGZdSnfIhNTR1ZWr7mBFjZo65kGaUJkprSCelp6RvT+8ZGzZ2zdiOcZ7jisfdGG87fur4cxOMJuRNODJRcyJ34oEMQkZqxq6Mz9w4bhW3J5OTuT6zm8fmreW95AfzV/M7BQGClYJnWQFZK7OeZwdkr8ruFAYJy4RdIraoQvQ6JzJnU86H3LjcHbn9eal5e/PV8jPyD4t1xLnik5NMJ02d1CZxlBRL2if7TV4zuVsaLd0uQ2TjZQ0FuvCn/qLcTv6T/GFhYGFlYe+UlCkHpmpPFU+9OM1h2uJpz4rCi36Zjk/nTW+ZYT5j7oyHM1kzt8xCZmXOapltOXvB7I45EXN2zqXMzZ37+zyXeSvnvZufOr9xgcmCOQse/xTxU02xRrG0+OZC/4WbFuGLRItaF7svXrf4awm/5HypS2lZ6eclvCXnf3b9ufzn/qVZS1uXeS3buJy4XLz8xoqgFTtXaq8sWvl41ahVdauZq0tWv1szcc25Mo+yTWspa+Vr28tjyhvWWa1bvu5zhbDiemVI5d71xusXr/+wgb/hysbgjbWbTDaVbvq0WbT51paILXVVNlVlW4lbC7c+3Zay7cwvPr9UbzfaXrr9yw7xjvadCTtPVntXV+8y3rWsBq2R13TuHrf78p7QPQ21TrVb9jL2lu4D++T7Xvya8euN/dH7Ww74HKg9aH1w/SH6oZI6pG5aXXe9sL69Ia2h7XDU4ZZG/8ZDvzn/tqPJvKnyiN6RZUcpRxcc7T9WdKynWdLcdTz7+OOWiS13T4w5ce3k6JOtp6JPnT0dfvrEGdaZY2cDzjad8zt3+LzP+foLXhfqLnpePPS75++HWr1a6y55X2q47Hu5sW1k29ErQVeOXw29evoa59qF67HX224k37h1c9zN9lv8W89v591+fafwTt/dOfcI90rua90ve2D8oOoP+z/2tnu1H3kY+vDio8RHdx/zHr98InvyuWPBU9rTsmdmz6qfuz1v6gzvvPxi7IuOl5KXfV3Ff2r/uf6V3auDfwX/dbF7THfHa+nr/jdL3hq+3fHO411LT3zPg/f57/s+lPQa9u786PPxzKfUT8/6pnwmfS7/Yv+l8Wv013v9+f39Eq6UO/ArgMGGZmUB8GYHALQ0AOjw3EYZqzwLDgiiPL8OIPCfsPK8OCBeANTCTvEbz24GYB9sNnMgN2yKX/ikYIC6uw81lciy3N2UXFR4EiL09ve/NQGA1AjAF2l/f9+G/v4v22CwtwFonqw8gyqECM8Mm4MV6LrBWBz8IMrz6Xc5/tgDRQQe4Mf+X55bjwFeCncVAAAAlmVYSWZNTQAqAAAACAAFARIAAwAAAAEAAQAAARoABQAAAAEAAABKARsABQAAAAEAAABSASgAAwAAAAEAAgAAh2kABAAAAAEAAABaAAAAAAAAAJAAAAABAAAAkAAAAAEAA5KGAAcAAAASAAAAhKACAAQAAAABAAAArqADAAQAAAABAAAAbAAAAABBU0NJSQAAAFNjcmVlbnNob3TntIyUAAAACXBIWXMAABYlAAAWJQFJUiTwAAAC22lUWHRYTUw6Y29tLmFkb2JlLnhtcAAAAAAAPHg6eG1wbWV0YSB4bWxuczp4PSJhZG9iZTpuczptZXRhLyIgeDp4bXB0az0iWE1QIENvcmUgNi4wLjAiPgogICA8cmRmOlJERiB4bWxuczpyZGY9Imh0dHA6Ly93d3cudzMub3JnLzE5OTkvMDIvMjItcmRmLXN5bnRheC1ucyMiPgogICAgICA8cmRmOkRlc2NyaXB0aW9uIHJkZjphYm91dD0iIgogICAgICAgICAgICB4bWxuczpleGlmPSJodHRwOi8vbnMuYWRvYmUuY29tL2V4aWYvMS4wLyIKICAgICAgICAgICAgeG1sbnM6dGlmZj0iaHR0cDovL25zLmFkb2JlLmNvbS90aWZmLzEuMC8iPgogICAgICAgICA8ZXhpZjpVc2VyQ29tbWVudD5TY3JlZW5zaG90PC9leGlmOlVzZXJDb21tZW50PgogICAgICAgICA8ZXhpZjpQaXhlbFhEaW1lbnNpb24+MTc0PC9leGlmOlBpeGVsWERpbWVuc2lvbj4KICAgICAgICAgPGV4aWY6UGl4ZWxZRGltZW5zaW9uPjEwODwvZXhpZjpQaXhlbFlEaW1lbnNpb24+CiAgICAgICAgIDx0aWZmOlJlc29sdXRpb25Vbml0PjI8L3RpZmY6UmVzb2x1dGlvblVuaXQ+CiAgICAgICAgIDx0aWZmOlhSZXNvbHV0aW9uPjE0NC8xPC90aWZmOlhSZXNvbHV0aW9uPgogICAgICAgICA8dGlmZjpZUmVzb2x1dGlvbj4xNDQvMTwvdGlmZjpZUmVzb2x1dGlvbj4KICAgICAgICAgPHRpZmY6T3JpZW50YXRpb24+MTwvdGlmZjpPcmllbnRhdGlvbj4KICAgICAgPC9yZGY6RGVzY3JpcHRpb24+CiAgIDwvcmRmOlJERj4KPC94OnhtcG1ldGE+CvEWK4gAACxmSURBVHgB7Z0HnF1V9e/XzGRqJjOTySSZVCY9hADSQQhEkGoDBBGlPJ8V9Y9/1Kcfe/d9LDysiA0UVEABAVFBBGmGXkIJLY2USZ+0KZmSuW9915012XO4d3Lv5E7zfxac2fvssvbaa//22vXc5CWUJKZYA8NMA/nDTN5Y3FgDpoEYuDEQhqUGYuAOy2aLhY6BG2NgWGogBu6wbLZY6Bi4MQaGpQZi4A7LZouFjoEbY2BYaiAG7rBstljoGLgxBoalBkYMS6mzENrOsyOn2smwkEny1Pv14WGa1P5kztRxHprnnmxczdQz3563vD3eLo558vqwbAobfmmHFXA7OjqlqWWXbN/ZIu3tHbKrtV39zbJrV5u0d+yW7TtapLmlVXZ3dkpj0y5p0fC2tg4Nb5aE/rdpy05t4DxLu3V7o/nJu1PTQrityjOkJg1ramkLg7r98GptbJZOlSUtaacpq66UzkjnCdMXFY6Q0VVlEiYZMSJfRleWa5hKrr2jenS5jCjIl87OhIyvqZSiohFSNapUayUysqxYykqLpbCwQMNGSgXhmmlUeamMGFEg5SNLhIQ11aOkWPNVVoyUkuJCS58/TBGfN1Qu2TS3tMt9D78gjc27DEAvL6uXrduaZMWqjbJ2Q4Ps3t1pjbFbwdumIO1UcNKIAJg4gNHWruG7dycx0dXg1mJuFkGAkjld/jA+5X0j0nn+JOeef7v59Azu8bY3cGBBU6ShY3RT4M/L7wr3MHvdY3XzRyTtUZGCFh6F2gmoQrGCNV/z0lEK8vMFPpUK7irtIHVTxhrgAfmc6RNk3qxJUqrp58yc1C3CUPL0G3ABFRYMMOxsTFrIlWs2C4B84dW1giVb/MJKWfz00iSSVMF5quAkqZ/GoWEIVye/oMCUPkJdLAsNkK/Kt0YoUH9esiGwKDRWZXmZjNJGKCkplLE1FTrs5snkidUG8GJtuNqxVQbg8pHF2nAjzT9m9CizXt0NpK1dVQmf0u6g0IMVr9CG3xsxQvRm2Xa1tcvGzTusns6rXTvhuo0NVhfqs27DVmHEod6vrd1sI8vmhuQIskNHlB068rTq6LJx605Nl+y8uAk6d1dnbmvVTq4dHt64uzWus6NjT0fu6oQJjSMflFAeVeOqpaKiVObPnSJTJ9XIXAU2gJ49rdbaoqioUEpLiqwt0P9AUM6AW6+KfWX5Oln0xMuyur7BhuflqzbosNwpy1aul50NO7Q+AFEdVQwmAFDTKHlqGYrKSqR2fJVMnVhjYJsyYYwNdbXjKqXGAFVilqNMh8UKHQ6LFLwMd5WjyrqGPR36FPgMm//TCaNBxzeDwfSqqcX0vlmnSoB7+84mnV612wi1acsOHeVatGNsly0KejrG6votsqp+s02z6tdukc7WtqQhAcu0nxoM0J6nboW2TbVOQSaMrZSqijLZb8o4mTd7svlPXnCgjB1T0S/N0Wfgrl2/Ve6452m5f9ELcsudj9nQAxAZsvX/JHV5CKcH01vH6fzsxAUHmBU78pCZCtQxMmO/8TbskwkgJ11zut+Tb/Hf/tIAbeSEl9GE/2mPNes2y3MvrZGNW7bLitc2yv2PLLERAoOkCexJtppywBB1taH2ARk3plIt9WQ5/cRD5K0nHSr7Ta7xYvbJzRi4DPsPPvqiLNFh/sbbH5anHnsp2fOQVRcNo7Vn1eiQXKUWsHZclUyfPFYOmDdVqnUYPvbwOf3W8/ap9nHmfdJAm64vGptadR2ywXBRr2uR+x9+0RbFWPI16xqkcUeTjrDaDVij6EhbM2msnH36EfLOM46U/dUyT66t7pMMGQH3ulsekq/9vz/JaoYNFRYhcOfOnyYXv+sEOW3hwTJSV7Xl5SW2us1k3tcnaeNMQ14DWG52e5imbNveJGvWN8g/HnhWnnl+pdytIzRTmDxdPBboOmPa1LHysYtPlY//r1NslO4y1BnVca/A/cJ3bpDv/uQ2KdBJd5lOwA8/cLqcpb3lkotOzqiAOFGsAdcAW5Q33L5Irvjl32STLkZ36Ny7Q7cjzz3zOLn+p//lyTJyewXuUp3DHHrq53T7qUO+eOlZctZpR8gBc6ZkxDhOFGugNw2Arb+qBf76FTfrDkmb3Hr1p+TUEw7uLUuPON9/6hHoL03NrdKscxQm6/W6GItB65qJ3X3VwMy6WmlWfLXo7sZuNYzMibOhjDfdfvHbu+RX198r7ztvoZzzlqNkiu4QzNLCC3RhFlOsgUw0wHx3le7lsyvxzR/8WVqbmqWgVE/1+kAZAZdJ85G6M/DoIy/K1b+/R6658T6p0V2E+bOnyATdQVhwzP5y8nEH5myrow/1iLMMQQ1s2Lxdnli8TE9El8ijTy2V9frOQUqLLtwYxseMr7Yj9ubmrtPOLOqQEXA59Vl0+zfk7geflf/741tVmBV6UtMiD+iWGFsc19/6kJ7A7JbxKginUCced4CcceKhMql2tMyoG2+nRpxyFeiKEpdN7piGrwbYq+eQo/vYXduenYS77ntGsbHcwProk69qBdkITp5oclhRqKNzgZ58HnHYbDn/zGPl0v99msw54TJZsTJ5VyQbjWQEXGd48oKDhIee9Jge1b6yYp1uc7ymR5Nb5fmXV8t6PYpcv2aTvPT8Crnyqju0UyWkUPd1JyqAJ4wbLRP1ZGxi7Rhzx+ppC0esbKFxaYQj2BG6TTJaj1hjGhoa4ICBk7ZWPZJeunKDbNIj5ia9S8IpKWuejYoDjp2XPLt8z3aWAtRIDVqVtjlbXvvPmiKzp4+3E7U3Hj7bsOA1ZP3UF8oKuF4AQHvbyYfZa4fu6XLRhQqyUuTW1X2Llsid/1os6zZtkw0K5tV62rJm9SY9sOg6VVELzt2DZA/MtxtM3GJiSsLlD07TykqLdDpSadMP7hPM192MmXUT7LweZXC8GFP2GmjQi0u79e7Csy+usvsO3HtgYfTysnXSqPcduEdidxgSeplJ7zZgfLCwtC838OyETUGZdDkl1aNfbbt8PYI/UY94K/SOCOA87+1H6020IruNVqLbqNxsyyX1CbihAAg0oqDILlkcftB0i8Iqf+uz7zY/pyuvLl+v9xjqzUK/smy9vKqWmpM4riAy5DTrXl6LrjBREGEb9ASGUQZiKmKnj5pOtdQVyBFyp5QrsJl6jK4aKdxhmDyhWuhI++nCkUMQ7i1M1ZMaymB6Mqm2ShstefTMMMddh+4Or57k5R1XcMJuUyULTP2XKVShbqRnQkyOuEzTGyWvVCanUfwFKFyGwd/KwY/KSJlr1m0xNlzM4UYcdw/YI8UycnUTMK1Vq7hh4zbT6XY9CKh/bYPl8eNYjIiO48k7CObtMipdxiVPDQvGgUtNGJMJ40fbbTHqy6J81oxama73EqbqCemhehCFoRlIykzr+yARt7cOmDPZnpANANuqCu3QrRDuy5pfw/Cv1qPCtq7hCWvOvdplqvh6XZWyi1G/fpu0NGyXRru4I7Jj8zZlnScvPbciWQSmm8bgj7ke3PWCoyAYoRd7ujuDBtkdVbUeEI1fruA3y2Ihr/+DLNyKUlZ7JYpkmPW+F80AoABfIK7NGwEvce27WvfI6gVquHVsmFmY/vE4LWhPWYRr5y0ukhK96TZCb9NN0/sh1JfFNesSOnupgo97I4CVW16AtVD1QYeeoOuX8iF0ganfgRttIH/HUjPPhZj/9oXW61SEq3tbtjbamTm30VD0std0yqIdYGfjLr0UssGsLVZ3lQ6LgG2FTluwXMk23gMVQMLjxEjQA/ke0e06SroDMvDsKa9n4uRNuZ5hOnVSeaESOpkSoxIggwt1mlY3Tm/IJS+POxC1anbLbpLesMNajqkul/2H6L1aq1Qf/gwacPsg6+uysKCDJmsDQcceMdvcTP902D3VJJC4jM61Ph9KcTdox/D3VDwBuX1JkSoyEgbgWBuk6whY9vF6NVCdbmK6w+Vv4uiQMe3RwLAG7p5q9M3HkOjECDBRh8aQahVIMQ1NDfhKZGhKF0sVayCNBmLgplFMHDy0NRADd2i3TyxdGg3EwE2jmDh4aGsgJ4uz1lbdY4wp1kCggeLi/v1oNSfA5RTKN+rZPnJ/UI9ubxjvfnc9UfSd8GgY71C0rGg60qQKIxzqLS6ZIvk3LC/ME/rD9O5PFb+3MI93F174IeobDY/qwBJ2/fG0oevxns/jCA/9ns7D3A3TEQaFcnmYRfTTn5xMFVxor0BvsrqywjTRsOh7Kr6kCdP1pqwwnZfr6VPFRdN4+Z7WXU/Xm5sqbV/CyOP53HW5cL0+UVk8rbueJ/ru+cLwaFgY537c0O95+tvNCXBRGsKnU15vlcg0D+l6S5ut8jx9Jjx7k9/59JYmGpdpXaL5ou+h7JnKkWk6ygr5R8se7PecANcrmY1SyEP6TPNkmjZTZXu6TMvPZUNlWpewTJc3DAtlTxUfpo36M0nv/DNJG+Xf3+85A65XMlcCu7Jw/YnyjqYhPpTD4z2f88EN04Xx7t+b67z2lm5v8c4H1ykM8/BU8np63FTxnpd454kf8vRhmmRM8m+Y3tOG8YPtz8nijEpQ0VxUEB48LPjguW1b8r4AYZWVPY9gW1pa9Cy/2J5o2bt26bXJ5mbL4/x27kzeReAqZHl5ebfuiW9vb9erkZnd8UU25MIdPXq0XYCPlt/NvMtDPPdgqZPXjagdO5IfCRJWVZW8e0E4t+ZISz1GjhxpXw7wng1RJnna2tr0E5nkzk9JSfKyjstL+SF/vlAgrrEx+WuWo0YlL0JlU+5ApM0JcF0JfREYxXp+gPjSSy/Jq6++KmvXrhXeKyqSvz1Fuu3bt1tDUA4NDZABztSpU+Xoo4824AFAaMmSJfL444/Lli1bLA/5aQTKAkBNTU12l5d3nokTJ8q0adPk+OOP7w4PZTOm+oeGffnll+X+++83UB111FFywgknmN/TRN3CwkJ54YUX7HnttdcsrZeLTJTDA4gIB7Qf+MAHTPYnn3zSdPGhD31Ixo0b162raBnRd/jRqZ966il55ZVXZNOmTVZnOjMd18tHh4CUMgn/6Ec/aiBHd3TkQw45xHRM+qFEOQFuqgbOppIoDMU+8MADBlrABzB5AKsrza2Q825o0B/X03jA8O9//1ve8573SF1dnQETS0Wc84EHgPUGw+8NiPx0lNWrV8uyZcvkkksuMSvl5Xp5pEO2O+64w8DHO/5JkyZJnZaLfFHCwv3+97838CCLy0E6/MjohEx01vPPP1/GjBkj9fX1wijhMmejZ9L++te/Nt14mYRRRkiMHIQh26mnnqrfDY6XRx991MokDFBjHIYa5QS4KKavRF4U+sQTT8izzz6rv9RYYo02b9482W+//boBAn/ivCxAhzXFmgA2lH/rrbfK+9//fhv64AnxHdvpp59u1pnhknDyFulnJV424ZQPcOkEjz32mBx66KHWmF4evLCcf/zjH80yuvWmcf/85z/Lxz/+8e6OQFqIsm+++WZ5+umnzdrX1NTY6DB79mxLixx0MMrgKS0ttXBGEPhCXg97yfAPvP7xj3+YXpB57NixMnfuXLPYWFHinS8WGMuMLJSLPDNmzDDAMoUYiqBFDTkBbob6TJkMhS1evNiGNJS6//77G9BoRLcEntGV7S7ABuDPPfec/P3vfzcgM4QvXLiwu2HgP2XKFGu8KBjgQyOSpra2Vn7zm9+Y1Xz++edtiCTOCQBQDlMQ0h988ME2bQDkW7dutdHiuOOOszDPw5QH0FKXCRMmyNve9jazaG714B+WAV8IOcNw5PQ6O++o63XB6m/evFkefPBBk6W6ulrOOussMwbw742Pl8n8/8gjj7S0dD4Pj5Y5mO852VXoTRnRyoVp8fM888wzNgSzOHnjG99olooFhTcgiuPhnYeGd1BjORcsWGDWAl6PPPKINZyDgPI9Tyo+Hoc194al8aONtWbNGpsWMMcF5HSYI444Qn+hUr9G0HIfeughm/sS7/ViNIAPfN/85jeb9WKqEcrvMuF6nfDDw8nT+Hsq1/OgN/RJfupx8cUXm7XHz+Nle1lYWPd7OeRFr3TWoUoDbnFRTkgoDQvBcMW8DvB6GnfD9Cg1Gk6DAIyf/vSn1mDMG0Pgkp935o/kB1y+g8A7DwsuBxUykB5QUxYu8z4WdPgPO+wwAy8Ne9ppp8mvfvUrC3/xxRdl8uTJtqCkjI0bN1o4c+Dp06fbMBzWJZU/WjfSuIyp0kfD0MWqVatMfiwn0ydkhnB54OflYFEdzIwi1M3TR3kPpfcBB2608igNwDiYUGpvhMJDxZMWHgyJ8CCexvOGIZ5OwW4Fc2gahfQsSgAnvAhjnguwsVhYcPL7w9SB+S/vs2bNsh0MePAOIOk0zCmZH7MLsLBrqkK9IOaKXi/y9CfBn3pQN+qC1ccPednuIpPXHxnnz58/LEBLXXICXFcEDLMlejxzQFavWEoAQVhvFC2P9CzQACyNxLAPPycakMUJlh3LSZyDFl4AF+sJn3e9611mTQEdcaRlSwmgM3y+/e1vN8tJWRDp2BJjLksa5GBbjQUO9QIYLCKRoa8ED2SJ1jsVP+rFiIEukRfZ6NAQMvsC1Xlhldm5QD/I6/VKxXsohfWOkAwldcVmmLw7GcoDLAyvWEO2t9iWYtGVKVE2jfGvf/3LLCvWFevrG/vw8UZnwYFlueeee+xwgnAWTTQacmBN2Q5ykAFogA7w8L/1rW+Vhx9+WNatW9cNBvi7RUMWtvWwuvBkb3jp0qU2ZWARx5wYPtmSgywTPXs96EBMbdgpoF7kRU4flZCBMOpKHsoAtJmUka38/ZE+J4szV2xfBMTCAig2wrFY//znP02JbiVQtj8hf28IAMqWk1trwAVwUwGEBjrggAPknHPOscaCL4sutnyY2zHHdosDf3iwi8CWEdtjpOFZsWKFrFy50qYGTA/wIwd5qA9hLJBISz14AC7DNpaddE5eD2QJKUwThuMnLlU8YYw2HBrQgSnrL3/5S4+9cYDKKMGDn3KRmQfal7Y0BgP0JycWd19lZWg99thj5d5779VfsdkgX/nKV+QNb3iDWUNfUFEGQ5krFoVjCQERVg7CygHMVI1qCfQP4KU8TqJuuOEGy/u73/1OTjzxRJvb0vDkp9F/8YtfGGjZs2WbDiBjkZlOICfpsPbe6MiENea58cYb5bOf/ay85S1vkdtvv91kveWWW2x0qaurs7zkj+7jIiflsIUXdj5GJKwoZdCR6AyA09PACwvL9IBdj3PPPdf2nNEfCzRGMfZz0SF54ON5fEcFMM+ZM8fyO1/X21BzBwS4KMgBF1UA4SiMhQFgYShmLoql45gUIj+EMp1X6GIlOXZ905veZA0CTx5vIMsc/AFobGNxrHrbbbfZjgJHnJxUXXTRRdb4LLaYtiATx8kM+/CkLLbC6CQQHcHlw4KxO8GeMmlxATmjCX6mQoCP6YPLDwBJCyGvy/zBD37QyrYI/YNeINICOvebJwinXgceeKDVj5NERiNkRi4e8nvZ5KV8yiQcADP68T7UaUCA6w2TThnEsz110EEH2fEpCx0sKdaM83kUibIBNC4PYcTRUAzj+OkATixQWCBhjb2hPQ6XMrFOTBuuu+46azQOEq666iq58MILbVjHumL5AGlo7SnfeYaNDIiZrx9zzDE2z2Vbii0xdh7oEHREphAA3HXC9ASCH/XDAiMT9aJMpkDkgTdEeVhOePj0BF7IhLzUmXh0MXPmTPn0pz9tdzYYBZiKRfOQlg4FuBl13CJbYfoHvi6rhw0Ft9d/A2LxktfksJP+jxTpv9DYvPTatPIyHPW1clHF8I6Vc0tEw3kav3CDIIT5kIk/BBDxPm8jD40cjScNRF4ATIPSaACERieMOjH8hlbV84T1dfmMof4BBCwCIQcpaSCGd89LGOVCyEdngygf+YkPeZGPMHSCjvz41jLpH3gR7p3KyyQefoRjVcPyATNTIeJIQ3n7SpSLLjOh2cdfJiv1Z7KuvuISueDsBZlksTQ5sbiuiIxLDRJG8/JOY7vSaWgnLHBIKDua3+MBPg8WrDfy8ny+CGgI87IAghMyERctM/oO0KOA9TShPPCjg0D4ifN6E0aeVHVwnSAjaVwuDyevk5frYA7LJw1Aps7DjXouZQdQ+rCBUhWLwl3pHk+eVPk8Xao4z9ub6/lJE/qjeXqLi6b1d/KEcoV1CPl5Otww3Pmkcj2du9E0qcJDWaLph9P7oAE3lVL3pjjypMtHg6SLS8W3vxswlCWdPypXmC6My6WsqcrIJf9Q7v705wS4Q6Hi3iCZyuLp+1O56XhnW3a26dOVmy68v/mnK3dfwnMyx81EAOaKzP1Y7LCKDe+cMv9iX5S5FosUtp6Y20HcEcBPuO9tomjC1q9fb8Mwq2lfzMCLPADY88CHeLa7iGde6bsVxBHGDgArfBY85CM/eSiDeORnBQ6xOPIjZQ47fCHCyp28Xi5y8pCfRRB1Z9eBeIhwttwgyiIOomyvN/lT5WFuirxe72geLvaQl7k2OyvEUzcOWwjnHaLe7PuiE+RCJubBvoPDIpPtPNL7CSJhnt+YDMKfnAAXRfRGNPrHPvYxYQMe8HFI8Le//c3AQD5WsmwhoVgUyPEtCqdRzjjjDPPD48477+zeFiIPhxaUvWjRIuOFn3BubNEJ4EU5dBj8CxcutHBW35xkEQ6RlnK4bwv4aBR4AUjKgCdg5c4CxJYTG/o0MgcDAANZ4U+Hoqy7777b0vIHQLCxDwDvuusuk5Uy4Ot7zyysqB/hpEceX6xxmhjKetJJJxmIKJtwyoaoNws2eFA+srBTwVEzaagb++OEe5uRh69H/Hs8+NAZOQAiDR2Ie8XIBB+unX7yk58k2aBSTrbD2JbaG6FgwIe1pZdzLIkyUQ5xKIeGIowNfsJoAC6Zo2jCUWaYhw110vBFASDAT1ryACrSclUPpRPPtUPisVbscRLvedg7BoxYJMLJT+ehDPx0qml64gYxOmCRkJ2OiEWCuIFGXh4OASDSUCbWHovFXjXxXm/2dl0+4iBkYu8WfUHwQn4IvZAHq1dXV2fhyAcBZMoiP8aBMrDyy5cvtzogJ/J6/UhHvelUdFLkgBcg5tiaeECMRcZPu5GGEY73dEScj0Lp0nh4X7fDBgy4LiiVQjkoAMW6AnDdH8Z5o5AfhYfkcaT3vMR7OH7PQ7yHUy55QqLBvVwPj+YhHw98vDzPE6Ylfxge5gnlIZxynVymVOGEeZmUzzvpCcMPhbzCclLV2/OF9fYw3Ggewnggl9NeUvwhXX8DNydThRSypw1CyaFSXenuhhnDtISjEMLcDRUY5nf+YR78YTjvIaWKi5ZPesoOy3UeqdIS53JF83h4qnLJlyo8VR4PS5fHw11nvIf+sBznhRuGk4cwj+d9sCknuwp9rUS2ivD07mZSrqd1N8xDA2ZLqfhky2Mg07u87lJ26Oe9L3og32DSoAJ3ICueqnGiDTiQ8vSlrFR1yCWfXPHvi0zZ5hkw4DJnYj7l8zMWGTw+l4oKTjjxgMufcA6XSsmEeR7n5+UyVKc62oRnyBc/PFLxd564LpPzJ09I8PG64Y/y83zIFB2WQz7udx7woS4hP/zRentYNB3vyA4/HvyE4XeZKNPr53HEDyXqqe1+koxKcyeUlTLbPqzq2V5ipcw22Jlnnmk7Cl4820lcgGbLipUwSmSFzd4rN6cgVvb8ngHXIRcuXGi8WPVy04tvxuALILgo/vOf/9xW9KyQiWMLCDlobD6w5FYYd2dZUPzyl7+0m2lcK/TV9F//+ldL8453vMO2l7gCyTVDQMdOCPUATFx/PPnkk23nhN9foL6k4SsL8nJlkLqwQ8F1Su7pckGJlT75qAc7GSEBHAB1/fXX26/nsN01TXc3uOcLP/jzmxBspZ1yyil2Uw59s1tw0003WbnsrLCjwqf7XP9k9+IHP/iBtQH6ZU/aOw87BvwgCtc62R6EPzIhNzsu7HCwReidMpR1QP0qUFp65oWViYLacxOlMy5Mm4YI3Q5L6LZL2kcrn3jve9+b0MomdBsnoQ2Z0AZhKZzQC93GO8xPgP4UkMXrRrql181/y/P1r3/d0it4EqrkhF7bs3cFQEL3OxMK+sSll16a0L3ahAIuoeC0cvVQI6HXExO65ZX40pe+ZHmQS69EJnSvM6EdycIUPFbuhz/8YXunbtpZEocffnhC79EmyPO9730voZv/Ce0ICQVhQoFieShX9z0T3/jGNxLa0RL6PVdCryea3JSjn/QYz5/85CeWnjTakRIK3ISCIqH70RYf6kIPLhLaGa0e2uFNVnSinSqhnxUlFMiJH//4x1bGV7/61YRuNyYUiAntkFbG5ZdfntD924QC1crQTpyAp161NL1QLnKgJ9pDQa3/WGWntYt2bmsv6kd7kecLX/iC6TaUMepHZ5nSrAX/nSicen7iupsfyDSLpRuwqYL3xmuuucYsDZZwpX7yoo1sPRorweM9WaWzLPzEERYPi80dVb5WgIjHSmDpnDwPYVhBLDYu35hxQsVdW/aCOeBgP7k3wkqzMY/FgV9YDn6uArIRjyVjn5S68E694I91Yj+Uw4lrr73WrBuHD9DVV19tIwkjBJZXwWUnifwaTkjogvu8yI1lxDozOnzrW9+yUQsrzOhEvbHMyOU6CPngJ9wfZL/vvvtMZn4shDr+7Gc/s8MGH13QLQctjBzUjX1dRgh+KYh2GmwakKlCWEmGVpTP8SnDHmBEMf4ZNUeVDG1OTAlQOGk5NmU4Tkc0nhON7p3g+9//vjUOU41vfvObloQGdwobGx4Ml0wb+A0vQBjyxe8A4OCFhykHDc2hAFMaGpbhVy2gfOQjH5ELLrjAhnXiqAdEvi9/+cv2iQ0HLnRophCAMyTqwLSGqRUd4xOf+ISo9bepFACEX1S+MH9YtzAcvcObaQxEx0D3tI9aUAuj0yMPZdApADhfBcOTvOl4W+Z+/pMTi5tJBVy5fOtFQ9bV1dmJDXcBdPi3T1w4FuY7MJTk6fkaged973ufWRfmXyjQ40P9IIeH43KjnzsRHJky/2N+TFlYSObZUCrZaRydTthpF5YpPA4lD7wBkg751sn4ipavJLBW+N/5zncaf0YTgAGQsaoAARB+8YtfNBfLy6c9dJArrrjCrHhozdADHRzAYsF1SmB602mX/QiJdz7q4PUIdYCsIXkawsI8nia02MiBnmgrThk5ndTpk51w0klDXp5/IN2cWFwacm8VcUXxISSNC/hQAAsmwAywaNQ6BXTYm3/0ox8ZUGh0hsjzzjvPhk8vz11k4HFiQcEHjgxx3FdgocEihp9o4uEsn6EQCvPxTt53v/vdBvjf/va3trCLngTxZQXD7EJdUGGRkIORAjDx2wv8ThjfmfEJElabX2ykA/zhD3+wfBwBMw3imJgpDQtNFkQcMfvwjyzogoUYx7nIDD86E4tK7h2QJ6x7tC7wcIrGeZt4fOgCYo7Amb5wx4K24t6Dt0+YdjD8OQGug2dvFUBx/P4sn227EsnL0MeD38OdF5+bE8ZwzGWaK6+80nYUGFZpYOaqbgF8hY81JYz5GfNDPhjkMgtTFL7c/drXvmYfLTpwvazQBWQ//OEPTV6mMv7bBKRBTjoZ37qxIxLuBPCrN8yPKYvymRJcdtllBlbi6LD8eiQdkfktuw1Mh7BsdCw6GtaNMgAtVo/Oyt0O5vfUkZ8DxWrDD6JTYSHhA5GPuTUE2KI6tYiuP+niKB8rz6jFvQeAjE4h/INNOQFuJpVAEVRYV+Q2JDKnohG5mgeQaPxQiaSHPvWpT1kjEo/1o1GxBMy9AB7Ds650bfvrO9/5jimXSyMMsTQyVom5JD/+htXCCjJ9gA9EOV4W78jo78xJARnlIivkcd4JsN7IDRCZq7I959aUurJ9BCABGRYanoCeBSMjCKDAynLJiG0xhuWQmDfDA4tNHB2fRRI31djagvwmF7pgBEO33/3ud62zY/2Rj3qFdfMyCEtHfJHMdAddUm/SIgPTNTrHYNKAAJdKszACMAyNKBcrRnidTg1QTpRIwxDlt6dQPpYHS8PQDADIx1QCwEI0GPNO9kSxDmeffbaBhOnJn/70J1M6c9HPfe5zthdKHl8k+tySd6wkDYOVZxXNPJyOwzvEfWH2Quk8/qs4ABdLzwjxmc98xuqG68Sn8J///OetA7BXzJwWYLMgApwLdcrx7W9/20YRt+AAhYUii0vKpoNDTIGoG/WiczJFYdeF/Ow0IAt70Fh+DAPXOHknH2WFRJvQYbDa3inRBUaBzk2n4td8iKPevjYIeQyGv99vhwE4Ko3iUQiN7Yr03u4NFSoAYJKHO6Teu1kJY/lcwfCGH4spwpk6AFjnCz/K9HLpLPBg+IQH+SnH+VAO77jIRBoegAwPpie803EoF4IX5cKDXQ+sKeTzVJcLMJHXCX6UxYiAS8f2vJ7GXXijC1zqxx1Z6kF6eBLOwyjAQxosv+8GkAY5SANAkcUJ4DuYyedEuMehX3QCb3QLD3ilIy8nXXwY3tdrjTmxuAgaNkoomIejLB4ajLkTSnFKlR9F85DWiXdvKMLwe0OgWOKjhKJpEMCBBeHdZcL1TkN+KMoD2Wg4yDsEgAlB5iAPrRZ8yAvfELReV2TiYe6MHP5YQZE/xIVyMRJ5evhByEYnYqSCvGPhJ43LG4KWOGQOAUsYRDgPRAeA/J2yB5tyAtxMK+KNFq10uvyZpPe87kbzeLiDLlp2Ju/Ow3n7ezRvGE5apzDcw5xXKtB4Gnc9rbthXZy3x6Xj5+mcp7vZhKdL67wG0s3JDBul8fRGrthUadLlzUZRziObPKlk6S2sN95efpif9OnypAsP87vf07rr4QPppqrfQJYfLSsnwEWh6ZTqFU4Xj0C9xUUFTveeCx7peGcSHi0/+u48PBy9uG48ri+u83C+feGRSZ7+5p+JDGGanADXlRcydv9Qq7DLNdhuLvSC3nPBZ7B10ZfyczLHZcWbLaHw3gAPP2+UaLp04Z4nmj4qW5g/lRxhfG95o3FePq6Dyt0wLPTvTVbSpiOX3eUlXViev6fLv7dw57svMu6tjL7GZ4+4FCWxYo8p1sBAaiAnU4WBFDguK9YAGoiBG+NgWGogBu6wbLZY6Bi4MQaGpQZ6BS4ne76yHJa1i4Ue8hrwcyuwlg31CtzRlWUybuIY6VSm/3yQLz73XMLIppA4bayBqAZ2tbbLy8vq9TMhvelXVChjRifvg0TTpXvv9XZYa5v+I8b/faXcdNsiyS8skFMWHiynnXCwnHDMPDlw7pR0POPwWANpNfCs/rsiDzz6ktx+95Ny7/2LGdLljUfPk3v/+CW9AZf5R5i9ApfSNzXslO9d9Re5/IqbpUD/ERO7jqcFzNhvnMydOUkuPOd4OfrQWVJd1fOeZ1rJ44j/URpobmlTkD4hjz69VG5QA9ii77vUIOo38NLR3CoXXXCSXHP5R7LWyV6B6xzXb9ou1950v9x65xOyZt0WqV+7WXuL/m93O/Nk9rypau5HydlnHCVzZ0yQ6spyvZI4Uqoq9IeBR5VJSXF8SOG6/E9ydzbukta2dtm2o0m2NOi/x9zYLE89t0Kee3G13P3AYtmsOMnDknI3oyBfyhUP+02ukSPeMFM+/1/vkOlTx2N0ic6KMgauc+3Y3Smr1mySR7QHPf7Mcnns6Vfl4Yeekzzus6pgHA/mlxSpN1+qdd5SVVEmFeWlMrKsWKZOrJGZ08brxeVSmVU3Xg6YPUXGj62MQe3KHaJue8duAaAvLV0r9RsaZPmqjfLvx1/We7odsllHZIC7fWez+hulrUXvWeuiKMHCiLvPmneejsinHH+gnKpTzZrqCgMr66d9oayBm6owrPHq+i2y6MlX5B5dxL3wyhr9GqBJdqvguxXo5lKZ5DZFkoX6rXLqFhQXyZjKkTJreq3Ujh8tUyeMkfk6h8aCMyWZMqnGrLtor8yn53Y/e96J0xjruUPxbD2V3vorLLkTlLyAg5+nUx/I/NYW+lOm2j7NLa2yZetOWbpig6xd36DtuFmad7XLs0tW6pcfbfL4E/rD1j73zE/qHiUndcxvjiUvyxdoHJfmCwtHyIIj58jRh82Sk46dL/PnTNGvQXJys6CHunIC3B4cu146Ojpl6cr1smL1Rp1aNEi9KmX9ph2yYdNW7aEd8sqKdbai3Lq9Sdp0mDHE2dzj9dxQdpEOMUWqlIpRpWbJS3QlWlZaLGPHVJhbrFORYlVQuVr2mupRasWL7L1QlV5erv8+r7Kt0s5BA47QrzAYBWhK8pTpCAGVKr9i5etEPHHFxar4ZLt7VLeLbAU60vRGAIROlY469EsILFrY4ZJhLZZLcaIWrUWBxsUkkYZtjbbD09TMVyT8+2htZvUaVJf5CqDNW3aau0WNR5vqeqcO31hG+G/b0SwbNm+TXS06vG/cmk4k2CZJ6z1Cp3qlqs8JtVUyWtthXE2FjK+p0tGyQiaOr5aJtaNl+pRx2hajNCz5jwymZ5ybmH4DbirxaGSGHSwtE3S3yDsbW7TX60++r1wnazdus56P1d66tVFW6LC0RUHP/MiIluN/XEgbigB/NY++EM9DNJaAVCHA3G9pSKQNlKcuFj0kgNBdVhgR+J1XENTDy6jTG9EnOiNpusO6xCGeMAh+6BIgQ/pTX9Yhu7+M0DgjdZNefe9Ka+/8SUZIQnmNGlOp07ZJ+mFmlUzR0a5UO+tBc6eqQSiSY4/Uf7NY0zIVLFIjQF0xBuwAoJvBogEF7r5UEiu9S4ewzQ3bZVV9gw1xLARW6+R/+44WadIhjxXsNrU6DHc0Jg2M29b1cSDWB8Lqtrcn/aRh3g51aKfqASBtl3YdOTzeEkX+0HQdKb51606mGCkIrHh3eOBhmC3S7cZuZGocnYhhFwJjjAz0KfUKow1UqHnoVIwgAIoFMOAFfIAaS1haUmjzysm6H4/BwFrOmDpOKtVyMmIBzuFIwwa4fVEuDc43WC0KeLU94kMrlp7hFWIEoFMAQDbFmeJ0kwa2trZZmu6wiEftsTQ26ZANgxSEZSzXxWgPVEbSsZBlmhICF2sGqAAqf8rKimw0oE7lui1JYFlJsY0mzCEBcXS0iBTzH/X6Hw3c/6iWiivTQwO9ryp6JI1fYg0MHQ3EwB06bRFLkoUGYuBmoaw46dDRQAzcodMWsSRZaCAGbhbKipMOHQ3EwB06bRFLkoUG/j/RfDCRxQw1NwAAAABJRU5ErkJggg==;" parent="5p1wcZlrEhRN_ZlcO56I-1" vertex="1">
          <mxGeometry x="183.95000000000005" y="568" width="80.56" height="50" as="geometry" />
        </mxCell>
        <mxCell id="JZCeRioLr8M0Q08cuHrY-21" value="" style="shape=image;verticalLabelPosition=bottom;labelBackgroundColor=#ffffff;verticalAlign=top;aspect=fixed;imageAspect=0;image=data:image/png,iVBORw0KGgoAAAANSUhEUgAAALQAAABoCAYAAABYMdpmAAAMaWlDQ1BJQ0MgUHJvZmlsZQAASImVVwdYU8kWnluSkJDQAqFICb0J0quUEFoAAamCjZAEEkqMCUHFXhYVXLuIYEVXRRRdCyCLitjLotj7YkFFWRcLiqLyJiSg677yvfN9c+e/Z878p9yZe+8AoNnLlUjyUC0A8sUF0oSIEOaYtHQmqQMgQBtQgT6gcXkyCSs+PgZAGez/Lu9vQGsoV50UXP8c/6+iwxfIeAAg4yDO5Mt4+RA3A4Cv50mkBQAQFXrLKQUSBZ4Dsa4UBgjxagXOVuKdCpypxE0DNkkJbIgvA6BG5XKl2QBo3IN6ZiEvG/JofIbYRcwXiQHQHA5xIE/I5UOsiH14fv4kBS6H2A7aSyCG8QCfzO84s//GnznEz+VmD2FlXgOiFiqSSfK40/7P0vxvyc+TD/qwgY0qlEYmKPKHNbyVOylagakQd4kzY+MUtYa4V8RX1h0AlCKURyYr7VFjnowN6wcYELvwuaHREBtDHC7Oi41R6TOzROEciOFqQaeKCjhJEBtAvEggC0tU2WyWTkpQ+ULrsqRslkp/lisd8Kvw9UCem8xS8b8RCjgqfkyjSJiUCjEFYqtCUUosxBoQO8tyE6NVNiOLhOzYQRupPEERvxXECQJxRIiSHyvMkoYnqOxL8mWD+WKbhSJOrArvLxAmRSrrg53kcQfih7lglwViVvIgj0A2JmYwF74gNEyZO/ZcIE5OVPH0SgpCEpRzcYokL15lj1sI8iIUeguIPWSFiaq5eEoBXJxKfjxLUhCfpIwTL8rhRsUr48GXgxjABqGACeSwZYJJIAeIWrvqu+CdciQccIEUZAMBcFJpBmekDoyI4TURFIE/IRIA2dC8kIFRASiE+i9DWuXVCWQNjBYOzMgFTyHOB9EgD97LB2aJh7ylgCdQI/qHdy5sPBhvHmyK8X+vH9R+07CgJkalkQ96ZGoOWhLDiKHESGI40R43wgNxfzwGXoNhc8N9cN/BPL7ZE54S2giPCNcJ7YTbE0XzpD9EOQq0Q/5wVS0yv68FbgM5PfEQPACyQ2acgRsBJ9wD+mHhQdCzJ9SyVXErqsL8gftvGXz3NFR2ZBcyStYnB5Ptfpyp4aDhOcSiqPX39VHGmjlUb/bQyI/+2d9Vnw/76B8tsUXYAewMdhw7hzVh9YCJHcMasIvYEQUeWl1PBlbXoLeEgXhyIY/oH/64Kp+KSspcalw6XT4rxwoEUwsUG489STJNKsoWFjBZ8OsgYHLEPOfhTDcXN1cAFN8a5evrLWPgG4Iwzn/TzYd7PEDc39/f9E0X/QmAg+Zw+7d/09lega8J+J4+u4InlxYqdbjiQoBvCU240wyBKbAEdjAfN+AF/EEwCANRIA4kgTQwAVZZCNe5FEwBM8BcUAxKwXKwBlSATWAr2An2gP2gHjSB4+A0uAAug+vgLlw9HeAl6AbvQR+CICSEhtARQ8QMsUYcETfEBwlEwpAYJAFJQzKQbESMyJEZyHykFFmJVCBbkGrkV+Qwchw5h7Qht5GHSCfyBvmEYigV1UVNUBt0BOqDstBoNAkdj2ajk9EidAG6FC1Hq9DdaB16HL2AXkfb0ZdoDwYwdYyBmWNOmA/GxuKwdCwLk2KzsBKsDKvCarFG+JyvYu1YF/YRJ+J0nIk7wRUciSfjPHwyPgtfglfgO/E6/CR+FX+Id+NfCTSCMcGR4EfgEMYQsglTCMWEMsJ2wiHCKbiXOgjviUQig2hL9IZ7MY2YQ5xOXELcQNxLbCa2ER8Te0gkkiHJkRRAiiNxSQWkYtI60m7SMdIVUgepV01dzUzNTS1cLV1NrDZPrUxtl9pRtStqz9T6yFpka7IfOY7MJ08jLyNvIzeSL5E7yH0UbYotJYCSRMmhzKWUU2oppyj3KG/V1dUt1H3VR6uL1Oeol6vvUz+r/lD9I1WH6kBlU8dR5dSl1B3UZupt6lsajWZDC6al0wpoS2nVtBO0B7ReDbqGswZHg68xW6NSo07jisYrTbKmtSZLc4JmkWaZ5gHNS5pdWmQtGy22Fldrllal1mGtm1o92nRtV+047XztJdq7tM9pP9ch6djohOnwdRbobNU5ofOYjtEt6Ww6jz6fvo1+it6hS9S11eXo5uiW6u7RbdXt1tPR89BL0ZuqV6l3RK+dgTFsGBxGHmMZYz/jBuOTvok+S1+gv1i/Vv+K/geDYQbBBgKDEoO9BtcNPhkyDcMMcw1XGNYb3jfCjRyMRhtNMdpodMqoa5juMP9hvGElw/YPu2OMGjsYJxhPN95qfNG4x8TUJMJEYrLO5IRJlynDNNg0x3S16VHTTjO6WaCZyGy12TGzF0w9JouZxyxnnmR2mxubR5rLzbeYt5r3WdhaJFvMs9hrcd+SYuljmWW52rLFstvKzGqU1QyrGqs71mRrH2uh9VrrM9YfbGxtUm0W2tTbPLc1sOXYFtnW2N6zo9kF2U22q7K7Zk+097HPtd9gf9kBdfB0EDpUOlxyRB29HEWOGxzbhhOG+w4XD68aftOJ6sRyKnSqcXrozHCOcZ7nXO/8aoTViPQRK0acGfHVxdMlz2Wby11XHdco13muja5v3BzceG6Vbtfcae7h7rPdG9xfezh6CDw2etzypHuO8lzo2eL5xcvbS+pV69XpbeWd4b3e+6aPrk+8zxKfs74E3xDf2b5Nvh/9vPwK/Pb7/eXv5J/rv8v/+UjbkYKR20Y+DrAI4AZsCWgPZAZmBG4ObA8yD+IGVQU9CrYM5gdvD37GsmflsHazXoW4hEhDDoV8YPuxZ7KbQ7HQiNCS0NYwnbDksIqwB+EW4dnhNeHdEZ4R0yOaIwmR0ZErIm9yTDg8TjWnO8o7ambUyWhqdGJ0RfSjGIcYaUzjKHRU1KhVo+7FWseKY+vjQBwnblXc/Xjb+Mnxv40mjo4fXTn6aYJrwoyEM4n0xImJuxLfJ4UkLUu6m2yXLE9uSdFMGZdSnfIhNTR1ZWr7mBFjZo65kGaUJkprSCelp6RvT+8ZGzZ2zdiOcZ7jisfdGG87fur4cxOMJuRNODJRcyJ34oEMQkZqxq6Mz9w4bhW3J5OTuT6zm8fmreW95AfzV/M7BQGClYJnWQFZK7OeZwdkr8ruFAYJy4RdIraoQvQ6JzJnU86H3LjcHbn9eal5e/PV8jPyD4t1xLnik5NMJ02d1CZxlBRL2if7TV4zuVsaLd0uQ2TjZQ0FuvCn/qLcTv6T/GFhYGFlYe+UlCkHpmpPFU+9OM1h2uJpz4rCi36Zjk/nTW+ZYT5j7oyHM1kzt8xCZmXOapltOXvB7I45EXN2zqXMzZ37+zyXeSvnvZufOr9xgcmCOQse/xTxU02xRrG0+OZC/4WbFuGLRItaF7svXrf4awm/5HypS2lZ6eclvCXnf3b9ufzn/qVZS1uXeS3buJy4XLz8xoqgFTtXaq8sWvl41ahVdauZq0tWv1szcc25Mo+yTWspa+Vr28tjyhvWWa1bvu5zhbDiemVI5d71xusXr/+wgb/hysbgjbWbTDaVbvq0WbT51paILXVVNlVlW4lbC7c+3Zay7cwvPr9UbzfaXrr9yw7xjvadCTtPVntXV+8y3rWsBq2R13TuHrf78p7QPQ21TrVb9jL2lu4D++T7Xvya8euN/dH7Ww74HKg9aH1w/SH6oZI6pG5aXXe9sL69Ia2h7XDU4ZZG/8ZDvzn/tqPJvKnyiN6RZUcpRxcc7T9WdKynWdLcdTz7+OOWiS13T4w5ce3k6JOtp6JPnT0dfvrEGdaZY2cDzjad8zt3+LzP+foLXhfqLnpePPS75++HWr1a6y55X2q47Hu5sW1k29ErQVeOXw29evoa59qF67HX224k37h1c9zN9lv8W89v591+fafwTt/dOfcI90rua90ve2D8oOoP+z/2tnu1H3kY+vDio8RHdx/zHr98InvyuWPBU9rTsmdmz6qfuz1v6gzvvPxi7IuOl5KXfV3Ff2r/uf6V3auDfwX/dbF7THfHa+nr/jdL3hq+3fHO411LT3zPg/f57/s+lPQa9u786PPxzKfUT8/6pnwmfS7/Yv+l8Wv013v9+f39Eq6UO/ArgMGGZmUB8GYHALQ0AOjw3EYZqzwLDgiiPL8OIPCfsPK8OCBeANTCTvEbz24GYB9sNnMgN2yKX/ikYIC6uw81lciy3N2UXFR4EiL09ve/NQGA1AjAF2l/f9+G/v4v22CwtwFonqw8gyqECM8Mm4MV6LrBWBz8IMrz6Xc5/tgDRQQe4Mf+X55bjwFeCncVAAAAlmVYSWZNTQAqAAAACAAFARIAAwAAAAEAAQAAARoABQAAAAEAAABKARsABQAAAAEAAABSASgAAwAAAAEAAgAAh2kABAAAAAEAAABaAAAAAAAAAJAAAAABAAAAkAAAAAEAA5KGAAcAAAASAAAAhKACAAQAAAABAAAAtKADAAQAAAABAAAAaAAAAABBU0NJSQAAAFNjcmVlbnNob3QmGuGYAAAACXBIWXMAABYlAAAWJQFJUiTwAAAC22lUWHRYTUw6Y29tLmFkb2JlLnhtcAAAAAAAPHg6eG1wbWV0YSB4bWxuczp4PSJhZG9iZTpuczptZXRhLyIgeDp4bXB0az0iWE1QIENvcmUgNi4wLjAiPgogICA8cmRmOlJERiB4bWxuczpyZGY9Imh0dHA6Ly93d3cudzMub3JnLzE5OTkvMDIvMjItcmRmLXN5bnRheC1ucyMiPgogICAgICA8cmRmOkRlc2NyaXB0aW9uIHJkZjphYm91dD0iIgogICAgICAgICAgICB4bWxuczpleGlmPSJodHRwOi8vbnMuYWRvYmUuY29tL2V4aWYvMS4wLyIKICAgICAgICAgICAgeG1sbnM6dGlmZj0iaHR0cDovL25zLmFkb2JlLmNvbS90aWZmLzEuMC8iPgogICAgICAgICA8ZXhpZjpVc2VyQ29tbWVudD5TY3JlZW5zaG90PC9leGlmOlVzZXJDb21tZW50PgogICAgICAgICA8ZXhpZjpQaXhlbFhEaW1lbnNpb24+MTgwPC9leGlmOlBpeGVsWERpbWVuc2lvbj4KICAgICAgICAgPGV4aWY6UGl4ZWxZRGltZW5zaW9uPjEwNDwvZXhpZjpQaXhlbFlEaW1lbnNpb24+CiAgICAgICAgIDx0aWZmOlJlc29sdXRpb25Vbml0PjI8L3RpZmY6UmVzb2x1dGlvblVuaXQ+CiAgICAgICAgIDx0aWZmOlhSZXNvbHV0aW9uPjE0NC8xPC90aWZmOlhSZXNvbHV0aW9uPgogICAgICAgICA8dGlmZjpZUmVzb2x1dGlvbj4xNDQvMTwvdGlmZjpZUmVzb2x1dGlvbj4KICAgICAgICAgPHRpZmY6T3JpZW50YXRpb24+MTwvdGlmZjpPcmllbnRhdGlvbj4KICAgICAgPC9yZGY6RGVzY3JpcHRpb24+CiAgIDwvcmRmOlJERj4KPC94OnhtcG1ldGE+ClmbF9oAACOYSURBVHgB7V0HmFXVtV7TK9M7DAwDQwcFQXoRxYIVg8HEFhGNEn2fz5g8k6i8FH3x5b2Uz7w8zTMW1KhRo6gkCCI10iK9I2UK03tvDO//151zOXPn3mHuMMy9M54FZ845u5+1/7322nuvva/PWZBYZHGgj3DAt498h/UZFgeUAxagLSD0KQ5YgO5T1Wl9jAVoCwN9igMWoPtUdVofYwHawkCf4oB/n/qa83yMzk86zFLa3MwRbbOY7d3NYZw/22I69zNcfYwHN+8+Poxp5HAuFXVuk5aPtHdrE6BPv/RaQJ850yLVtfVSUVUnzc1npK6+Ec+10tDQJI1NzVJRWQe3BmlGuNq6RqlBWIYrK69GhfpIYUklKt5HmE5JeZU+1yNuFdKDN9JukHqkaaZauNHdGRFEDTX10tLY5Mzb5obGFBoTKS0OjcocIcDfT2Kiw8QcxM/XB2794HZW3aOjwoTh+B4fEyGBgf4SHRmqfqHBgRIWFix+fkgH4SLCQzRcv3CbWz99F4mLDpfgoACJjAiTIMQPDPAXX+TT28nHGxdWauuaZMPWg1JTVy+VANjRk3lSUlolmdnFkp1fIi0AIUFxprlFmgDSlhY8t+AZQG7Bne8NTXA/c8YOJBtAIOEMIWdzUBDY/jDoOX+n602MY8R3VvOtaTrzsrudT3wSU07C2CR0ayomfx8DhIabYvKclPb1t8msQH9fbbTaEJBMYGAAQO9jB7Kvr6/0Cw3WhpOWGifhaBRsDBmDk2VURn9hQxmBu7dTjwCa4Kii9ALQqmvqpLGxWbJyS+TIV7ly4NhpSNAG+XLvCdm757gAmVqhPn5Q743KYaWxwnDpDdLHFw+snIAA27MvwhtSxg+VQwAEBfnrPQKVExkeKgGBfpKYEK0Sa2D/WG0UTCNF3URCQwIlFpKLmI2KCBdKNTOxgiMjQp2CGrJTAWAO7+yZPQrL7ooa0UDzC8rEDlQEZMM9XVCi38LvKiiqUB4yTHZuMXqiJiksrlD/6uo6Ka+o0Yaej16IvRKJd9YDBQBzb0AdsHdqYsOHEGhG3bQ0N5sauK3xnoX7WfiTzqIcEfFRCvbxY9Okf1KMjBiSLCOG9pdhg5NQF/7geYCEBAVqr0HJ39N0UQBdAOYePp4rW/55VE7lFElVdb2cOFUgrKyTWQVSgQoB922AJbPIOzBbpRCAGRQWAuBFysCUOAkJDpD+ybES2S9UEuIiJCE2UsJCA7VLDQ8Lkgi4E5QhkCAMQ4YGBgSIP9Kh/9edbD2NDwRJvTShxyLgieiS0mqhilVRVQM1rVl7t0L0glXVtZJfWCnFpZWqguTklUL4FGsDyj1dLGeghmljM3oqCh7WHSU81KIYCISkuEhVdwYOiFew0+3qmWMlPjbioldHtwA6HwD9eM1O2bTtkLy3cqsCk4ykWoD/Nmp9oDtbfWr/OImNCpd5s8cpQKdNHIEWH40uLkklOSMZ3awh0Iz31hSt20XigK0R2BJntbH34X/yP7egVPYdzgboyyULAF+7eb+UlFXJsRN5DKAXewAlvBt1xk42FoAfOyJVrpo1Vm699nJJS403QnbbvUuArsEga/P2Q3LoWK68veIL2YFnfIntG9Bio2L6STxaaRSlanykDEZLvWRMGiRoiEyfNFwS4WdR3+IAB+IcfJ9AD0xVklJ949bDUtfQCHWoUk7nlUh1Za2chZpDFYb3mKRYufnaiXLbDVNUTx8IIXeh5Dag//LJVvnJc2+jdWJwhhE9C8Z7+oiBsvj2K+S6Ky6V8NAg6QfwhoZAJYDeadHXkwOU9NTVK1Wvr5a8gnJZvXGv7D6QKZ+u3SnowsUHercfLo5pHrzrKnns/uu1Vzd6ZXc55xagn/vDCnnyl++IL3RWjnrHjx4kC+ZPlkfuvcbdfK3wX3MOUJpTPf3vF1dKXmEZQI9pVUwOXHf1ZfLxqz/sMnc6Deg86EwjZz8mtRgU/Ojhm+UbAPK4kQO7nLEV0eKAwQGqKavW7ZGf/uZ9KYda8vrvlso3b5xqeLt17/TSdyPUiiqMfKkpn8wsgnJvgdktTluBXXIgfWCiLoDVYCaG+nUupi27Su5PFEK5+fN7GzAY3Cx3Lpwli26aCv0nTjLSksUfk/cWWRzoDAcI2mysRXAB7ZnffiDVFdXijzHXhZLbgKaiP3P6aNm4fo+8/s56eeO9jRKD5dfRwwbIAEy0T5k0TK6/Yrwq+RdaOCt+3+FASVm1bN99TGc+vsD6RD7WKriAVANzBU4JRgBDXDug+cKFkPuAxqzGuneflvVbDsqzz38gW788ppP2/0Ah2V289eFmeQQrSgkJUTrTcRUm1K+/coIkYvpuJFaUOHrlMivtE3jvC/YDF1IBvT0uBdwZrjKi7rkSzBVJzmys2bRXduw+rvjYgRXgszRD8MEKLuqdizABAK8/JhfGXzJEvole/gcP3ihTbnxSdu47eUEscRvQRm5zpo4SXkVYXdq+65h8hZXAL/eexLJsuew+mCmF+aVScLpFvjqUJS/8caWuBPpjCi8FiyfJWGpOScQFiZ6SGIXVvwiJioQhDeatOUedBPD7YyonBm4WeQcHjmdipRdA5eriV6fypRRGXlUwY8jFVFxefpnko95Ly2tkP8HL6TgOtriawlEXwB6Bek0flKgrh8OxXD4SdiFTJmRIakqs/QPNCzp2RzcfugxoI594LKJQApPUNgAtlB99Agzg/OPaTftkFdQTWrflwC0nq0hO5xTrx+oqEr7cF7YZbLF+2mrZcmmDIZDivpKKZW8ufyfChmDggDi1txgzPFWGpadAGrTIILjRqswi9zlAAHI1d9+hTLVGPAnjr1JYHh7GghmtE/cfyVGjLxp+NWJ5nIBjeEpg2oQoAPGuth4Asb4DxH6w4Zg1YwzsYUJlyvgMWXTzNAmDfkzbDlr4UTJfLLpgQJsLRkDyYqEnjB2sXpTiP//hIn2mKedRLJEeO5ErR/Ser+9VAH4NpgNpRUczUBorsfvivQBLrdSxSGz54JqNcXxWRxtDQ6JhRglDJUr5MNhwsOUzP9qD2CzHgqHXx2u6FBqpyTFogGda3VrUBsSWIGWKzbAJWbXS2Tb+hqv5rsZS6FU6Sw0dmZkiEdpXGITiKoAILD430qAIhWOep2F9yHIWt9pmUGpWQg+l5WEBVuhIOegti6Czkh80j82B9SLJWJY2JKndIIpqASVK650Ch0ZZFDD+eE5G7xoMaz0ahg1NS4JwSZIhkL5JcJ87bbSm7ak/na+BbighlX6aIvIyEyuqDNKiGQCrwDxkKazFKO1pNXYalUGJcBwqDUGg0h/zljkYIbPxFBRWSHVxudRBssDsBoZP5fjrI0f2n7JlwYohCvhH74Zz6wtvAIR5hM3KVMMme5s5K+FQlzrqEjkW4MqovQ3YsnH6l1nWwK7aVXrMn1NYZiIPuLxMv2YsJ6tUZAAjQySqDd7uBg/Dr7Vl2m50R2MAIENggchyDx6UIMFYKEvBuIcCgTYWFEpD0xLV8CsIYQlWGoFRaCQnxuhqsLl83vLco4B29dFs+XFQXUhJUC26QlRpOFdeVlGrqg5VHlYAdT9dekVDOYlnViDrOROqD7u+E9mFKumMujfy5kqWmbig1KZFmD312TGFdgGcOLQ2qnY+rZaHDu5swKSg1uktSumB6IkoqdmjEZg04I+G0Re/ncZebDRpqQk6ZqEqx40AnJHqq+QVgO4O5nJgSRoAnZs0feIwvXf2D3sEA5IcsRdjsEtpSOKdg13j3VmajE+rs9YozoLY3QhEmsG6So8gTHAw4KLaRHMD+l1MHdReyF760GcAfaH8N6SfpgNJyFkYM3HmxSLv54C1tOf9dWSV0A0OWIB2g1lWUO/ngAVo768jq4RucMACtBvMsoJ6PwcsQHt/HVkldIMDFqDdYJYV1Ps5YAHa++vIKqEbHLAA7QazrKDezwEL0N5fR1YJ3eCABWg3mGUF9X4OeHTp+8CBA/LKK6/osV7ez6qLV8IAHF324IMPyoABfddo6OJxr23KHgU0i0IDHVdGOm2L2vfebIZG/nLvvfdaYO6m6vU4oLvpO3plMoGBgQrm9PT0Xll+byy0BWgP1Qp3y9x4443iCOaGhgbJzsqWU5mZUo/zsRMSEyU1dYAkJibopmLH4paXl0t+foFkZWbBHrxREpNs4ePjE3QDhDl8Ts5pKSkpkdGjR+k2N7Of+bmoqEhycnJlxIjhEhLS9khhczhvfPY4oNnt8vo6Eb/3tttuk8svv7zNZ9P9d799XnJz8+w8oRslOUF47+J72oRf9/l62bhxkxQVFdvGITDf5ja24KAguXTCpbJw4a3YOnburIvly9+UzFOnZPr0aXL3PXe2Sct4qUMj+p/f/y+2vhXKQw99V8ZdMtbw6hV3jwO6V3CpGwvJ8cKcOXNk0qRJ7VJ97pf/JYWFhdh90iIPfHcJpGOIbN2yTfbu3Sd79uyVP774kroz4po1n8uKD1dg/2SYZAzLkLlz52AzcYjs3rNHdu3cjRNh/yl5aBiP/+AxBlfi5gOmeeDAQTkFYKelpbX6nLt98NcPpaKiEluygrUc53x6x5NHAU3pw8sgPjfjFPm4uDjp378/9vGFq4Rh98yuuKamBpKjABKpqHXnhu2EfiM+7wRDUlKShIbyN0fOpU2/nJwcTd8YhNKf0i85OdnlwJR5M9+Kigr85kq9SkL+fklXqKmpSaZOnSrXXXddu+i5ublSW1srERER8tj3H8XdtiVtyJB0uapgrqz9bJ0svO1Wjbdt23b56/t/lcjISJk9e6ZcN/9ae3pDM4bIrFkz5aWXXgZoM+WNN/4sd975bbs/H6iarFq1Wh54YEkbNaa4uFiOHj2mvHDkXZsEvPjFo4AmX8g4XraDSlpkyZIlMmjQIJUkPIjGTAQXQcVr+/btkFJrtELM4ZjWfffdp4A2xyUIOUV46NChNtOE0dHRsnjx4jZu5ngsF/MlCAi4Tz/9VHbu3NkufXMcZ88EM1UMqhrOCXsdUfaqqipteKNGjbQHS4Qe/e07btd3NuwtX2xV/sybd6VcedVcezjjISEhHoPNe1R12Ltnn5yYdhK6+mD1Jh+4r/LY0a8kJ/u0DByUakSTzZu3CHVy7j2kYOmN1BYxHvoCgoaDo1//+tcyatQo7UbNIDWKxcpgFxsbG6tS7plnntF3xjcaBeNTylHymi/GHT3atsWeYY3wlNbmcI7P7HqZJ4HPXoPgf+qpp/TdyNdIz9Wd4UaOHNkBmAWDvwQcqRalDfuPL/wfGt9rcvjwESkrK9PGZPCA+jIHgZTOEyddZji3uycnJ8nw4RkKzAP7D5r8fTDYG4FjDprkwxUr7O7l5ZWyZvUa5QX1de6R7I3kcUATBBy43H333W7z7+jRo6oOGCoE72PGjGnTjZoTHTJkiEo25kkyAGgO05lnSsyHHnpIpbqRlpGeY3xKdi6Y8Pso+VwRz7u46647Uf7ReubGzi93yh/+5wV55uf/oeDetWu3Rq2r5Y8u4XdO8K0EdUcUEoIfOALV1p07L66pqVFuvOkGxI1QKb0dujbptdeWa/mmT5/a2lu1Vdc0UC/443FAV1dXy9KlS1VfdodflDCbNm1qo++xYQwdOtRlMoZuzgAEorNewGVkB4+oqCh54oknVLc3vIyGZbwzD0r1hx9+WAdZhrure1x8nCy+7zvy9LKfyLXXXiORyMMPjeDI4aPyp5dewa+E7ZNAnJfBcjMvqkIdUXOz7TcTHb+TPcYNN8xX4K7+dLX8859f4jSr0ziLsJ/MnDWj10pn8sK1yOiIU93kR8amYaTNSnekyspK2bdvn3CgQslGNSI+Ph5zsqmqAhw8eFD1YY7aSdT5mBaB5opYsVRJjh07pqAgIMwS1ohHt5MnT9r1SaobzNeRmNewYcMw+DrVpmERbPw2+lOf70gyO6bJuGx41wNwvDhv/N57H8ihg4cgRV9XsJMXdXV1kom5asd5bCM9nlFSWFik38lBr5nweTJm7BhJWLsO6ZdigPmBNo5Ro0dC7YkxB+11zx4H9MCBzg9Of/vttxXQBhgIMj6zm6UOSHXDmGOlHwFNHdlRGjnWyLhx42TlypVagY4S1QjL9DZs2CC7d+/W9KhXz5w5E1LtBiOI/Z6SkqKAZhyD2FCoez/yyCOqaxvu57tvwRTd+PGXtJHmHC/cffcdsuypn+IMQPxUXXi4pKQk69Tby396VX7xzM+cJvv52s9RrkyVwpdf3n6KkOOCaVAvPv7ob2gctoPGFyy42WlavcnR4yoHK94ZUe8kgAk6gpSDOoKGo/AvvvhCSktL7VKR7tQrp0+f3iYpupuBRk9D2rIBOPqZIzNP5s871ZvNmzfr1J05DJ8pLR0bBnsNqhnMq7O0E3PH7737V/nVf/4aCyu5qsowX85qbN++A0egUW+28YEzHgRkTU2tPPvMczqOoERmeN7ffPMt+eSTv2mjXbr0QQz0ApwWY86c2RhTBGlvcjPAbPR2TgP3EkePSmjyiFNhzmj+/PnazRNItMojUVKSCCAzGFmRs2bNwuGBbSuOXTKB66hXX3rppUKV5XwV6JgH9X3zQIzlIOgZzrjodscddzhVo7TwLv4kJydi9iYGMxj58sv/+JV+e79+4ZKXl68rgWfPtsiddy3R2Jxjf/Rf/0Ve+r+XNfyTP1kmgwenQb8O1Kk4lpNhvrnoNhmcnqZx+IfHhYF7uM71JkvuXyyvvLwc/JvBIEo8N8+Rx4aft989KqEp/Qg6VzR27FhM/j8gzz33nBDgBC67czLbTATVnDlzzE76fOLECVlhmpoyAkyZMsWtCiNYqd446ud0Z4MxiO/333+/fXrQcO/MnXruD//t+7IIIKT05fTcKejmbPBJsM/4tyd+oMvfRlpxcbHy/ccflWuumafHEZ8+fVpOncxU3Xr48GHyxI9+IBMnTjCC6z06OhLz3JUA+7mf2kvDuOPJp37UOrNhC57SP1nnwzkT0tvIoxKawMzKylJdlVLTGRlzzwQ0r40bN2r3zxVDQw3hYNEsOZkOB2XZ2dmaPhdizKoNG8C0adNkx44dbSS9OX82HIKVeVCtuPrqqxVo5jB85uDVkM633nqrzjc7hunsO8s1fcY0vVhmgpm9iKuehD0SVwl5lZdXoME36hw9BYUzovohS9v7OPZs1153jfDqjeRRQJNhrKw333xT9U2uEJ6PqFpMnDhRV+xWr16tQOUsiWOlcxaAUouVyxkLLmwYxIZE6c8VP2dEfy5Pz5gxQwHNWQfHBmPEY6OhnnvzzTer2mO4X+idDdDcCM+XXlRUx3PS54vfV/ydN+Ue/jpKwhdffFHtNCjtzkfUDxcsWKAzD5TE1JEpSc3E6S6usjE9gs4xXTYCpuOMCGiqAJyS42KMKzDTpoT6/RVXXKES3FlallvPcsArAM1PpgHQ008/LcuXL8eS7+FOcWHevHk6KHNmuUb9mVKaQKakJvDNxPnWhISEdu7mMB09s7Fw6X327Nkw01zYUVDLrwc54FGVg2AzLkpFqg1UA7igQr1u8uTJ2pXTzxlRd6akNmY/zGHWrVunr9SFuZDCaT2zWkJVhGoIjZzcJTaU559/Hkb3ibBkc25X7G6aVvju4YBHAe3sEwheqiC8PvvsM5g5rlKTS0pBjv4diXquM3r00Udl//79apk3fPhwp/oo9fGtW7c6i253Y4NjoyCIOR22B/bGH330kTYGLpzQ31WDsydiPfQYB7wC0AQFiYMrY/WPIOGon9e2bdtUPXBmR+yKU1zU4OpeR8S82AtwOtCsg7M8HHAeP35cwUrpTrNO6sx85urgd77zHU3aAnNHHO55P68ANEFBO2FjxoPSmWQAnaB2NTC7UJY5m79mvtS7jxw5Yk+eZaQ7l6J//OMft2kA9kAX+EA9nztWHBuJny9+hQqzGI7Ta5zWY0Mzk59fAKYZ8RsrUNkc06FtR3h4mH0wbOTH+fXzzahwmjQ8LFzCEN+bySsATelIOwwydsKECapHc1GBc7H044wEJenFIGf6t7N8CGYOJL/3ve9dFDAzz1WrVsuHH6xQcJntkbHijZ9U85N5V18lNOpnz0IwvvPOu7rdinHNg16qSBkZQ+VqLLrQHJXEDbL/vuxnusng/gcWK9g/+2ytLrdTJfvXx/5Fpzg1sMOf1bCT/mjFJzISmw6++90l2ms6BPGaV48Dmrrp9ddf32YVjqDm1RViZZrVh66k4SwOJR5XATkQvVhkDFy5BJ6RkaHZcPCaX5Avx786IZ+tWQs9vkpuv32R9hb+fjaVjEveQ4ak68+68fu5+koAv/rKcll0+23YvzhRxwBc+WtqtpmUMvHmpmaV1tlY3NqyZatunnX8Ns7mbFi/SQfegeCBueE4hvWGd48CmsyhruuObtwR0yhFX3vtNdm1a5du46KuSyCyu6TE56zE448/3q4rdpUm0+NF4k4VZ2auruJ21Z35TZ02VSWxOY1Vf/8UW87WYuNrvk5xGioCAbzomwtl/ITx5uBY8v8Y+xA/l3f/8r4CGhqTS+IPa777znuQ3pPaqTWbNm7WFUtH9cVlYh728Pg8NM0huc/PHaIE4pKzI1HC0VKNzCeAadi0fv16ndemHy30eLlDBA6P6aIddU9RC0DqSFQhKK0did/KQa0jXXnlXNX32VtRWtuMkhxD2d6ZLkHNHd9mos79OY5KMBq12c9bn9tzqAdLSkZyEPTCCy/Is88+qwOxjrKnRH/33Xfl9ddfV/sKx7DcDGCYlbIiKZ15Zz6seDYCDvbORwzLi9KPvYexF/F88brLn2rY4UNH9Dp65Cga5Qbw6I9aHg7KnE1fOubdhAbMRszvD4JK0hFxlzzD8XgDnsdh0KuvLsePevqqHt5bQO1RlcNgHO95eXmybNky1emoP9LwnxVHYLGCufLHWQeCmkvWnGngM/1JZDgBaMyQqCP+0J9+vAhsqiQEOonvjMMwfDbC8Z0D0ltuuQXnXczVsD31h3lv2rRZ1q3boFnyHQXTrVgs6wMPLGlXFIKwuLhEv4XfwPnyDes3qsFSWtog1ftpvOSKxowdDR4IDLmydUf5LQtuArgPSRl6s9CwUElu3VDgKr43uXsFoFkJrDjDtoK7URyXvwk4ShFe7GIpfRxJK9/BkWkbRH9Xcc1h2FC4rM7LEzR69CjYkqTYsz5zphmDtm2qy7711jtYav8GGqCtIZMv6wFeY7MrI1EA8Du58/uhpQ/Y03H1wPl/nqS07Omf60lMtPjbvPkfSKcehmCXYTzifFeRq/Q86e4VgHZkAIFH4HZEzsDbUXizX0dxCebLLrtMl9zNcXrqmQ2Qg89rrr26TZZzcf7GT5f9XE9EmjlzhoLVCMCejFN5BCalM9OYMnWy3HrrLepuhHN15zdz9mbu3NkA8hd6ngfVM/ZknCU5dKhztjWu0u9Jd4/q0D35oZ3Ji4CgaSqPt/UknetTzpUiFHYunM5rwhYrGnIZRDDOhz00Dfp59h2BTak9fvylnQKzkQ4bwazZs3RsQjBTwt900w0KanMvZ4T31rsFaFPNcJPBXXfdZXLxzKOzHoRn21EP5kZZgtZMVD/Yow0enKaLLwQ5Zyy4/9Id4olLQ4cOUQnPE085f93byCtVjp5mIgeSaWlpcs8995xX1bmYZaO6TzBv27odZ3DstWdFaZmdnaNA5rEFnE8nYahru5tE+ty5c+QgBnQch/wdc9ff+tYiDcPQSsyklUyPhpN8Y+ECWDsekMsnXy7BIbYNzHYJfS6qPby3PXgU0AQSu09/f88Vg5XFYxE412wMSj1VSVE4ooE6MHdu2wHYWhjqyVOnTdEFlxAAjVKYGKUtRwxUETMtvu8e+f3zf5C//22VSllKXZoVlJaWybhx4fag3ITL/Mzz3sznew8/2EZHj8HiF3eYN2Nwer6xjT1xDz34oEI71e4yc4ok/bKHxBdzmk1Zf/ZQca1s+zIHJt/wE9m1/5T855N3yKNL5nfpUy0duktssyJ5KwcsQHtrzVjl6hIHLEB3iW1WJG/lgAVob60Zq1xd4oAF6C6xzYrkrRywAO2tNWOVq0scsADdJbZZkbyVAxagvbVmrHJ1iQMWoLvENiuSt3LAArS31oxVri5xwAJ0l9hmRfJWDnQa0GrxoSfAd8r0w1u/1yqXF3PAMJvtpHmR0y/pNKBDQ4MkJS1JfGA8vnLtThiAt9+Z7DQHy9HiwHk4UN/QJF+dypeSclpe+klinOtfMjtPUtJpazsC+KEf/0lee+tz8UGmc2eMkflXXCozJ4+U8WPSzpeP5W9xoB0H9h3Kki++PCYrPt0hqz/fzeOfYN46RLZ98gvslOl4C167xFodOg1ohi9FC/rNSyvl2efeEb+wYD3LIcDfV9JTE2RERn/51i3TZcak4RIXY/vhdVeZWu5fTw5QEn+85kvZsfu4vLXiH1JVXS+NOL2Jx56dqW+UhQtmyJ9//4h9A3BXuOQWoI0Mikqr5I33N8r7K7dLTn4pfoW0SI+hOtsMNQTKdvrwVEmIi5SF10+WIYMSJT42QmKjwyWiX4hE9guTkGDbMQJGeta9b3CguqYePz/XJJVVtUKMVFXXye6Dp2TPgSz5bNM+Kcgq0N6dZyb4YCtZaHiopKXGy4Sx6fLDpTfKKAhFjtBs+9m7xpMuAdrIii0rO7dYtu06Llt2HpPdMM7euH63biPC6YJ69+VP+WK/mx3Q+IjwsCBJTYqVIemJ0g/v6fiocSNxfkRchIQGd3woipG3dfcMB1jn1bUNsv9IthQUlcvxzALZArWhtq5BSgDi+oZmqayutT0jHCSdnD0DmEKdOItzRYZDpZg3a6xcd8Ul6MkjVeDFRHXfiaYXBGhnLC0orpC8gnLZvOOIrN6wW46cyJfikkpbt8KuBR92hrMlkOT20SyfW918A/wlHipLOiR7/+RYSUmMkjEjIPFjI2UwgM8WrTMuaMa+bOn269w7mzh8KAhsjctZQb8mbgaPyTPuQSSfW5SBWgW6lYuvrBdK1yLU3/HMQsnJK9GrDm57DuDn4uobsNfxsPgaui025uqsRCv/yXE/v9YfSYUfd54HYKw15bIMmTZpmFwzc5wMG5IiYZhcuJjU7YB2VlgC+OjxXMmCNM/OLZVcqCn5RRVSiBZOhh3DCLca+lR5Za00VFQThUhGa6BdcqyggH6hEgjgR0aESkxUOE7G9Jfw0GBVbUIg4YNxkZkR4cESi8YRjF9SDUFP4Ydeox/UHlJ0ZJhWrB8YH4n0kBvS9LMxHC9MI9h0hBb9mUYw1SW+OCGWjXl0RLoXkC3OBRFYlVV1bRqiulXWtAII+wjBq2YIB7KpvKJG9VB29wRVA/hJYJaCj9wNXgypSeCVldfi5NFmhK+WkjIbj6kasB4aoL+WFZS5KJEma/PDd/ujRw0Cv/unxEgU+EbVMpFXfASET4ykJEVL2oB4SUqIUnfXiV4cnx4BtLOis/KboHNTYtQ3YmBAyY1Kqq2tl8KSajmZlQ8JUSp5AP3BozmQ8lVyCrp6MRqFj3EIDWuU/7UBIBdUIB2MV33Ai/6jRIGvPwBHPPJukAFCpmOcSKTP9oRsIX0oeRzcjDSMu5GW8W6+M38CsSNi2cgHhjWIbi2M1+rIZ7qRGJa81F4P7/y1WEpgW8OBA56VWu8MiwDnnPhu+KEOwqL6yehhAyQlORrgjEEjDpRx6CFDQwJl1pRRmjZ5QCFCYcBpNgoPg2+2zDz312OAvpBPbsQUoq17LJdsgL6OEgYSLPt0iQ5EqiCtKKkoiXJyceYbKopAYmVyVE1qRCMisfLpRqwQFM0c2PIZd4LFTEyjycHN7K+AxZEDLgnY8XPxu9tGHIKFEtAAmbq3AsgIwykthiMs2fuQ/Fvd/AEyPwAsGL0JQT0AahtBngzVjW6J8ZEKVEbmbFRGWiJO9Q/BuCZEwgDa3k69EtBdYTqFEIFdh8ELRV1Vja1bJ8g5oCERsGwoJALecfGoEWA1GoQGavfHR2rQw7gi5hWO6c6OiJIulOdhEK2txBP8w/Aj8+qEP5SWDMf3cNVJ8QtiUJHYO1BaUh3zFolpfENP3b82gO4phlr5eJYD5xRJz5bDyt3iQLdwwAJ0t7DRSsRbOGAB2ltqwipHt3DAAnS3sNFKxFs4YAHaW2rCKke3cMACdLew0UrEWzjw/0Kphoq4cTgXAAAAAElFTkSuQmCC;" parent="5p1wcZlrEhRN_ZlcO56I-1" vertex="1">
          <mxGeometry x="180.96000000000004" y="622" width="86.54" height="50" as="geometry" />
        </mxCell>
        <mxCell id="JZCeRioLr8M0Q08cuHrY-22" style="edgeStyle=orthogonalEdgeStyle;rounded=0;orthogonalLoop=1;jettySize=auto;html=1;strokeColor=#3333FF;" parent="5p1wcZlrEhRN_ZlcO56I-1" source="JZCeRioLr8M0Q08cuHrY-24" target="JZCeRioLr8M0Q08cuHrY-29" edge="1">
          <mxGeometry relative="1" as="geometry" />
        </mxCell>
        <mxCell id="JZCeRioLr8M0Q08cuHrY-23" value="1.2" style="edgeLabel;html=1;align=center;verticalAlign=middle;resizable=0;points=[];" parent="JZCeRioLr8M0Q08cuHrY-22" vertex="1" connectable="0">
          <mxGeometry x="-0.2666" y="-2" relative="1" as="geometry">
            <mxPoint y="1" as="offset" />
          </mxGeometry>
        </mxCell>
        <mxCell id="JZCeRioLr8M0Q08cuHrY-24" value="" style="rounded=0;whiteSpace=wrap;html=1;fontSize=11;fontColor=#0000FF;fillColor=none;strokeWidth=2;strokeColor=#8F8F8F;" parent="5p1wcZlrEhRN_ZlcO56I-1" vertex="1">
          <mxGeometry x="170" y="568" width="110.95" height="105" as="geometry" />
        </mxCell>
        <mxCell id="JZCeRioLr8M0Q08cuHrY-25" style="edgeStyle=orthogonalEdgeStyle;rounded=0;orthogonalLoop=1;jettySize=auto;html=1;exitX=1;exitY=0.5;exitDx=0;exitDy=0;entryX=0.5;entryY=1;entryDx=0;entryDy=0;strokeColor=#3333FF;" parent="5p1wcZlrEhRN_ZlcO56I-1" source="JZCeRioLr8M0Q08cuHrY-29" target="JZCeRioLr8M0Q08cuHrY-9" edge="1">
          <mxGeometry relative="1" as="geometry" />
        </mxCell>
        <mxCell id="JZCeRioLr8M0Q08cuHrY-26" value="1.4" style="edgeLabel;html=1;align=center;verticalAlign=middle;resizable=0;points=[];" parent="JZCeRioLr8M0Q08cuHrY-25" vertex="1" connectable="0">
          <mxGeometry x="-0.248" y="3" relative="1" as="geometry">
            <mxPoint y="1" as="offset" />
          </mxGeometry>
        </mxCell>
        <mxCell id="JZCeRioLr8M0Q08cuHrY-27" style="edgeStyle=orthogonalEdgeStyle;rounded=0;orthogonalLoop=1;jettySize=auto;html=1;exitX=0.5;exitY=0;exitDx=0;exitDy=0;entryX=1;entryY=0.25;entryDx=0;entryDy=0;strokeColor=#3333FF;" parent="5p1wcZlrEhRN_ZlcO56I-1" source="JZCeRioLr8M0Q08cuHrY-29" target="JZCeRioLr8M0Q08cuHrY-24" edge="1">
          <mxGeometry relative="1" as="geometry">
            <Array as="points">
              <mxPoint x="364.40999999999985" y="594" />
            </Array>
          </mxGeometry>
        </mxCell>
        <mxCell id="JZCeRioLr8M0Q08cuHrY-28" value="2.4" style="edgeLabel;html=1;align=center;verticalAlign=middle;resizable=0;points=[];" parent="JZCeRioLr8M0Q08cuHrY-27" vertex="1" connectable="0">
          <mxGeometry x="0.0024" y="-2" relative="1" as="geometry">
            <mxPoint as="offset" />
          </mxGeometry>
        </mxCell>
        <mxCell id="JZCeRioLr8M0Q08cuHrY-29" value="INFA PC" style="rounded=0;whiteSpace=wrap;html=1;" parent="5p1wcZlrEhRN_ZlcO56I-1" vertex="1">
          <mxGeometry x="318.90999999999985" y="610.5" width="90" height="20" as="geometry" />
        </mxCell>
        <mxCell id="JZCeRioLr8M0Q08cuHrY-30" style="edgeStyle=orthogonalEdgeStyle;rounded=0;orthogonalLoop=1;jettySize=auto;html=1;exitX=0.5;exitY=1;exitDx=0;exitDy=0;entryX=0.5;entryY=1;entryDx=0;entryDy=0;strokeColor=#3333FF;" parent="5p1wcZlrEhRN_ZlcO56I-1" source="JZCeRioLr8M0Q08cuHrY-32" target="JZCeRioLr8M0Q08cuHrY-29" edge="1">
          <mxGeometry relative="1" as="geometry" />
        </mxCell>
        <mxCell id="JZCeRioLr8M0Q08cuHrY-31" value="2.1" style="edgeLabel;html=1;align=center;verticalAlign=middle;resizable=0;points=[];" parent="JZCeRioLr8M0Q08cuHrY-30" vertex="1" connectable="0">
          <mxGeometry x="-0.6755" y="-1" relative="1" as="geometry">
            <mxPoint as="offset" />
          </mxGeometry>
        </mxCell>
        <mxCell id="JZCeRioLr8M0Q08cuHrY-32" value="MDM Hub" style="rounded=0;whiteSpace=wrap;html=1;shadow=0;sketch=0;strokeColor=#660066;fillColor=none;gradientColor=none;" parent="5p1wcZlrEhRN_ZlcO56I-1" vertex="1">
          <mxGeometry x="630.52" y="438.02" width="120" height="60" as="geometry" />
        </mxCell>
        <mxCell id="JZCeRioLr8M0Q08cuHrY-33" value="" style="rounded=0;whiteSpace=wrap;html=1;shadow=1;glass=0;sketch=1;opacity=30;fillColor=#99FFFF;" parent="5p1wcZlrEhRN_ZlcO56I-1" vertex="1">
          <mxGeometry x="303.90999999999985" y="320.89" width="120" height="370" as="geometry" />
        </mxCell>
        <mxCell id="JZCeRioLr8M0Q08cuHrY-34" value="" style="endArrow=none;html=1;strokeColor=#3333FF;" parent="5p1wcZlrEhRN_ZlcO56I-1" edge="1">
          <mxGeometry width="50" height="50" relative="1" as="geometry">
            <mxPoint x="590.52" y="720" as="sourcePoint" />
            <mxPoint x="644.4300000000003" y="720" as="targetPoint" />
          </mxGeometry>
        </mxCell>
        <mxCell id="JZCeRioLr8M0Q08cuHrY-35" value="" style="endArrow=none;html=1;strokeColor=#FF0000;" parent="5p1wcZlrEhRN_ZlcO56I-1" edge="1">
          <mxGeometry width="50" height="50" relative="1" as="geometry">
            <mxPoint x="593.52" y="745" as="sourcePoint" />
            <mxPoint x="643.52" y="745" as="targetPoint" />
          </mxGeometry>
        </mxCell>
        <mxCell id="JZCeRioLr8M0Q08cuHrY-36" value="Batch Mode" style="text;html=1;strokeColor=none;fillColor=none;align=center;verticalAlign=middle;whiteSpace=wrap;rounded=0;shadow=1;glass=0;sketch=1;opacity=30;" parent="5p1wcZlrEhRN_ZlcO56I-1" vertex="1">
          <mxGeometry x="660.52" y="709.89" width="80" height="20" as="geometry" />
        </mxCell>
        <mxCell id="JZCeRioLr8M0Q08cuHrY-37" value="Real time" style="text;html=1;strokeColor=none;fillColor=none;align=center;verticalAlign=middle;whiteSpace=wrap;rounded=0;shadow=1;glass=0;sketch=1;opacity=30;" parent="5p1wcZlrEhRN_ZlcO56I-1" vertex="1">
          <mxGeometry x="658.99" y="734.1" width="71.53" height="20" as="geometry" />
        </mxCell>
        <mxCell id="JZCeRioLr8M0Q08cuHrY-38" value="Information Highway" style="text;html=1;strokeColor=none;fillColor=none;align=center;verticalAlign=middle;whiteSpace=wrap;rounded=0;shadow=1;glass=0;sketch=1;opacity=30;" parent="5p1wcZlrEhRN_ZlcO56I-1" vertex="1">
          <mxGeometry x="303.9100000000001" y="320.89" width="80" height="20" as="geometry" />
        </mxCell>
        <mxCell id="JZCeRioLr8M0Q08cuHrY-39" value="INTEGRATION DESIGN APPROACH" style="text;html=1;strokeColor=none;fillColor=none;align=center;verticalAlign=middle;whiteSpace=wrap;rounded=0;shadow=1;glass=0;sketch=1;opacity=30;fontSize=16;" parent="5p1wcZlrEhRN_ZlcO56I-1" vertex="1">
          <mxGeometry x="176.41000000000008" y="210" width="303.59" height="20" as="geometry" />
        </mxCell>
      </root>
    </mxGraphModel>
  </diagram>
  <diagram id="AwtAdhrrbFamjNeDHf1i" name="Delivery plan">
    <mxGraphModel dx="1422" dy="762" grid="1" gridSize="10" guides="1" tooltips="1" connect="1" arrows="1" fold="1" page="1" pageScale="1" pageWidth="827" pageHeight="1169" math="0" shadow="0">
      <root>
        <mxCell id="gXtSOcbHWG7AlP08yzny-0" />
        <mxCell id="gXtSOcbHWG7AlP08yzny-1" parent="gXtSOcbHWG7AlP08yzny-0" />
        <mxCell id="bcxEaOiZ24mUcbg10NG3-3" value="" style="edgeStyle=orthogonalEdgeStyle;rounded=0;orthogonalLoop=1;jettySize=auto;html=1;strokeColor=#3333FF;fontSize=14;" parent="gXtSOcbHWG7AlP08yzny-1" source="bcxEaOiZ24mUcbg10NG3-1" target="bcxEaOiZ24mUcbg10NG3-2" edge="1">
          <mxGeometry relative="1" as="geometry" />
        </mxCell>
        <mxCell id="bcxEaOiZ24mUcbg10NG3-1" value="&lt;h1&gt;&lt;font style=&quot;font-size: 22px&quot;&gt;Sprint-1&lt;/font&gt;&lt;/h1&gt;&lt;p&gt;1. Implement and configure 20% DQ Rules&lt;/p&gt;&lt;p&gt;2. Configure/Build Source Systems, Interface and data exchange format.&lt;/p&gt;&lt;p&gt;3. Build Data Model, Configure Base Objects, Lookup tables&lt;/p&gt;&lt;p&gt;4. Create D&amp;amp;B Interface and Address Doctor in IDQ&lt;/p&gt;" style="text;html=1;fillColor=none;spacing=5;spacingTop=-20;whiteSpace=wrap;overflow=hidden;rounded=0;shadow=1;glass=0;sketch=0;fontSize=14;strokeColor=#000000;" parent="gXtSOcbHWG7AlP08yzny-1" vertex="1">
          <mxGeometry x="90" y="130" width="210" height="250" as="geometry" />
        </mxCell>
        <mxCell id="bcxEaOiZ24mUcbg10NG3-5" value="" style="edgeStyle=orthogonalEdgeStyle;rounded=0;orthogonalLoop=1;jettySize=auto;html=1;strokeColor=#3333FF;fontSize=14;" parent="gXtSOcbHWG7AlP08yzny-1" source="bcxEaOiZ24mUcbg10NG3-2" edge="1">
          <mxGeometry relative="1" as="geometry">
            <mxPoint x="640" y="255" as="targetPoint" />
          </mxGeometry>
        </mxCell>
        <mxCell id="bcxEaOiZ24mUcbg10NG3-2" value="&lt;h1&gt;&lt;font style=&quot;font-size: 23px&quot;&gt;Sprint-2&lt;/font&gt;&lt;/h1&gt;&lt;p&gt;1. Implement and configure 20% DQ Rules&lt;/p&gt;&lt;p&gt;2. Implement Trust from the trust sheet (Design phase)&lt;/p&gt;&lt;p&gt;3. Configure and define Match Rule set for 50% based object w.r.t the source system-1&lt;/p&gt;&lt;p&gt;4. Develop / Configure D&amp;amp;B One World data Sync with IDQ&lt;/p&gt;&lt;div class=&quot;O0&quot; style=&quot;line-height: normal ; margin: 1pt 0in 0pt 0.19in ; text-indent: -0.19in ; direction: ltr ; unicode-bidi: embed ; word-break: normal&quot;&gt;&lt;br&gt;&lt;/div&gt;" style="text;html=1;fillColor=none;spacing=5;spacingTop=-20;whiteSpace=wrap;overflow=hidden;rounded=0;shadow=1;glass=0;sketch=0;fontSize=14;strokeColor=#000000;" parent="gXtSOcbHWG7AlP08yzny-1" vertex="1">
          <mxGeometry x="370" y="127.5" width="210" height="255" as="geometry" />
        </mxCell>
        <mxCell id="bcxEaOiZ24mUcbg10NG3-9" value="" style="edgeStyle=orthogonalEdgeStyle;rounded=0;orthogonalLoop=1;jettySize=auto;html=1;strokeColor=#3333FF;fontSize=14;" parent="gXtSOcbHWG7AlP08yzny-1" source="bcxEaOiZ24mUcbg10NG3-6" target="bcxEaOiZ24mUcbg10NG3-8" edge="1">
          <mxGeometry relative="1" as="geometry" />
        </mxCell>
        <mxCell id="bcxEaOiZ24mUcbg10NG3-6" value="&lt;h1&gt;&lt;font style=&quot;font-size: 22px&quot;&gt;Sprint-4&lt;/font&gt;&lt;/h1&gt;&lt;p&gt;1.&amp;nbsp;&lt;b&gt;SaaS Quoting(CPQ) Batch Process.&lt;/b&gt;&lt;/p&gt;&lt;p&gt;2. Modify MDM Hub for source#2&amp;nbsp;&lt;/p&gt;&lt;p&gt;3. Create match and logic&lt;/p&gt;&lt;p&gt;4. Integrate with source#2&lt;/p&gt;&lt;p&gt;5. Start building Data stewardship in Entity 360&lt;/p&gt;&lt;p&gt;6. Implement and configure 30% DQ Ruls&amp;nbsp;&lt;/p&gt;" style="text;html=1;spacing=5;spacingTop=-20;whiteSpace=wrap;overflow=hidden;rounded=0;shadow=1;glass=0;sketch=0;fontSize=14;strokeColor=#6c8ebf;" parent="gXtSOcbHWG7AlP08yzny-1" vertex="1">
          <mxGeometry x="890" y="100" width="190" height="290" as="geometry" />
        </mxCell>
        <mxCell id="bcxEaOiZ24mUcbg10NG3-11" value="" style="edgeStyle=orthogonalEdgeStyle;rounded=0;orthogonalLoop=1;jettySize=auto;html=1;strokeColor=#3333FF;fontSize=14;" parent="gXtSOcbHWG7AlP08yzny-1" source="bcxEaOiZ24mUcbg10NG3-8" target="bcxEaOiZ24mUcbg10NG3-10" edge="1">
          <mxGeometry relative="1" as="geometry" />
        </mxCell>
        <mxCell id="bcxEaOiZ24mUcbg10NG3-8" value="&lt;h1&gt;&lt;font style=&quot;font-size: 22px&quot;&gt;Sprint-5 (MVP)&lt;/font&gt;&lt;/h1&gt;&lt;p&gt;&lt;font style=&quot;font-size: 14px&quot;&gt;1. &lt;b&gt;Saas Order Processing (Oracle ERP), Billing and Invoicing (SAP-BRIM), Provisioning (CSP Portal) Batch&lt;/b&gt;&lt;/font&gt;&lt;/p&gt;&lt;p&gt;2.&amp;nbsp;&lt;b&gt;Source #1,2,3,4,5 Real Time&lt;/b&gt;&lt;/p&gt;&lt;p&gt;3. Bug fixing for source(1,2)&lt;/p&gt;&lt;p&gt;4. Performance tuning for MDM starts.&lt;/p&gt;&lt;p&gt;5. Implement and configure 20% DQ Rules&lt;/p&gt;" style="text;html=1;fillColor=#d5e8d4;spacing=5;spacingTop=-20;whiteSpace=wrap;overflow=hidden;rounded=0;shadow=1;glass=0;sketch=0;fontSize=14;strokeColor=#82b366;" parent="gXtSOcbHWG7AlP08yzny-1" vertex="1">
          <mxGeometry x="1130" y="100" width="240" height="290" as="geometry" />
        </mxCell>
        <mxCell id="bcxEaOiZ24mUcbg10NG3-13" value="" style="edgeStyle=orthogonalEdgeStyle;rounded=0;orthogonalLoop=1;jettySize=auto;html=1;strokeColor=#3333FF;fontSize=14;" parent="gXtSOcbHWG7AlP08yzny-1" source="bcxEaOiZ24mUcbg10NG3-10" target="bcxEaOiZ24mUcbg10NG3-12" edge="1">
          <mxGeometry relative="1" as="geometry" />
        </mxCell>
        <mxCell id="bcxEaOiZ24mUcbg10NG3-10" value="&lt;h1&gt;&lt;font style=&quot;font-size: 22px&quot;&gt;Sprint-6&lt;/font&gt;&lt;/h1&gt;&lt;p&gt;1. &lt;b&gt;Source #6, 7, 8 Batch&lt;/b&gt;&lt;/p&gt;&lt;p&gt;2. Implement additional rules related to the sources&lt;/p&gt;&lt;p&gt;3. Implement extra user exits and conditional MDM.&lt;/p&gt;&lt;p&gt;4. Refine Interface and perform Integration Testing.&lt;/p&gt;&lt;p&gt;&lt;br&gt;&lt;/p&gt;" style="text;html=1;spacing=5;spacingTop=-20;whiteSpace=wrap;overflow=hidden;rounded=0;shadow=1;glass=0;sketch=0;fontSize=14;strokeColor=#9673a6;" parent="gXtSOcbHWG7AlP08yzny-1" vertex="1">
          <mxGeometry x="1140" y="460" width="190" height="250" as="geometry" />
        </mxCell>
        <mxCell id="bcxEaOiZ24mUcbg10NG3-15" value="" style="edgeStyle=orthogonalEdgeStyle;rounded=0;orthogonalLoop=1;jettySize=auto;html=1;strokeColor=#3333FF;fontSize=14;" parent="gXtSOcbHWG7AlP08yzny-1" source="bcxEaOiZ24mUcbg10NG3-12" target="bcxEaOiZ24mUcbg10NG3-14" edge="1">
          <mxGeometry relative="1" as="geometry" />
        </mxCell>
        <mxCell id="bcxEaOiZ24mUcbg10NG3-12" value="&lt;h1&gt;&lt;font style=&quot;font-size: 21px&quot;&gt;Sprint-7&lt;/font&gt;&lt;/h1&gt;&lt;p&gt;&lt;b&gt;1. Source# 9, 10, 11 both Batch and Real time.&lt;/b&gt;&lt;/p&gt;&lt;p&gt;2. Finalise data migration plan.&lt;/p&gt;&lt;p&gt;3. 90% bug fixed from the initial module.&lt;/p&gt;&lt;p&gt;&lt;br&gt;&lt;/p&gt;" style="text;html=1;spacing=5;spacingTop=-20;whiteSpace=wrap;overflow=hidden;rounded=0;shadow=1;glass=0;sketch=0;fontSize=14;strokeColor=#b85450;" parent="gXtSOcbHWG7AlP08yzny-1" vertex="1">
          <mxGeometry x="880" y="460" width="190" height="250" as="geometry" />
        </mxCell>
        <mxCell id="bcxEaOiZ24mUcbg10NG3-17" value="" style="edgeStyle=orthogonalEdgeStyle;rounded=0;orthogonalLoop=1;jettySize=auto;html=1;strokeColor=#3333FF;fontSize=14;" parent="gXtSOcbHWG7AlP08yzny-1" source="bcxEaOiZ24mUcbg10NG3-14" target="bcxEaOiZ24mUcbg10NG3-16" edge="1">
          <mxGeometry relative="1" as="geometry" />
        </mxCell>
        <mxCell id="bcxEaOiZ24mUcbg10NG3-14" value="&lt;h1 style=&quot;font-size: 22px&quot;&gt;&lt;font style=&quot;font-size: 22px&quot;&gt;Sprint-8&lt;/font&gt;&lt;/h1&gt;&lt;p&gt;&lt;font style=&quot;font-size: 14px&quot;&gt;&lt;b&gt;1. Source#12, 13, 14 both for batch and real time.&lt;/b&gt;&lt;/font&gt;&lt;/p&gt;&lt;p&gt;2. Power Center readiness for data migration&lt;/p&gt;&lt;p&gt;3. IDQ readiness for data migration&lt;/p&gt;&lt;p&gt;MDM readiness for data migration&lt;/p&gt;&lt;p&gt;&lt;br&gt;&lt;/p&gt;" style="text;html=1;spacing=5;spacingTop=-20;whiteSpace=wrap;overflow=hidden;rounded=0;shadow=1;glass=0;sketch=0;fontSize=14;strokeColor=#d6b656;" parent="gXtSOcbHWG7AlP08yzny-1" vertex="1">
          <mxGeometry x="630" y="467" width="190" height="235" as="geometry" />
        </mxCell>
        <mxCell id="bcxEaOiZ24mUcbg10NG3-19" value="" style="edgeStyle=orthogonalEdgeStyle;rounded=0;orthogonalLoop=1;jettySize=auto;html=1;strokeColor=#3333FF;fontSize=14;" parent="gXtSOcbHWG7AlP08yzny-1" source="bcxEaOiZ24mUcbg10NG3-16" target="bcxEaOiZ24mUcbg10NG3-18" edge="1">
          <mxGeometry relative="1" as="geometry" />
        </mxCell>
        <mxCell id="bcxEaOiZ24mUcbg10NG3-16" value="&lt;h1&gt;&lt;font style=&quot;font-size: 22px&quot;&gt;Sprint-9 (Data Migration)&lt;/font&gt;&lt;/h1&gt;&lt;p&gt;1. Perform Data Migration for 12 mn data.&lt;/p&gt;&lt;p&gt;2. Decision on remaining bugs (if any) and release plan for show stoppers.&lt;/p&gt;&lt;p&gt;&lt;br&gt;&lt;/p&gt;" style="text;html=1;spacing=5;spacingTop=-20;whiteSpace=wrap;overflow=hidden;rounded=0;shadow=1;glass=0;sketch=0;fontSize=14;strokeColor=#d79b00;" parent="gXtSOcbHWG7AlP08yzny-1" vertex="1">
          <mxGeometry x="360" y="460" width="190" height="250" as="geometry" />
        </mxCell>
        <mxCell id="bcxEaOiZ24mUcbg10NG3-18" value="&lt;h1&gt;Sprint-10 (Production Release)&lt;/h1&gt;&lt;p&gt;&lt;br&gt;&lt;/p&gt;" style="text;html=1;fillColor=#f0a30a;spacing=5;spacingTop=-20;whiteSpace=wrap;overflow=hidden;rounded=0;shadow=1;glass=0;sketch=0;fontSize=14;strokeColor=#BD7000;fontColor=#ffffff;" parent="gXtSOcbHWG7AlP08yzny-1" vertex="1">
          <mxGeometry x="40" y="517.5" width="250" height="135" as="geometry" />
        </mxCell>
        <mxCell id="bcxEaOiZ24mUcbg10NG3-21" value="13-16" style="rounded=0;whiteSpace=wrap;html=1;shadow=1;glass=0;sketch=0;strokeColor=#000000;strokeWidth=1;fillColor=#ffffff;gradientColor=none;fontSize=18;" parent="gXtSOcbHWG7AlP08yzny-1" vertex="1">
          <mxGeometry x="90" y="80" width="70" height="35" as="geometry" />
        </mxCell>
        <mxCell id="bcxEaOiZ24mUcbg10NG3-22" value="17-20" style="rounded=0;whiteSpace=wrap;html=1;shadow=1;glass=0;sketch=0;strokeColor=#000000;strokeWidth=1;fillColor=#ffffff;gradientColor=none;fontSize=18;" parent="gXtSOcbHWG7AlP08yzny-1" vertex="1">
          <mxGeometry x="370" y="70" width="70" height="35" as="geometry" />
        </mxCell>
        <mxCell id="bcxEaOiZ24mUcbg10NG3-23" value="21-24" style="rounded=0;whiteSpace=wrap;html=1;shadow=1;glass=0;sketch=0;strokeColor=#000000;strokeWidth=1;fillColor=#ffffff;gradientColor=none;fontSize=18;" parent="gXtSOcbHWG7AlP08yzny-1" vertex="1">
          <mxGeometry x="637" y="70" width="70" height="35" as="geometry" />
        </mxCell>
        <mxCell id="bcxEaOiZ24mUcbg10NG3-24" value="25-28" style="rounded=0;whiteSpace=wrap;html=1;shadow=1;glass=0;sketch=0;strokeColor=#000000;strokeWidth=1;fillColor=#ffffff;gradientColor=none;fontSize=18;" parent="gXtSOcbHWG7AlP08yzny-1" vertex="1">
          <mxGeometry x="880" y="70" width="70" height="35" as="geometry" />
        </mxCell>
        <mxCell id="bcxEaOiZ24mUcbg10NG3-25" value="29-32" style="rounded=0;whiteSpace=wrap;html=1;shadow=1;glass=0;sketch=0;strokeColor=#000000;strokeWidth=1;fillColor=#ffffff;gradientColor=none;fontSize=18;" parent="gXtSOcbHWG7AlP08yzny-1" vertex="1">
          <mxGeometry x="1130" y="70" width="70" height="35" as="geometry" />
        </mxCell>
        <mxCell id="bcxEaOiZ24mUcbg10NG3-26" value="33-36" style="rounded=0;whiteSpace=wrap;html=1;shadow=1;glass=0;sketch=0;strokeColor=#000000;strokeWidth=1;fillColor=#ffffff;gradientColor=none;fontSize=18;" parent="gXtSOcbHWG7AlP08yzny-1" vertex="1">
          <mxGeometry x="1140" y="414" width="70" height="35" as="geometry" />
        </mxCell>
        <mxCell id="bcxEaOiZ24mUcbg10NG3-27" value="37-40" style="rounded=0;whiteSpace=wrap;html=1;shadow=1;glass=0;sketch=0;strokeColor=#000000;strokeWidth=1;fillColor=#ffffff;gradientColor=none;fontSize=18;" parent="gXtSOcbHWG7AlP08yzny-1" vertex="1">
          <mxGeometry x="880" y="414" width="70" height="35" as="geometry" />
        </mxCell>
        <mxCell id="bcxEaOiZ24mUcbg10NG3-28" value="41-44" style="rounded=0;whiteSpace=wrap;html=1;shadow=1;glass=0;sketch=0;strokeColor=#000000;strokeWidth=1;fillColor=#ffffff;gradientColor=none;fontSize=18;" parent="gXtSOcbHWG7AlP08yzny-1" vertex="1">
          <mxGeometry x="630" y="420" width="70" height="35" as="geometry" />
        </mxCell>
        <mxCell id="bcxEaOiZ24mUcbg10NG3-29" value="45-48" style="rounded=0;whiteSpace=wrap;html=1;shadow=1;glass=0;sketch=0;strokeColor=#000000;strokeWidth=1;fillColor=#ffffff;gradientColor=none;fontSize=18;" parent="gXtSOcbHWG7AlP08yzny-1" vertex="1">
          <mxGeometry x="360" y="414" width="70" height="35" as="geometry" />
        </mxCell>
        <mxCell id="bcxEaOiZ24mUcbg10NG3-30" value="49-52" style="rounded=0;whiteSpace=wrap;html=1;shadow=1;glass=0;sketch=0;strokeColor=#000000;strokeWidth=1;fillColor=#ffffff;gradientColor=none;fontSize=18;labelBackgroundColor=#ffffff;" parent="gXtSOcbHWG7AlP08yzny-1" vertex="1">
          <mxGeometry x="40" y="467" width="70" height="35" as="geometry" />
        </mxCell>
        <mxCell id="Dp6wUZkHgW9tvBbqhoui-1" value="" style="edgeStyle=orthogonalEdgeStyle;rounded=0;orthogonalLoop=1;jettySize=auto;html=1;strokeColor=#3333FF;fontSize=18;" parent="gXtSOcbHWG7AlP08yzny-1" source="Dp6wUZkHgW9tvBbqhoui-0" target="bcxEaOiZ24mUcbg10NG3-6" edge="1">
          <mxGeometry relative="1" as="geometry" />
        </mxCell>
        <mxCell id="Dp6wUZkHgW9tvBbqhoui-0" value="&lt;h1&gt;&lt;font style=&quot;font-size: 23px&quot;&gt;Sprint-3&lt;/font&gt;&lt;/h1&gt;&lt;p&gt;1. Implement and configure 30% DQ Rules&lt;/p&gt;&lt;p&gt;2. Define User Roles &amp;amp; Privileges, Hierarchies, Relationships.&amp;nbsp;&lt;/p&gt;&lt;p&gt;3. Implement custom User Exits.&lt;/p&gt;&lt;p&gt;4. &lt;b&gt;SaaS Opportunity Management (SFDC) Batch Process&lt;/b&gt;&lt;/p&gt;&lt;div class=&quot;O0&quot; style=&quot;line-height: normal ; margin: 1pt 0in 0pt 0.19in ; text-indent: -0.19in ; direction: ltr ; unicode-bidi: embed ; word-break: normal&quot;&gt;&lt;br&gt;&lt;/div&gt;" style="text;html=1;fillColor=none;spacing=5;spacingTop=-20;whiteSpace=wrap;overflow=hidden;rounded=0;shadow=1;glass=0;sketch=0;fontSize=14;strokeColor=#000000;" parent="gXtSOcbHWG7AlP08yzny-1" vertex="1">
          <mxGeometry x="637" y="110" width="203" height="270" as="geometry" />
        </mxCell>
      </root>
    </mxGraphModel>
  </diagram>
</mxfile>
